<svg id="Layer_1" data-name="Layer 1" xmlns="http://www.w3.org/2000/svg" xmlns:xlink="http://www.w3.org/1999/xlink" viewBox="0 0 654 654"><defs><style>.cls-1{fill:url(#linear-gradient);}.cls-2{fill:#ececec;}.cls-3,.cls-6{fill:#f0f0f0;}.cls-4{fill:#e1e0e0;}.cls-5{fill:#e7e7e7;}.cls-6{stroke:#e1e0e0;stroke-width:2px;}.cls-12,.cls-16,.cls-6{stroke-linecap:round;stroke-linejoin:round;}.cls-7{fill:#f5f5f5;}.cls-8{fill:#346fb6;}.cls-11,.cls-14,.cls-15,.cls-18,.cls-19,.cls-22,.cls-24,.cls-27,.cls-9{fill:#fff;}.cls-9{opacity:0.7;}.cls-10,.cls-11,.cls-12,.cls-13,.cls-15,.cls-18,.cls-19,.cls-21,.cls-22,.cls-24,.cls-28,.cls-9{isolation:isolate;}.cls-10,.cls-12,.cls-18,.cls-20,.cls-27,.cls-28{opacity:0.2;}.cls-11{opacity:0.6;}.cls-12,.cls-16{fill:none;}.cls-12{stroke:#000;}.cls-13,.cls-24{opacity:0.4;}.cls-16{stroke:#346fb6;stroke-width:0.5px;}.cls-17{fill:#192e35;}.cls-19{opacity:0.8;}.cls-21{opacity:0.1;}.cls-22{opacity:0.3;}.cls-23{fill:#f7b375;}.cls-25{fill:#ea5756;}.cls-26{fill:#f0877c;}</style><linearGradient id="linear-gradient" x1="327" y1="1.09" x2="327" y2="655" gradientUnits="userSpaceOnUse"><stop offset="0.21" stop-color="#eff6f6"/><stop offset="0.23" stop-color="#ecf4f5"/><stop offset="0.42" stop-color="#d0dde5"/><stop offset="0.61" stop-color="#bcccdb"/><stop offset="0.81" stop-color="#b0c2d4"/><stop offset="1" stop-color="#acbfd2"/></linearGradient></defs><rect class="cls-1" y="1.09" width="654" height="653.91"/><rect class="cls-2" x="3.84" y="484.15" width="650" height="0.33"/><rect class="cls-2" x="545.65" y="505.08" width="43.06" height="0.33"/><rect class="cls-2" x="423.12" y="508.6" width="11.3" height="0.32"/><rect class="cls-2" x="519.4" y="493" width="24.95" height="0.33"/><rect class="cls-2" x="72.04" y="495.19" width="56.15" height="0.33"/><rect class="cls-2" x="139.76" y="495.19" width="8.23" height="0.33"/><rect class="cls-2" x="174.75" y="500.68" width="121.78" height="0.32"/><path class="cls-2" d="M312,426.17h-251a7.42,7.42,0,0,1-7.42-7.42V65.89a7.43,7.43,0,0,1,7.42-7.42H312a7.43,7.43,0,0,1,7.42,7.42V418.75A7.42,7.42,0,0,1,312,426.17ZM60.93,58.8a7.11,7.11,0,0,0-7.1,7.09V418.75a7.11,7.11,0,0,0,7.1,7.1H312a7.1,7.1,0,0,0,7.09-7.1V65.89A7.1,7.1,0,0,0,312,58.8Z"/><path class="cls-2" d="M593.14,426.17h-251a7.42,7.42,0,0,1-7.42-7.42V65.89a7.43,7.43,0,0,1,7.42-7.42h251a7.42,7.42,0,0,1,7.42,7.42V418.75A7.42,7.42,0,0,1,593.14,426.17ZM342.12,58.8a7.1,7.1,0,0,0-7.1,7.09V418.75a7.1,7.1,0,0,0,7.1,7.1h251a7.1,7.1,0,0,0,7.1-7.1V65.89a7.1,7.1,0,0,0-7.1-7.09Z"/><rect class="cls-3" x="355.83" y="224.87" width="175.9" height="257.89" transform="translate(887.55 707.62) rotate(180)"/><rect class="cls-4" x="362.04" y="232.98" width="163.46" height="47.63" transform="translate(887.55 513.6) rotate(180)"/><rect class="cls-2" x="516.22" y="240.69" width="9.29" height="39.92" transform="translate(1041.72 521.31) rotate(180)"/><rect class="cls-2" x="471.32" y="240.69" width="9.29" height="39.92" transform="translate(951.92 521.31) rotate(180)"/><rect class="cls-2" x="416.89" y="240.2" width="9.29" height="39.92" transform="translate(792.76 588.12) rotate(-170.22)"/><rect class="cls-2" x="504.71" y="245.96" width="9.29" height="34.66" transform="translate(1018.71 526.57) rotate(180)"/><rect class="cls-2" x="483.37" y="245.96" width="9.29" height="34.66" transform="translate(976.02 526.57) rotate(180)"/><rect class="cls-2" x="429.5" y="245.96" width="9.29" height="34.66" transform="translate(868.28 526.57) rotate(180)"/><rect class="cls-2" x="455.25" y="245.36" width="9.29" height="34.66" transform="translate(851.86 618.88) rotate(-167.47)"/><rect class="cls-2" x="496.68" y="238.71" width="4.64" height="41.9" transform="translate(998.01 519.33) rotate(180)"/><rect class="cls-2" x="441.45" y="238.71" width="4.64" height="41.9" transform="translate(887.55 519.33) rotate(180)"/><rect class="cls-4" x="362.04" y="288.15" width="163.46" height="47.63"/><rect class="cls-2" x="362.04" y="295.87" width="9.29" height="39.92"/><rect class="cls-2" x="406.94" y="295.87" width="9.29" height="39.92"/><rect class="cls-2" x="461.37" y="295.37" width="9.29" height="39.92" transform="matrix(0.99, -0.17, 0.17, 0.99, -46.78, 83.72)"/><rect class="cls-2" x="373.55" y="301.13" width="9.29" height="34.66"/><rect class="cls-2" x="394.89" y="301.13" width="9.29" height="34.66"/><rect class="cls-2" x="448.76" y="301.13" width="9.29" height="34.66"/><rect class="cls-2" x="423.01" y="300.53" width="9.29" height="34.66" transform="translate(-58.76 100.32) rotate(-12.53)"/><rect class="cls-2" x="386.22" y="293.88" width="4.64" height="41.9"/><rect class="cls-2" x="441.45" y="293.88" width="4.64" height="41.9"/><rect class="cls-2" x="516.22" y="295.87" width="9.29" height="39.92" transform="translate(1041.72 631.65) rotate(180)"/><rect class="cls-2" x="504.71" y="301.13" width="9.29" height="34.66" transform="translate(1018.71 636.91) rotate(180)"/><rect class="cls-2" x="483.37" y="301.13" width="9.29" height="34.66" transform="translate(976.02 636.91) rotate(180)"/><rect class="cls-2" x="496.68" y="293.88" width="4.64" height="41.9" transform="translate(998.01 629.67) rotate(180)"/><rect class="cls-4" x="362.04" y="343.33" width="163.46" height="47.63" transform="translate(887.55 734.28) rotate(180)"/><rect class="cls-2" x="422.4" y="351.04" width="9.29" height="39.92" transform="translate(854.08 741.99) rotate(180)"/><rect class="cls-2" x="367.97" y="350.54" width="9.29" height="39.92" transform="translate(676.88 798.89) rotate(-170.22)"/><rect class="cls-2" x="455.79" y="356.3" width="9.29" height="34.66" transform="translate(920.87 747.25) rotate(180)"/><rect class="cls-2" x="434.45" y="356.3" width="9.29" height="34.66" transform="translate(878.18 747.25) rotate(180)"/><rect class="cls-2" x="380.58" y="356.3" width="9.29" height="34.66" transform="translate(770.44 747.25) rotate(180)"/><rect class="cls-2" x="406.33" y="355.7" width="9.29" height="34.66" transform="translate(731.25 826.32) rotate(-167.47)"/><rect class="cls-2" x="447.76" y="349.05" width="4.64" height="41.9" transform="translate(900.17 740.01) rotate(180)"/><rect class="cls-2" x="392.53" y="349.05" width="4.64" height="41.9" transform="translate(789.7 740.01) rotate(180)"/><rect class="cls-2" x="474.8" y="350.54" width="9.29" height="39.92" transform="translate(888.99 817.04) rotate(-170.22)"/><rect class="cls-2" x="487.4" y="356.3" width="9.29" height="34.66" transform="translate(984.09 747.25) rotate(180)"/><rect class="cls-2" x="513.16" y="355.7" width="9.29" height="34.66" transform="translate(942.37 849.5) rotate(-167.47)"/><rect class="cls-2" x="499.36" y="349.05" width="4.64" height="41.9" transform="translate(1003.36 740.01) rotate(180)"/><rect class="cls-4" x="531.72" y="224.87" width="30.35" height="258.56"/><path class="cls-5" d="M139.59,169.35s-1.53-10,5.8-16.49,6.68-10.27,4.59-10.77-4,5.94-7.25,7.71c0,0-.1-9.17,3.17-12.55s5-12.09,1.88-12.25-3.44,5.18-4.08,8.95-4.11,9.09-4.11,9.09-.68-8.21-2.8-11.59,3.53-11.11,1.35-14.49-6,3.06-5.71,10.3,5.15,15,4,22.54c0,0-2.13-5.31-4-5.79s-3.85-4-5.14-5.3-2.89,3.21,0,7.39,10.31,15.39,9.18,24.44Z"/><path class="cls-5" d="M144,164.78l2.4,15.05a7.65,7.65,0,0,1-7.56,8.86h-2.55a7.65,7.65,0,0,1-7.56-8.86l2.4-15.05Z"/><rect class="cls-4" x="107.68" y="183.14" width="169.57" height="8.71" transform="translate(384.93 374.98) rotate(180)"/><rect class="cls-2" x="261.98" y="151.02" width="7.47" height="32.12" transform="translate(531.42 334.16) rotate(180)"/><rect class="cls-2" x="225.85" y="151.02" width="7.47" height="32.12" transform="translate(459.18 334.16) rotate(180)"/><rect class="cls-2" x="182.06" y="150.62" width="7.47" height="32.12" transform="translate(340.59 362.49) rotate(-170.22)"/><rect class="cls-2" x="252.72" y="155.25" width="7.47" height="27.88" transform="translate(512.91 338.39) rotate(180)"/><rect class="cls-2" x="235.55" y="155.25" width="7.47" height="27.88" transform="translate(478.57 338.39) rotate(180)"/><rect class="cls-2" x="192.21" y="155.25" width="7.47" height="27.88" transform="translate(391.88 338.39) rotate(180)"/><rect class="cls-2" x="212.93" y="154.77" width="7.47" height="27.88" transform="translate(391.58 380.41) rotate(-167.47)"/><rect class="cls-2" x="246.26" y="149.43" width="3.74" height="33.71" transform="translate(496.25 332.56) rotate(180)"/><rect class="cls-2" x="201.82" y="149.43" width="3.74" height="33.71" transform="translate(407.39 332.56) rotate(180)"/><rect class="cls-4" x="107.68" y="248.18" width="169.57" height="8.71"/><rect class="cls-2" x="115.49" y="216.06" width="7.47" height="32.12"/><rect class="cls-2" x="151.61" y="216.06" width="7.47" height="32.12"/><rect class="cls-2" x="195.4" y="215.66" width="7.47" height="32.12" transform="translate(-36.46 37.19) rotate(-9.78)"/><rect class="cls-2" x="124.74" y="220.29" width="7.47" height="27.88"/><rect class="cls-2" x="141.91" y="220.29" width="7.47" height="27.88"/><rect class="cls-2" x="185.26" y="220.29" width="7.47" height="27.88"/><rect class="cls-2" x="164.53" y="219.82" width="7.47" height="27.88" transform="translate(-46.69 42.06) rotate(-12.53)"/><rect class="cls-2" x="134.94" y="214.47" width="3.74" height="33.71"/><rect class="cls-2" x="179.37" y="214.47" width="3.74" height="33.71"/><rect class="cls-2" x="224.58" y="222.76" width="36.4" height="25.13"/><circle class="cls-4" cx="453.21" cy="143.72" r="25.39"/><circle class="cls-3" cx="453.21" cy="143.72" r="21.59"/><polyline class="cls-6" points="452.19 128.91 452.19 144 442.19 138.34"/><ellipse id="_Path_" data-name="&lt;Path&gt;" class="cls-7" cx="328.84" cy="528.14" rx="252.06" ry="14.72"/><rect class="cls-8" x="294.38" y="153.02" width="258.73" height="244.98"/><rect class="cls-9" x="294.38" y="153.02" width="258.73" height="244.98"/><rect class="cls-8" x="294.38" y="153.02" width="258.73" height="12.47"/><rect class="cls-10" x="544.55" y="165.5" width="8.56" height="232.72"/><rect class="cls-11" x="546.34" y="171.01" width="5.15" height="32.42" rx="1.68"/><line class="cls-12" x1="299.75" y1="325.69" x2="538.9" y2="325.69"/><line class="cls-12" x1="299.75" y1="269.79" x2="538.9" y2="269.79"/><rect class="cls-8" x="299.75" y="170.99" width="239.14" height="36.57"/><path class="cls-11" d="M550.12,159.26a3.13,3.13,0,1,1-3.12-3.13A3.13,3.13,0,0,1,550.12,159.26Z"/><path class="cls-11" d="M539.07,159.26a3.13,3.13,0,1,1-3.12-3.13A3.13,3.13,0,0,1,539.07,159.26Z"/><path class="cls-11" d="M528,159.26a3.13,3.13,0,1,1-3.12-3.13A3.13,3.13,0,0,1,528,159.26Z"/><path class="cls-13" d="M310,232.05a7.66,7.66,0,1,1,7.66-7.65A7.66,7.66,0,0,1,310,232.05Z"/><path class="cls-14" d="M310.94,221.5v5.8H309.6v-4.73h-1.16V221.5Z"/><rect class="cls-13" x="323.39" y="216.98" width="206.66" height="3.89" rx="1.14"/><rect class="cls-13" x="323.39" y="227.08" width="206.66" height="3.89" rx="1.14"/><rect class="cls-13" x="323.39" y="237.17" width="136.2" height="3.89" rx="1.14"/><circle class="cls-10" cx="326.94" cy="256.54" r="3.55"/><path class="cls-14" d="M329.39,256.54a2.46,2.46,0,1,1-2.45-2.45A2.45,2.45,0,0,1,329.39,256.54Z"/><rect class="cls-13" x="337.06" y="254.6" width="37.37" height="3.89" rx="1.14"/><path class="cls-10" d="M402.61,256.46a3.55,3.55,0,1,1-3.55-3.55A3.55,3.55,0,0,1,402.61,256.46Z"/><path class="cls-8" d="M401.51,256.46a2.45,2.45,0,1,1-2.45-2.45A2.45,2.45,0,0,1,401.51,256.46Z"/><rect class="cls-13" x="409.18" y="254.52" width="37.37" height="3.89" rx="1.14"/><path class="cls-10" d="M474.73,256.38a3.55,3.55,0,1,1-3.55-3.55A3.55,3.55,0,0,1,474.73,256.38Z"/><path class="cls-14" d="M473.63,256.38a2.45,2.45,0,1,1-2.45-2.45A2.45,2.45,0,0,1,473.63,256.38Z"/><rect class="cls-13" x="481.3" y="254.44" width="37.37" height="3.89" rx="1.14"/><circle class="cls-13" cx="310" cy="289.17" r="7.66"/><path class="cls-14" d="M312.22,291v1.09h-4.39v-.87l2.24-2.11c.51-.49.61-.79.61-1.07,0-.46-.32-.72-.93-.72a1.44,1.44,0,0,0-1.21.58l-1-.63a2.67,2.67,0,0,1,2.3-1.08c1.29,0,2.16.66,2.16,1.72a2.32,2.32,0,0,1-1,1.83L309.72,291Z"/><rect class="cls-13" x="323.39" y="281.78" width="206.66" height="3.89" rx="1.14"/><rect class="cls-13" x="323.39" y="291.88" width="41.68" height="3.89" rx="1.14"/><circle class="cls-10" cx="326.94" cy="311.09" r="3.55"/><circle class="cls-14" cx="326.94" cy="311.09" r="2.45"/><rect class="cls-13" x="337.06" y="309.14" width="37.37" height="3.89" rx="1.14"/><circle class="cls-10" cx="399.06" cy="311.01" r="3.55"/><circle class="cls-14" cx="399.06" cy="311.01" r="2.45"/><rect class="cls-13" x="409.18" y="309.06" width="37.37" height="3.89" rx="1.14"/><path class="cls-10" d="M474.73,310.92a3.55,3.55,0,1,1-3.55-3.55A3.55,3.55,0,0,1,474.73,310.92Z"/><path class="cls-8" d="M473.63,310.92a2.45,2.45,0,1,1-2.45-2.45A2.46,2.46,0,0,1,473.63,310.92Z"/><rect class="cls-13" x="481.3" y="308.98" width="37.37" height="3.89" rx="1.14"/><path class="cls-13" d="M310,353.06a7.66,7.66,0,1,1,7.66-7.66A7.66,7.66,0,0,1,310,353.06Z"/><path class="cls-14" d="M312.16,346.48c0,1-.75,1.88-2.4,1.88a4,4,0,0,1-2.22-.63l.52-1a2.85,2.85,0,0,0,1.66.52c.67,0,1.09-.28,1.09-.75s-.32-.71-1.09-.71h-.61v-.89l1.19-1.35h-2.47v-1.08h4.06v.87l-1.31,1.49A1.66,1.66,0,0,1,312.16,346.48Z"/><rect class="cls-13" x="323.39" y="337.96" width="206.66" height="3.89" rx="1.14"/><rect class="cls-13" x="323.39" y="348.06" width="206.66" height="3.89" rx="1.14"/><rect class="cls-13" x="323.39" y="358.15" width="105" height="3.89" rx="1.14"/><rect class="cls-13" x="395.51" y="374.23" width="7.1" height="7.1" rx="0.4"/><rect class="cls-15" x="396.36" y="375.08" width="5.39" height="5.39" transform="translate(776.84 -21.28) rotate(90)"/><rect class="cls-13" x="409.18" y="375.83" width="37.37" height="3.89" rx="1.14"/><polyline class="cls-16" points="397.41 377.78 398.77 379.01 400.88 376.51"/><rect class="cls-13" x="467.63" y="374.15" width="7.1" height="7.1" rx="0.4"/><rect class="cls-15" x="468.48" y="375" width="5.39" height="5.39" transform="translate(848.88 -93.48) rotate(90)"/><rect class="cls-13" x="481.3" y="375.75" width="37.37" height="3.89" rx="1.14"/><polyline class="cls-16" points="469.54 377.7 470.89 378.93 473 376.43"/><rect class="cls-13" x="323.39" y="374.31" width="7.1" height="7.1" rx="0.4"/><rect class="cls-15" x="324.24" y="375.16" width="5.39" height="5.39" transform="translate(704.79 50.92) rotate(90)"/><rect class="cls-13" x="337.06" y="375.92" width="37.37" height="3.89" rx="1.14"/><path class="cls-14" d="M311.23,188.12a5,5,0,1,1,5,4.69A4.7,4.7,0,0,1,311.23,188.12Zm7.8,0a2.84,2.84,0,1,0-2.84,2.9A2.77,2.77,0,0,0,319,188.12Z"/><path class="cls-14" d="M329.73,188.66v4h-2V189c0-1.13-.52-1.64-1.42-1.64s-1.67.59-1.67,1.88v3.45h-2v-7h1.93v.81a3.07,3.07,0,0,1,2.31-.92C328.48,185.57,329.73,186.53,329.73,188.66Z"/><path class="cls-14" d="M331.55,183h2v9.63h-2Z"/><path class="cls-14" d="M335.21,183.58a1.15,1.15,0,0,1,1.26-1.13,1.13,1.13,0,0,1,1.25,1.09,1.26,1.26,0,0,1-2.51,0Zm.24,2.1h2v7h-2Z"/><path class="cls-14" d="M346.49,188.66v4h-2V189c0-1.13-.52-1.64-1.42-1.64s-1.67.59-1.67,1.88v3.45h-2v-7h1.93v.81a3.07,3.07,0,0,1,2.31-.92C345.25,185.57,346.49,186.53,346.49,188.66Z"/><path class="cls-14" d="M355.19,189.74h-5.28a1.85,1.85,0,0,0,2,1.4,2.34,2.34,0,0,0,1.75-.68l1.08,1.17a3.67,3.67,0,0,1-2.88,1.13c-2.42,0-4-1.52-4-3.59a3.56,3.56,0,0,1,3.73-3.6,3.46,3.46,0,0,1,3.63,3.62C355.23,189.35,355.2,189.57,355.19,189.74Zm-5.31-1.18h3.44a1.75,1.75,0,0,0-3.44,0Z"/><path class="cls-14" d="M362.27,185.29h-2.91v-1.71h7.91v1.71h-2.9v7.37h-2.1Z"/><path class="cls-14" d="M374.34,189.74h-5.28a1.85,1.85,0,0,0,2,1.4,2.34,2.34,0,0,0,1.75-.68l1.07,1.17a3.64,3.64,0,0,1-2.88,1.13c-2.41,0-4-1.52-4-3.59a3.56,3.56,0,0,1,3.72-3.6,3.46,3.46,0,0,1,3.64,3.62C374.38,189.35,374.35,189.57,374.34,189.74ZM369,188.56h3.44a1.75,1.75,0,0,0-3.44,0Z"/><path class="cls-14" d="M375.05,192l.67-1.45a4.79,4.79,0,0,0,2.43.67c.93,0,1.28-.25,1.28-.64,0-1.14-4.22,0-4.22-2.76,0-1.32,1.2-2.26,3.23-2.26a5.74,5.74,0,0,1,2.69.61l-.67,1.44a4,4,0,0,0-2-.51c-.9,0-1.29.28-1.29.64,0,1.2,4.21,0,4.21,2.79,0,1.3-1.2,2.22-3.29,2.22A5.94,5.94,0,0,1,375.05,192Z"/><path class="cls-14" d="M387.11,192.32a2.9,2.9,0,0,1-1.65.44,2.3,2.3,0,0,1-2.61-2.5v-2.87h-1.08v-1.56h1.08v-1.7h2v1.7h1.74v1.56h-1.74v2.84a.81.81,0,0,0,.87.92,1.36,1.36,0,0,0,.82-.26Z"/><circle class="cls-14" cx="517.71" cy="189.42" r="10.31" transform="translate(17.69 421.56) rotate(-45)"/><path class="cls-10" d="M526.83,184.61l-9.12,4.81V179.11A10.32,10.32,0,0,1,526.83,184.61Z"/><path class="cls-17" d="M498.35,506.74s5.61-26.55-4.62-40.93,9.25-.16,11.49,13.3c0,0,3.36-24.07-6.57-41s8.65-3,10.22,14.42c0,0,3-21.47-1.52-33.54s3.38-4.31,6.43,3.26-.95,26.29-.95,26.29,7.95-34.64,15.49-31.88-11.26,25.45-13.87,37.26c0,0,8.88-15.89,15.62-12.58s-10.44,4.95-18.3,28.64L509,481.08s8.18-15.68,13.52-10.74-15.84,13.49-20.77,37.25Z"/><path class="cls-17" d="M499.45,508.27s1.18-33.47,17.72-47.65-11-2.95-17.72,12.5c0,0,3.15-29.83,20.08-47.15s-9.45-6.21-16.54,14.22c0,0,2.76-26.63,11.81-39.72s-2.75-6.17-8.66,2-6.69,31.78-6.69,31.78.78-43.86-9.06-42.81,5.91,33.84,5.51,48.76c0,0-5.91-21.68-15-19.72s11,9,13.39,39.76v14.12s-5.12-21.21-13-16.88,15,20.87,13.78,50.8Z"/><path class="cls-18" d="M499.45,508.27s1.18-33.47,17.72-47.65-11-2.95-17.72,12.5c0,0,3.15-29.83,20.08-47.15s-9.45-6.21-16.54,14.22c0,0,2.76-26.63,11.81-39.72s-2.75-6.17-8.66,2-6.69,31.78-6.69,31.78.78-43.86-9.06-42.81,5.91,33.84,5.51,48.76c0,0-5.91-21.68-15-19.72s11,9,13.39,39.76v14.12s-5.12-21.21-13-16.88,15,20.87,13.78,50.8Z"/><path class="cls-8" d="M484.26,514.85h26.64a11,11,0,0,1,11,11v6a0,0,0,0,1,0,0H473.27a0,0,0,0,1,0,0v-6A11,11,0,0,1,484.26,514.85Z" transform="translate(995.17 1046.68) rotate(180)"/><rect class="cls-8" x="466.9" y="505.05" width="61.37" height="15.21" rx="4.21" transform="translate(995.17 1025.3) rotate(180)"/><rect class="cls-18" x="466.9" y="505.05" width="61.37" height="15.21" rx="4.21" transform="translate(995.17 1025.3) rotate(180)"/><path class="cls-17" d="M227.06,349a2.37,2.37,0,0,0,2.35,3.37H291a5.34,5.34,0,0,0,4.7-3.37l13-37.56a3.49,3.49,0,0,0,.19-1.1,2.31,2.31,0,0,0-2.54-2.28H244.8a5.31,5.31,0,0,0-4.7,3.38Z"/><path class="cls-8" d="M291.44,350.53a2.66,2.66,0,0,0,2.3-1.66l13-37.57a1.35,1.35,0,0,0,.08-.46c0-.52-.38-.85-1-.85H244.32a2.65,2.65,0,0,0-2.29,1.66l-13,37.57a1,1,0,0,0,.07.95.93.93,0,0,0,.82.36Z"/><path class="cls-19" d="M291.44,350.53a2.66,2.66,0,0,0,2.3-1.66l13-37.57a1.35,1.35,0,0,0,.08-.46c0-.52-.38-.85-1-.85H244.32a2.65,2.65,0,0,0-2.29,1.66l-13,37.57a1,1,0,0,0,.07.95.93.93,0,0,0,.82.36Z"/><path class="cls-17" d="M200.71,349.63v1.74l12.2,3.12h77.77a2.17,2.17,0,0,0,2.17-2.17v-2.69Z"/><polygon class="cls-18" points="265.79 349.63 265.79 351.37 277.99 354.49 212.91 354.49 200.71 351.37 200.71 349.63 265.79 349.63"/><g class="cls-20"><polygon class="cls-8" points="302.86 318.82 240.63 318.82 243.05 312.03 305.29 312.03 302.86 318.82"/></g><g class="cls-21"><path d="M299.74,327.56H237.51c-.18,0-.27-.15-.2-.34a.5.5,0,0,1,.44-.34H300c.18,0,.27.15.2.34A.53.53,0,0,1,299.74,327.56Z"/></g><g class="cls-21"><path d="M296.34,337.08H234.11c-.18,0-.27-.15-.2-.34a.52.52,0,0,1,.44-.34h62.24c.18,0,.27.16.2.34A.53.53,0,0,1,296.34,337.08Z"/></g><g class="cls-21"><path d="M292.94,346.61H230.71c-.18,0-.27-.15-.2-.34a.5.5,0,0,1,.44-.34h62.24c.18,0,.27.15.2.34A.53.53,0,0,1,292.94,346.61Z"/></g><polygon class="cls-17" points="272.25 531.69 279.02 531.69 291.2 362.12 282.21 362.12 272.25 531.69"/><polygon class="cls-18" points="272.24 531.69 279.02 531.69 290.61 370.54 291.21 362.39 282.21 362.39 281.73 370.54 272.24 531.69"/><polygon class="cls-10" points="281.73 370.14 290.61 370.14 291.21 362.39 282.21 362.39 281.73 370.14"/><polygon class="cls-17" points="222.5 531.69 229.28 531.69 230.38 362.12 221.39 362.12 222.5 531.69"/><polygon class="cls-22" points="221.39 362.39 221.56 389.75 222.49 531.69 229.28 531.69 230.21 389.75 230.38 362.39 221.39 362.39"/><polygon class="cls-10" points="221.39 362.39 221.56 390.06 230.21 390.06 230.38 362.39 221.39 362.39"/><polygon class="cls-17" points="150.53 531.69 157.31 531.69 169.49 362.12 160.5 362.12 150.53 531.69"/><polygon class="cls-22" points="150.53 531.69 157.31 531.69 168.89 370.54 169.49 362.39 160.5 362.39 160.01 370.54 150.53 531.69"/><polygon class="cls-10" points="160.01 370.14 168.89 370.14 169.49 362.39 160.5 362.39 160.01 370.14"/><polygon class="cls-17" points="349.79 531.69 356.57 531.69 346.61 362.12 337.61 362.12 349.79 531.69"/><polygon class="cls-22" points="337.62 362.39 338.21 370.54 349.8 531.69 356.57 531.69 347.1 370.54 346.61 362.39 337.62 362.39"/><polygon class="cls-10" points="346.61 362.39 337.62 362.39 338.21 370.14 347.1 370.14 346.61 362.39"/><path class="cls-8" d="M155.53,357.87h196a2.16,2.16,0,0,1,2.16,2.16v6.33a0,0,0,0,1,0,0H153.37a0,0,0,0,1,0,0V360A2.16,2.16,0,0,1,155.53,357.87Z" transform="translate(507.1 724.24) rotate(180)"/><rect class="cls-10" x="153.37" y="357.87" width="200.37" height="4.25" transform="translate(507.1 720) rotate(180)"/><path class="cls-8" d="M149.17,359H357.94a2.39,2.39,0,0,0,2.39-2.39h0a2.39,2.39,0,0,0-2.39-2.39H149.17a2.39,2.39,0,0,0-2.4,2.39h0A2.39,2.39,0,0,0,149.17,359Z"/><path class="cls-17" d="M351.26,348.17a13.75,13.75,0,0,1-1.1,6H302.59v-1.13h1v-9.79h-1v-1.13h47.57A14.15,14.15,0,0,1,351.26,348.17Z"/><path class="cls-18" d="M351.26,348.17a13.75,13.75,0,0,1-1.1,6H302.59v-1.13h1v-9.79h-1v-1.13h47.57A14.15,14.15,0,0,1,351.26,348.17Z"/><path class="cls-10" d="M325.81,348.17a13.75,13.75,0,0,1-1.1,6H302.59v-1.13h1v-9.79h-1v-1.13h22.12A14.15,14.15,0,0,1,325.81,348.17Z"/><path class="cls-19" d="M323.47,348.17a11.09,11.09,0,0,1-.9,4.89h-19v-9.79h19A11.43,11.43,0,0,1,323.47,348.17Z"/><path class="cls-11" d="M343.52,348.17a13.65,13.65,0,0,1-1.11,6h-8.85a13.65,13.65,0,0,0,1.11-6,14,14,0,0,0-1.11-6h8.85A14,14,0,0,1,343.52,348.17Z"/><path class="cls-8" d="M355.5,336.12a13.75,13.75,0,0,1-1.1,6H306.83V341h1v-9.79h-1v-1.13H354.4A14.15,14.15,0,0,1,355.5,336.12Z"/><path class="cls-10" d="M330.05,336.12a13.75,13.75,0,0,1-1.1,6H306.83V341h1v-9.79h-1v-1.13H329A14.15,14.15,0,0,1,330.05,336.12Z"/><path class="cls-19" d="M327.71,336.12a11.09,11.09,0,0,1-.9,4.89h-19v-9.79h19A11.43,11.43,0,0,1,327.71,336.12Z"/><path class="cls-10" d="M347.76,336.12a13.65,13.65,0,0,1-1.11,6H337.8a13.65,13.65,0,0,0,1.11-6,14,14,0,0,0-1.11-6h8.85A14,14,0,0,1,347.76,336.12Z"/><g id="_Group_" data-name="&lt;Group&gt;"><polygon class="cls-23" points="195.92 502.7 191.74 522.08 181.81 521.9 185.96 502.7 195.92 502.7"/><polygon class="cls-10" points="195.92 502.7 193.85 512.28 184.02 511.62 185.96 502.7 195.92 502.7"/><path class="cls-8" d="M193.23,521.59l.21,0s.22.07.24.1,0,0,0,.07h.08a12.64,12.64,0,0,0,2.59.51,2.63,2.63,0,0,0,1.89-.37,1.26,1.26,0,0,0,.36-1.27.9.9,0,0,0-.5-.69,4,4,0,0,0-2.75.51,3.53,3.53,0,0,0,1-2.27.92.92,0,0,0-.84-.75,1.43,1.43,0,0,0-1.1.26c-1,.89-1.2,3.69-1.2,3.87h0Zm1.06-.58-.2.12c0-.94.21-2.51.84-3a.66.66,0,0,1,.5-.18l.12,0c.32.06.4.22.41.36A4.64,4.64,0,0,1,194.29,521Zm.15.49c1.19-.65,2.89-1.38,3.52-1.09a.41.41,0,0,1,.24.34.83.83,0,0,1-.21.81C197.49,522,196.19,522,194.44,521.5Z"/><path class="cls-17" d="M193,520.38l-11.12-.7a.7.7,0,0,0-.77.63h0L180,529.09a1.76,1.76,0,0,0,1.62,1.86c3.89.18,5.75.07,10.65.34,3,.17,8.92.81,13.06.41s3.64-4.48,1.85-4.68c-4.25-.48-9.87-3.6-12.52-6A2.8,2.8,0,0,0,193,520.38Z"/><polygon class="cls-23" points="253.98 502.7 249.8 522.08 239.87 521.9 244.02 502.7 253.98 502.7"/><polygon class="cls-10" points="253.98 502.7 251.91 512.28 242.08 511.62 244.02 502.7 253.98 502.7"/><path class="cls-8" d="M251.29,521.59l.21,0s.22.07.25.1,0,0,0,.07h.08a12.64,12.64,0,0,0,2.59.51,2.63,2.63,0,0,0,1.89-.37,1.26,1.26,0,0,0,.36-1.27.9.9,0,0,0-.5-.69,4,4,0,0,0-2.75.51,3.61,3.61,0,0,0,1-2.27.94.94,0,0,0-.85-.75,1.44,1.44,0,0,0-1.1.26c-1,.89-1.2,3.69-1.2,3.87h0Zm1.06-.58-.2.12c0-.94.21-2.51.84-3a.66.66,0,0,1,.5-.18l.12,0c.32.06.4.22.41.36A4.64,4.64,0,0,1,252.35,521Zm.15.49c1.19-.65,2.89-1.38,3.52-1.09a.41.41,0,0,1,.24.34.83.83,0,0,1-.21.81C255.55,522,254.25,522,252.5,521.5Z"/><path class="cls-17" d="M251.05,520.38l-11.12-.7a.7.7,0,0,0-.77.63h0l-1.1,8.77a1.76,1.76,0,0,0,1.62,1.86c3.89.18,5.75.07,10.65.34,3,.17,8.92.81,13.06.41s3.64-4.48,1.85-4.68c-4.25-.48-9.87-3.6-12.52-6A2.78,2.78,0,0,0,251.05,520.38Z"/><path class="cls-8" d="M213.72,465.84a311.79,311.79,0,0,1-14.47,42.72l-18.12-1.39s7.44-29,10.13-55.64c1.67-16.41,1.52-30-3.29-31-3-.67-10.1-.65-19.17-.44V386.25c25.45,5.22,50.77,15.08,52.7,23C224.19,420.37,219.49,443.92,213.72,465.84Z"/><path class="cls-24" d="M213.72,465.84a311.79,311.79,0,0,1-14.47,42.72l-18.12-1.39s7.44-29,10.13-55.64c1.67-16.41,1.52-30-3.29-31-3-.67-10.1-.65-19.17-.44V386.25c25.45,5.22,50.77,15.08,52.7,23C224.19,420.37,219.49,443.92,213.72,465.84Z"/><path class="cls-10" d="M213.72,465.84c-6.77-4.29-14.69-9.33-22.46-14.31,1.67-16.41,1.52-30-3.29-31-3-.67-10.1-.65-19.17-.44V386.25c25.45,5.22,50.77,15.08,52.7,23C224.19,420.37,219.49,443.92,213.72,465.84Z"/><path class="cls-8" d="M203.8,382.92l1.6-12.83-51.87-8.54s-17,33.61-8.66,50.08c7.62,15.12,88.68,6.11,101.16,8.84s-6.84,86.7-6.84,86.7l18.12,1.38s28-75.55,22.25-99.31C277,398.87,234.31,385.14,203.8,382.92Z"/><path class="cls-11" d="M203.8,382.92l1.6-12.83-51.87-8.54s-17,33.61-8.66,50.08c7.62,15.12,88.68,6.11,101.16,8.84s-6.84,86.7-6.84,86.7l18.12,1.38s28-75.55,22.25-99.31C277,398.87,234.31,385.14,203.8,382.92Z"/><path class="cls-17" d="M232.34,278.54c-.44.77-.39,1.64.12,1.92s1.26-.1,1.7-.87.4-1.63-.1-1.93S232.82,277.81,232.34,278.54Z"/><path class="cls-17" d="M231.52,274.4a.51.51,0,0,1-.25-.23.52.52,0,0,1,.26-.69,5.15,5.15,0,0,1,4.78.24.5.5,0,0,1,.16.69l0,0a.55.55,0,0,1-.72.15h0a4.12,4.12,0,0,0-3.77-.15A.56.56,0,0,1,231.52,274.4Z"/><path class="cls-25" d="M233.07,277.55a31.91,31.91,0,0,0-.09,8.73c-2.12.48-4.09-1.42-4.09-1.42Z"/><path class="cls-26" d="M228.41,288.42a14.26,14.26,0,0,1-.95,1.09,13.48,13.48,0,0,1-7.06,3.87,14.34,14.34,0,0,1-2.06.27A12.24,12.24,0,0,1,206,285.51c-2.42-6.52.05-11.67,3.52-20.7a13.25,13.25,0,0,1,22.1-4.5C238.64,267.73,233.9,281.36,228.41,288.42Z"/><path class="cls-10" d="M220.4,293.38a14.34,14.34,0,0,1-2.06.27,12.34,12.34,0,0,1-9.83-3.93,14.22,14.22,0,0,1,2.92-2.28S217.06,289,220.4,293.38Z"/><path class="cls-26" d="M191.11,293.72c.89,6.37,14.8,8.74,14.8,8.74s6.87,3.13,7.15.4c-2.84-3.28-3.15-6.15-2.17-8.66a12.34,12.34,0,0,1,2.79-4,24,24,0,0,1,2-1.87l-4.24-17.43C208.41,277.49,198,292.78,191.11,293.72Z"/><path class="cls-17" d="M230.81,255.38s3-.37,5.25,5.17c1.92,4.67-2.6,5.68-2.4,10.64s-4.34,7.72-4.34,7.72-3.81,3.29-7,1.51c0,0-4.25,2.08-5.36,5.71s-7.68-2.93-13.6-1.94c0,0-4-3.73-3.7-12.81A31.58,31.58,0,0,1,202.46,260s1.73-5.41,8.49-8.43S229.54,250.85,230.81,255.38Z"/><path class="cls-26" d="M221.45,277.74a6.28,6.28,0,0,0,1.16,5.24c1.45,1.57,3.77-.42,4.71-3.19.81-2.45,1.09-6.3-1-6.74S221.9,275.09,221.45,277.74Z"/><path class="cls-8" d="M211.46,296a26.42,26.42,0,0,0-13.6-6.33c-7.93-.95-10.52,6.33-10.52,6.33l23.33,4.72Z"/><path class="cls-26" d="M207.5,345.26l9.5,1.42a36.63,36.63,0,0,1,6.63-1.42,44.09,44.09,0,0,1,7.35,0s4.3,1.61,4.3,5.74c0,0-10,2.68-13.89,1.07L207.5,351Z"/><path class="cls-10" d="M207.5,345.26l9.5,1.42a36.63,36.63,0,0,1,6.63-1.42,44.09,44.09,0,0,1,7.35,0s4.3,1.61,4.3,5.74c0,0-10,2.68-13.89,1.07L207.5,351Z"/><path class="cls-8" d="M222.94,299q-2.91,8.11-5.22,15.62c-1,3.1-1.87,6.13-2.7,9q-1,3.69-1.93,7.15c-.28,1.11-.57,2.21-.84,3.3-1.5,6-2.71,11.46-3.66,16.27a216.82,216.82,0,0,0-3.52,22.92l-53.33-6.67c1.85-9.16,3.29-17.16,5.3-25.79,1.12-4.73,2.38-9.65,4-15,1.14-3.88,2.47-8,4-12.46,5.35-15.36,10.28-19.61,10.28-19.61C195.9,290.43,222.94,299,222.94,299Z"/><path class="cls-26" d="M240.68,346.25l9.49,1.42a36.63,36.63,0,0,1,6.63-1.42,44.05,44.05,0,0,1,7.35,0s4.3,1.61,4.3,5.74c0,0-10,2.68-13.89,1.07L240.68,352Z"/><polygon class="cls-8" points="179.21 508.02 200.78 509.45 203.96 500.13 180.19 499.01 179.21 508.02"/><polygon class="cls-27" points="179.21 508.02 200.78 509.45 203.96 500.13 180.19 499.01 179.21 508.02"/><polygon class="cls-8" points="237.27 508.02 258.84 509.45 262.02 500.13 238.25 499.01 237.27 508.02"/><polygon class="cls-27" points="237.27 508.02 258.84 509.45 262.02 500.13 238.25 499.01 237.27 508.02"/><polygon points="151.63 367.39 175.66 370.55 176.44 367 152.37 363.5 151.63 367.39"/><polygon points="178.44 367.02 178.15 370.55 200.36 373.6 200.36 370.12 178.44 367.02"/><polygon points="201.74 370.31 201.74 373.6 204.96 374.03 204.96 370.85 201.74 370.31"/><path class="cls-10" d="M217.72,314.6c-1,3.1-1.87,6.13-2.7,9q-1,3.69-1.93,7.15c-1.67-9.1,1.36-20,1.36-20Z"/><path class="cls-26" d="M221.34,302.1c4.33.87,6.58,31,7.55,35,.84,3.49,21.28,10.55,21.28,10.55v4.92s-22.61-1.59-27.89-3.75-8.52-32-8.52-32Z"/><g class="cls-28"><path class="cls-14" d="M222.94,299q-2.91,8.11-5.22,15.62c-1,3.1-1.87,6.13-2.7,9q-1,3.69-1.93,7.15c-.28,1.11-.57,2.21-.84,3.3-1.5,6-2.71,11.46-3.66,16.27a216.82,216.82,0,0,0-3.52,22.92l-53.33-6.67c1.85-9.16,3.29-17.16,5.3-25.79,1.12-4.73,2.38-9.65,4-15,1.14-3.88,2.47-8,4-12.46,5.35-15.36,10.28-19.61,10.28-19.61C195.9,290.43,222.94,299,222.94,299Z"/></g><path class="cls-8" d="M222.94,299c4,1.24,5.95,27.27,5.95,27.27l-14.43,2-3-10.68s1.19-5,2.91-10.34C216.86,299.56,222.94,299,222.94,299Z"/></g><path class="cls-17" d="M129.77,527.26a4.57,4.57,0,1,0-4.57,4.57A4.57,4.57,0,0,0,129.77,527.26Z"/><path class="cls-18" d="M129.77,527.26a4.57,4.57,0,1,0-4.57,4.57A4.57,4.57,0,0,0,129.77,527.26Z"/><path class="cls-17" d="M239.76,527.26a4.57,4.57,0,1,0-4.57,4.57A4.57,4.57,0,0,0,239.76,527.26Z"/><path class="cls-18" d="M239.76,527.26a4.57,4.57,0,1,0-4.57,4.57A4.57,4.57,0,0,0,239.76,527.26Z"/><path class="cls-27" d="M127.49,527.26a2.29,2.29,0,1,0-2.29,2.29A2.28,2.28,0,0,0,127.49,527.26Z"/><circle class="cls-27" cx="235.19" cy="527.26" r="2.28"/><path class="cls-17" d="M184,507.21V458.06h-7.56v49.15c-29.44.76-47.33,11.05-50.91,13.31a1.44,1.44,0,0,0-.66,1.21v4.09a1.43,1.43,0,0,0,1.44,1.44h0a1.46,1.46,0,0,0,1.26-.73l1.74-3.06a165.53,165.53,0,0,1,47.13-7.8v8.08a1.87,1.87,0,0,0,1.87,1.87h3.82a1.87,1.87,0,0,0,1.87-1.87v-8.08a165.41,165.41,0,0,1,47.12,7.8l1.75,3.06a1.46,1.46,0,0,0,1.26.73h0a1.44,1.44,0,0,0,1.44-1.44v-4.09a1.42,1.42,0,0,0-.67-1.21C231.3,518.26,213.42,508,184,507.21Z"/><path class="cls-10" d="M184,507.21V458.06h-7.56v49.15c-29.44.76-47.33,11.05-50.91,13.31a1.44,1.44,0,0,0-.66,1.21v4.09a1.43,1.43,0,0,0,1.44,1.44h0a1.46,1.46,0,0,0,1.26-.73l1.74-3.06a165.53,165.53,0,0,1,47.13-7.8v8.08a1.87,1.87,0,0,0,1.87,1.87h3.82a1.87,1.87,0,0,0,1.87-1.87v-8.08a165.41,165.41,0,0,1,47.12,7.8l1.75,3.06a1.46,1.46,0,0,0,1.26.73h0a1.44,1.44,0,0,0,1.44-1.44v-4.09a1.42,1.42,0,0,0-.67-1.21C231.3,518.26,213.42,508,184,507.21Z"/><rect class="cls-17" x="177.72" y="522.69" width="4.96" height="9.14" rx="0.77"/><rect class="cls-18" x="177.72" y="522.69" width="4.96" height="9.14" rx="0.77"/><path class="cls-8" d="M128.28,409.68H232.12a7.91,7.91,0,0,1,7.91,7.91v8.59a0,0,0,0,1,0,0H120.37a0,0,0,0,1,0,0v-8.59A7.91,7.91,0,0,1,128.28,409.68Z"/><path class="cls-17" d="M163,368.83h65.88a5.27,5.27,0,0,1,5.14,6.45l-11.78,50.9h-2.72l10-44.61a5.26,5.26,0,0,0-5.14-6.42H164.38Z"/><path class="cls-17" d="M188,428v43a2.5,2.5,0,0,1-2.5,2.5H174.93a2.49,2.49,0,0,1-2.5-2.5V428Z"/><rect class="cls-10" x="172.43" y="427.96" width="15.54" height="17.87"/><path class="cls-17" d="M243.3,423.53v5.14a2.62,2.62,0,0,1-2.63,2.62H119.72a2.62,2.62,0,0,1-2.62-2.62v-5.14a2.62,2.62,0,0,1,2.62-2.62h121A2.63,2.63,0,0,1,243.3,423.53Z"/><path class="cls-17" d="M187.66,426.18H117.1S94.68,388.9,94.68,327.29V304.67a16.84,16.84,0,0,1,16.85-16.84h29.92a16.84,16.84,0,0,1,16.84,16.36C159.16,335.93,163.83,404.67,187.66,426.18Z"/><path class="cls-27" d="M172.14,426.18H120.29a5.37,5.37,0,0,1-4.77-2.88c-5.1-9.85-20.84-44.39-20.84-96V304.67a16.84,16.84,0,0,1,16.84-16.84h25.85a16.84,16.84,0,0,1,16.84,16.36c.78,28.36,4.59,86.25,22.39,113.61A5.39,5.39,0,0,1,172.14,426.18Z"/><path class="cls-10" d="M243.3,423.53v5.14a2.62,2.62,0,0,1-2.62,2.62h-54.2a3.55,3.55,0,0,1-3.55-3.54v-3.29a3.55,3.55,0,0,1,3.55-3.55h54.19A2.63,2.63,0,0,1,243.3,423.53Z"/></svg>