<svg xmlns="http://www.w3.org/2000/svg" xmlns:xlink="http://www.w3.org/1999/xlink" viewBox="0 0 654 654"><defs><style>.cls-1{isolation:isolate;}.cls-2{fill:url(#linear-gradient);}.cls-3{fill:#ececec;}.cls-10,.cls-4{fill:#e1e0e0;}.cls-5{fill:#f5f5f5;}.cls-6{fill:#e7e7e7;}.cls-7{fill:#f0f0f0;}.cls-12,.cls-13,.cls-8{fill:#fff;}.cls-9{fill:#fbfbfb;}.cls-10{opacity:0.6;}.cls-11{fill:#346fb6;}.cls-12{opacity:0.8;}.cls-13,.cls-14{opacity:0.3;}.cls-15{fill:#192e35;}.cls-16{fill:#6ac4d3;}.cls-17{opacity:0.7;mix-blend-mode:color-burn;}.cls-18{fill:#586274;}.cls-19{fill:#c3e3e4;}.cls-20{fill:#414d62;}.cls-21{fill:#ecf1de;}.cls-22{fill:#f2926a;}.cls-23{fill:#ee7843;}.cls-24{fill:#e2e4d7;}</style><linearGradient id="linear-gradient" x1="327.09" y1="654" x2="327.09" y2="1.68" gradientUnits="userSpaceOnUse"><stop offset="0.43" stop-color="#a9bed0"/><stop offset="0.84" stop-color="#eff6f6"/></linearGradient></defs><g class="cls-1"><g id="Layer_1" data-name="Layer 1"><rect class="cls-2" x="0.18" y="1.68" width="653.82" height="652.32"/><rect class="cls-3" x="2.64" y="527.69" width="650" height="0.33"/><rect class="cls-3" x="559.33" y="548.62" width="28.18" height="0.33"/><rect class="cls-3" x="406.36" y="541.87" width="44.34" height="0.32"/><rect class="cls-3" x="518.2" y="536.55" width="57.88" height="0.33"/><rect class="cls-3" x="213.08" y="543.1" width="14.48" height="0.33"/><rect class="cls-3" x="151.6" y="543.1" width="49.91" height="0.33"/><rect class="cls-3" x="88.84" y="537.61" width="36" height="0.33"/><path class="cls-3" d="M310.76,469.72h-251a7.43,7.43,0,0,1-7.42-7.42V109.44A7.42,7.42,0,0,1,59.73,102h251a7.42,7.42,0,0,1,7.42,7.42V462.3A7.43,7.43,0,0,1,310.76,469.72Zm-251-367.38a7.11,7.11,0,0,0-7.1,7.1V462.3a7.11,7.11,0,0,0,7.1,7.09h251a7.1,7.1,0,0,0,7.09-7.09V109.44a7.1,7.1,0,0,0-7.09-7.1Z"/><path class="cls-3" d="M591.94,469.72h-251a7.43,7.43,0,0,1-7.42-7.42V109.44a7.42,7.42,0,0,1,7.42-7.42h251a7.42,7.42,0,0,1,7.42,7.42V462.3A7.42,7.42,0,0,1,591.94,469.72Zm-251-367.38a7.1,7.1,0,0,0-7.1,7.1V462.3a7.1,7.1,0,0,0,7.1,7.09h251a7.1,7.1,0,0,0,7.1-7.09V109.44a7.1,7.1,0,0,0-7.1-7.1Z"/><path class="cls-4" d="M152.11,257.59a27.19,27.19,0,1,0,0-54.37h-3.33v54.37Z"/><circle class="cls-5" cx="148.78" cy="230.41" r="27.18"/><path class="cls-4" d="M147.53,233.82a36.43,36.43,0,0,1-36.39-36.38V175.7a3.42,3.42,0,0,1,6.84,0v21.74A29.59,29.59,0,0,0,147.53,227a3.42,3.42,0,1,1,0,6.83Z"/><path class="cls-5" d="M84.32,194.84H144.8a6.32,6.32,0,0,0,6.1-7.94l-5.24-19.8a6.32,6.32,0,0,0-6.11-4.7h-50a6.32,6.32,0,0,0-6.11,4.7l-5.24,19.8A6.32,6.32,0,0,0,84.32,194.84Z"/><path class="cls-4" d="M536,257.59a27.19,27.19,0,0,0,0-54.37h-3.33v54.37Z"/><circle class="cls-5" cx="532.67" cy="230.41" r="27.18"/><path class="cls-4" d="M531.42,233.82A36.43,36.43,0,0,1,495,197.44V175.7a3.42,3.42,0,0,1,6.84,0v21.74A29.58,29.58,0,0,0,531.42,227a3.42,3.42,0,1,1,0,6.83Z"/><path class="cls-5" d="M468.21,194.84h60.48a6.32,6.32,0,0,0,6.1-7.94l-5.24-19.8a6.32,6.32,0,0,0-6.11-4.7h-50a6.32,6.32,0,0,0-6.11,4.7l-5.24,19.8A6.32,6.32,0,0,0,468.21,194.84Z"/><rect class="cls-6" x="176.82" y="364.58" width="19.77" height="76.61" transform="translate(373.4 805.76) rotate(180)"/><polygon class="cls-7" points="123.22 441.19 188.83 441.19 198.74 351.52 133.13 351.52 123.22 441.19"/><polygon class="cls-5" points="116.11 441.19 183.88 441.19 193.79 351.52 126.02 351.52 116.11 441.19"/><polygon class="cls-8" points="178.98 434.12 187.33 358.59 130.91 358.59 122.57 434.12 178.98 434.12"/><path class="cls-5" d="M167.33,415.81l.34-3.08c2.1-19-9.73-35.83-25.1-35.83h0l-.34,3.07c-2.1,18.95,9.73,35.84,25.1,35.84Z"/><rect class="cls-6" x="79.45" y="441.19" width="58.29" height="86.51" transform="translate(217.19 968.88) rotate(180)"/><polygon class="cls-7" points="85.31 527.7 79.45 527.7 79.45 511.02 91.46 511.02 85.31 527.7"/><rect class="cls-6" x="242.82" y="441.19" width="58.29" height="86.51" transform="translate(543.93 968.88) rotate(180)"/><rect class="cls-7" x="79.45" y="441.19" width="168.49" height="76.27" transform="translate(327.39 958.65) rotate(180)"/><polygon class="cls-7" points="242.07 527.7 247.94 527.7 247.94 511.02 235.93 511.02 242.07 527.7"/><rect class="cls-6" x="84" y="445.96" width="159.39" height="30.78" transform="translate(327.39 922.69) rotate(180)"/><path class="cls-7" d="M153.06,466h21.26a33.66,33.66,0,0,0,24.42-10.5H128.65A33.64,33.64,0,0,0,153.06,466Z"/><rect class="cls-6" x="84" y="481.71" width="159.39" height="30.78" transform="translate(327.39 994.2) rotate(180)"/><path class="cls-7" d="M153.06,501.77h21.26a33.62,33.62,0,0,0,24.42-10.5H128.65A33.6,33.6,0,0,0,153.06,501.77Z"/><path class="cls-6" d="M237.26,437.66h1.51c0-3.1,0-11,.16-29,.27-32.68.79-34.68.79-34.68l-3.59,15.09C233.86,405.77,236.79,422.56,237.26,437.66Z"/><path class="cls-6" d="M234.29,386.81c-5.16-6.15-16.19-7.94-27.48-9.47-4.43-.6,11.65,9.53,19.51,16.72,6.1,5.59,10,7.13,11.68,12.7C238.88,399.82,238.73,392.11,234.29,386.81Z"/><path class="cls-6" d="M241.13,397.81c5.16-6.15,16.19-7.94,27.48-9.47,4.43-.61-11.65,9.52-19.51,16.72-6.1,5.58-10,7.13-11.68,12.7C236.54,410.81,236.69,403.11,241.13,397.81Z"/><path class="cls-6" d="M238.92,372.53c3.87-7.35,13.61-14.28,24.53-16.9,4.29-1-9.93,13.57-15.34,23-4.2,7.32-9.77,15.91-10.64,22.09C236.17,388.48,235.05,379.88,238.92,372.53Z"/><path class="cls-7" d="M238.47,441.19h0c-4.61,0-8.42-2.31-8.69-5.27l-.77-5.05h18.91l-.77,5.05C246.89,438.88,243.08,441.19,238.47,441.19Z"/><polygon class="cls-7" points="249.14 432.81 227.79 432.81 227.18 427.19 249.75 427.19 249.14 432.81"/><rect class="cls-6" x="223.04" y="135.35" width="208.27" height="189.97" transform="translate(654.35 460.66) rotate(180)"/><rect class="cls-5" x="218.35" y="135.35" width="210.92" height="189.97" transform="translate(647.63 460.66) rotate(180)"/><rect class="cls-9" x="237.34" y="133.29" width="172.95" height="194.09" transform="translate(554.15 -93.48) rotate(90)"/><polygon class="cls-8" points="397.04 316.81 320.65 143.86 294.71 143.86 371.1 316.81 397.04 316.81"/><polygon class="cls-8" points="363.74 316.81 287.35 143.86 269.49 143.86 345.88 316.81 363.74 316.81"/><rect class="cls-6" x="207.34" y="225.31" width="172.95" height="10.04" transform="translate(524.15 -63.49) rotate(90)"/><rect class="cls-6" x="274.06" y="225.31" width="172.95" height="10.04" transform="translate(590.87 -130.2) rotate(90)"/><rect class="cls-5" x="198.34" y="223.52" width="184.68" height="12.69" transform="translate(520.55 -60.82) rotate(90)"/><rect class="cls-5" x="265.06" y="223.52" width="184.68" height="12.69" transform="translate(587.27 -127.53) rotate(90)"/><rect class="cls-6" x="140.74" y="229.88" width="172.95" height="0.89" transform="translate(457.55 3.12) rotate(90)"/><path class="cls-6" d="M214.82,124.4H440.46a1.09,1.09,0,0,1,1.08,1.09h0a1.09,1.09,0,0,1-1.08,1.08H214.82a1.09,1.09,0,0,1-1.08-1.08h0A1.09,1.09,0,0,1,214.82,124.4Z"/><path class="cls-6" d="M431.31,131.56h0a1.46,1.46,0,0,0,1.46-1.46V127a1.46,1.46,0,0,0-1.46-1.46h0a1.46,1.46,0,0,0-1.46,1.46v3.15A1.46,1.46,0,0,0,431.31,131.56Z"/><path class="cls-6" d="M231.19,131.56h0a1.47,1.47,0,0,0,1.46-1.46V127a1.47,1.47,0,0,0-1.46-1.46h0a1.47,1.47,0,0,0-1.47,1.46v3.15A1.47,1.47,0,0,0,231.19,131.56Z"/><rect class="cls-10" x="215.17" y="125.49" width="210.76" height="148.77" transform="translate(641.1 399.74) rotate(180)"/><rect class="cls-9" x="401.68" y="368.54" width="50.33" height="30.81" rx="2.02"/><rect class="cls-6" x="401.68" y="362.85" width="50.33" height="6.6" rx="0.43"/><path class="cls-7" d="M402.42,433.52s.66,21.66,25.9,21.66,25.91-21.66,25.91-21.66Z"/><path class="cls-7" d="M460,433.52s.65,21.66,25.9,21.66,25.91-21.66,25.91-21.66Z"/><rect class="cls-7" x="439.75" y="354.58" width="69.16" height="44.77" rx="2.93"/><rect class="cls-5" x="439.75" y="346.76" width="69.16" height="9.07" rx="0.59"/><rect class="cls-6" x="383.41" y="420.26" width="6.55" height="107.44" transform="translate(773.36 947.95) rotate(180)"/><rect class="cls-6" x="537.11" y="399.35" width="35.48" height="20.91"/><rect class="cls-5" x="360.72" y="399.35" width="176.39" height="20.91" transform="translate(897.83 819.61) rotate(180)"/><rect class="cls-6" x="537.11" y="455.18" width="35.48" height="20.91"/><rect class="cls-5" x="360.72" y="455.18" width="176.39" height="20.91" transform="translate(897.83 931.27) rotate(180)"/><rect class="cls-6" x="559.79" y="420.26" width="6.55" height="107.44" transform="translate(1126.13 947.95) rotate(180)"/><rect class="cls-5" x="530.56" y="420.26" width="6.55" height="107.44" transform="translate(1067.66 947.95) rotate(180)"/><rect class="cls-5" x="360.72" y="420.26" width="6.55" height="107.44" transform="translate(727.99 947.95) rotate(180)"/><path class="cls-11" d="M341.18,505.72H175.33a10.56,10.56,0,0,1-10.43-9.92l-14.84-288a9.32,9.32,0,0,1,9.41-9.92H325.31a10.56,10.56,0,0,1,10.43,9.92l14.85,288A9.33,9.33,0,0,1,341.18,505.72Z"/><path class="cls-12" d="M341.18,505.72H175.33a10.56,10.56,0,0,1-10.43-9.92l-14.84-288a9.32,9.32,0,0,1,9.41-9.92H325.31a10.56,10.56,0,0,1,10.43,9.92l14.85,288A9.33,9.33,0,0,1,341.18,505.72Z"/><rect class="cls-11" x="290.6" y="188.47" width="18.34" height="1.3"/><rect class="cls-11" x="277.53" y="188.47" width="6.72" height="1.3"/><path class="cls-11" d="M348.31,487.45H189.69a10.09,10.09,0,0,1-10-9.48l-14.2-275.46a8.92,8.92,0,0,1,9-9.49H333.13a10.1,10.1,0,0,1,10,9.49L357.31,478A8.92,8.92,0,0,1,348.31,487.45Z"/><path class="cls-8" d="M348.31,481.12H189.69a3.81,3.81,0,0,1-3.65-3.48L171.85,202.18a2.65,2.65,0,0,1,.7-2,2.61,2.61,0,0,1,2-.8H333.13a3.79,3.79,0,0,1,3.65,3.47L351,478.29a2.7,2.7,0,0,1-.7,2A2.65,2.65,0,0,1,348.31,481.12ZM174.52,199.68a2.3,2.3,0,0,0-1.73.7,2.32,2.32,0,0,0-.62,1.78l14.2,275.46a3.46,3.46,0,0,0,3.32,3.17H348.31a2.3,2.3,0,0,0,1.73-.7,2.32,2.32,0,0,0,.62-1.78l-14.2-275.46a3.46,3.46,0,0,0-3.33-3.17Z"/><ellipse class="cls-13" cx="257.56" cy="265.37" rx="46.8" ry="49.27" transform="translate(-112.25 264.61) rotate(-45.74)"/><path class="cls-8" d="M296.4,265.38a37.27,37.27,0,0,1-3.74,18.5,36.45,36.45,0,0,1-33.1,20.34,41.23,41.23,0,0,1-35.2-20.34,40,40,0,0,1-5.65-18.5,36.53,36.53,0,0,1,36.84-38.85C277,226.53,295.3,243.92,296.4,265.38Z"/><path class="cls-11" d="M292.66,283.88a36.45,36.45,0,0,1-33.1,20.34,41.23,41.23,0,0,1-35.2-20.34A58.74,58.74,0,0,1,258,273.53,63.87,63.87,0,0,1,292.66,283.88Z"/><ellipse class="cls-11" cx="256.87" cy="252.08" rx="16.86" ry="17.76" transform="translate(-102.94 260.11) rotate(-45.74)"/><path class="cls-8" d="M325.58,380.3H201.38a4.27,4.27,0,0,1-4.22-4L196.22,358a3.78,3.78,0,0,1,3.81-4H324.22a4.27,4.27,0,0,1,4.22,4l.95,18.25A3.78,3.78,0,0,1,325.58,380.3Z"/><path class="cls-14" d="M287.54,344H235.67a4.28,4.28,0,0,1-4.22-4l-.2-3.88a3.77,3.77,0,0,1,3.81-4h51.87a4.26,4.26,0,0,1,4.22,4l.2,3.88A3.77,3.77,0,0,1,287.54,344Z"/><path class="cls-14" d="M306.83,467.78H229.14a7.3,7.3,0,0,1-7.19-6.84l-.46-9a6.43,6.43,0,0,1,6.49-6.84h77.69a7.29,7.29,0,0,1,7.19,6.84l.46,9A6.44,6.44,0,0,1,306.83,467.78Z"/><path class="cls-8" d="M327.84,424.29H203.65a4.27,4.27,0,0,1-4.22-4L198.49,402a3.77,3.77,0,0,1,3.81-4H326.49a4.27,4.27,0,0,1,4.22,4l.94,18.24A3.77,3.77,0,0,1,327.84,424.29Z"/><path class="cls-15" d="M217.18,367.16a4.19,4.19,0,0,1-4.22,4.45,4.72,4.72,0,0,1-4.67-4.45,4.17,4.17,0,0,1,4.21-4.44A4.74,4.74,0,0,1,217.18,367.16Z"/><path class="cls-15" d="M230.84,367.16a4.19,4.19,0,0,1-4.22,4.45,4.74,4.74,0,0,1-4.68-4.45,4.19,4.19,0,0,1,4.22-4.44A4.74,4.74,0,0,1,230.84,367.16Z"/><path class="cls-15" d="M244.49,367.16a4.18,4.18,0,0,1-4.21,4.45,4.74,4.74,0,0,1-4.68-4.45,4.19,4.19,0,0,1,4.22-4.44A4.72,4.72,0,0,1,244.49,367.16Z"/><path class="cls-15" d="M258.15,367.16a4.18,4.18,0,0,1-4.21,4.45,4.74,4.74,0,0,1-4.68-4.45,4.18,4.18,0,0,1,4.22-4.44A4.73,4.73,0,0,1,258.15,367.16Z"/><path class="cls-15" d="M219.44,411.15a4.18,4.18,0,0,1-4.21,4.45,4.74,4.74,0,0,1-4.68-4.45,4.19,4.19,0,0,1,4.22-4.45A4.74,4.74,0,0,1,219.44,411.15Z"/><path class="cls-15" d="M233.1,411.15a4.18,4.18,0,0,1-4.21,4.45,4.74,4.74,0,0,1-4.68-4.45,4.19,4.19,0,0,1,4.22-4.45A4.74,4.74,0,0,1,233.1,411.15Z"/><path class="cls-15" d="M246.76,411.15a4.18,4.18,0,0,1-4.21,4.45,4.74,4.74,0,0,1-4.68-4.45,4.18,4.18,0,0,1,4.22-4.45A4.74,4.74,0,0,1,246.76,411.15Z"/><path class="cls-15" d="M260.42,411.15a4.18,4.18,0,0,1-4.22,4.45,4.74,4.74,0,0,1-4.67-4.45,4.18,4.18,0,0,1,4.22-4.45A4.74,4.74,0,0,1,260.42,411.15Z"/><path class="cls-15" d="M274.08,411.15a4.18,4.18,0,0,1-4.22,4.45,4.74,4.74,0,0,1-4.67-4.45,4.18,4.18,0,0,1,4.22-4.45A4.74,4.74,0,0,1,274.08,411.15Z"/><path class="cls-15" d="M287.74,411.15a4.18,4.18,0,0,1-4.22,4.45,4.74,4.74,0,0,1-4.67-4.45,4.18,4.18,0,0,1,4.22-4.45A4.74,4.74,0,0,1,287.74,411.15Z"/><path class="cls-11" d="M573,355.58a113,113,0,1,1-199.67-72.5c1-1.21,2-2.39,3.11-3.56a113,113,0,0,1,140.35-21.66,110.64,110.64,0,0,1,9.3,6.06c1.42,1,2.8,2.07,4.15,3.15A112.77,112.77,0,0,1,573,355.58Z"/><path class="cls-11" d="M573,355.58a113,113,0,1,1-199.67-72.5c1-1.21,2-2.39,3.11-3.56a113,113,0,0,1,140.35-21.66,110.64,110.64,0,0,1,9.3,6.06c1.42,1,2.8,2.07,4.15,3.15A112.77,112.77,0,0,1,573,355.58Z"/><path class="cls-11" d="M497.62,359.15H413.75l-1.32-5-1.85-7a16.43,16.43,0,0,0-15.82-12H376.47a4.55,4.55,0,1,0,0,9.09h18.29a7.3,7.3,0,0,1,4.43,1.49,7.16,7.16,0,0,1,2.6,3.8l1.23,4.62,1.32,5,2.4,9.11,11.15,42.18a16.39,16.39,0,0,0,15.78,12h53.06a16.39,16.39,0,0,0,14.95-9.73L512,380.93a15.64,15.64,0,0,0-14.39-21.78Z"/><path class="cls-11" d="M442.6,424.07a14.79,14.79,0,1,0,14.79,14.79A14.8,14.8,0,0,0,442.6,424.07Z"/><path class="cls-11" d="M478.1,424.07a14.79,14.79,0,1,0,14.8,14.79A14.79,14.79,0,0,0,478.1,424.07Z"/><path class="cls-11" d="M552.8,338.62l-5.45,3.56-15.9-24.34-8.51,11.78L517.57,306l-1.38-6H382.93a6.5,6.5,0,0,1-6.5-6.5v-14a112.83,112.83,0,0,1,26.78-21.66h116.4a6.49,6.49,0,0,1,6.47,6.06,2.12,2.12,0,0,1,0,.44v28.37l5.54,4.09,19.46,14.41L536.9,314.3Z"/><path class="cls-11" d="M442.05,318.9A16.09,16.09,0,1,0,458.15,335,16.07,16.07,0,0,0,442.05,318.9Zm2.67,18.76v8.78H439.4v-8.78h-8.8v-5.32h8.8v-8.8h5.32v8.8h8.8v5.32Z"/><path class="cls-11" d="M470.46,308.19a8.93,8.93,0,1,0,8.94,8.93A8.93,8.93,0,0,0,470.46,308.19Zm1.48,10.41v4.87H469V318.6H464.1v-3H469v-4.87h2.95v4.87h4.89v3Z"/><path class="cls-11" d="M514.61,378.33l-10.33,31.76a16.39,16.39,0,0,1-14.95,9.73H436.27a16.39,16.39,0,0,1-15.78-12l-11.15-42.18-2.4-9.11-1.32-5H415l1.32,5h83.87a15.64,15.64,0,0,1,14.39,21.78Z"/><path class="cls-11" d="M513.35,363.69a15.6,15.6,0,0,0-13.13-7.14H416.35l-1.32-5-1.85-7a16.43,16.43,0,0,0-15.82-12H379.07a4.55,4.55,0,1,0,0,9.09h18.29a7.3,7.3,0,0,1,4.43,1.49,7.16,7.16,0,0,1,2.6,3.8l1.23,4.62,1.32,5,2.4,9.11,11.15,42.18a16.39,16.39,0,0,0,15.78,12h53.06a16.39,16.39,0,0,0,14.95-9.73l10.33-31.76A15.58,15.58,0,0,0,513.35,363.69Zm-7.15,11.17-10.32,31.73a7.14,7.14,0,0,1-2.59,2.94,7.26,7.26,0,0,1-4,1.18H436.27a7.27,7.27,0,0,1-7-5.26l-10.51-39.79h81.46a6.54,6.54,0,0,1,6,9.2Z"/><path class="cls-11" d="M430.4,436.26a14.8,14.8,0,1,1,14.8,14.79A14.8,14.8,0,0,1,430.4,436.26Z"/><path class="cls-11" d="M439.52,436.26a5.68,5.68,0,1,1,5.68,5.67A5.68,5.68,0,0,1,439.52,436.26Z"/><path class="cls-11" d="M465.91,436.26a14.8,14.8,0,1,1,14.79,14.79A14.79,14.79,0,0,1,465.91,436.26Z"/><path class="cls-11" d="M475,436.26a5.68,5.68,0,1,1,5.67,5.67A5.67,5.67,0,0,1,475,436.26Z"/><path class="cls-11" d="M494.35,377.66H432.07a2.76,2.76,0,1,1,0-5.51h62.28a2.76,2.76,0,1,1,0,5.51Z"/><path class="cls-11" d="M491.87,390.13H434.55a2.76,2.76,0,0,1,0-5.51h57.32a2.76,2.76,0,1,1,0,5.51Z"/><path class="cls-11" d="M488.84,402.6H437.58a2.76,2.76,0,0,1,0-5.51h51.26a2.76,2.76,0,1,1,0,5.51Z"/><path class="cls-11" d="M528.71,261.76a6.5,6.5,0,0,0-6.5-6.5H385.53a6.5,6.5,0,0,0-6.5,6.5v14.56H528.71Z"/><path class="cls-11" d="M379,276.32v14.56a6.5,6.5,0,0,0,6.5,6.5H522.21a6.5,6.5,0,0,0,6.5-6.5V276.32Z"/><path class="cls-11" d="M407.76,286.35h-3.31l-.57-3.78h-4l-.57,3.78h-3l3.34-20.87h4.8Zm-7.48-6.62h3.16l-1.58-10.55Z"/><path class="cls-11" d="M409.28,265.48h5.19c3.28,0,4.89,1.82,4.89,5.16V281.2c0,3.33-1.61,5.15-4.89,5.15h-5.19Zm3.28,3v14.91h1.85c1,0,1.67-.53,1.67-2V270.49c0-1.49-.63-2-1.67-2Z"/><path class="cls-11" d="M421.45,265.48h5.19c3.28,0,4.89,1.82,4.89,5.16V281.2c0,3.33-1.61,5.15-4.89,5.15h-5.19Zm3.28,3v14.91h1.85c1,0,1.67-.53,1.67-2V270.49c0-1.49-.63-2-1.67-2Z"/><path class="cls-11" d="M437.28,265.48h10.14v3H444v17.89h-3.28V268.46h-3.43Z"/><path class="cls-11" d="M448.59,270.49c0-3.34,1.75-5.25,5-5.25s5,1.91,5,5.25v10.85c0,3.34-1.76,5.25-5,5.25s-5-1.91-5-5.25Zm3.27,11.06c0,1.49.66,2.06,1.7,2.06s1.7-.57,1.7-2.06V270.28c0-1.49-.65-2-1.7-2s-1.7.56-1.7,2Z"/><path class="cls-11" d="M474.79,278.57v2.77c0,3.34-1.66,5.25-4.88,5.25s-4.89-1.91-4.89-5.25V270.49c0-3.34,1.66-5.25,4.89-5.25s4.88,1.91,4.88,5.25v2h-3.1v-2.24c0-1.49-.65-2-1.7-2s-1.69.56-1.69,2v11.27c0,1.49.65,2,1.69,2s1.7-.54,1.7-2v-3Z"/><path class="cls-11" d="M487.41,286.35H484.1l-.57-3.78h-4l-.57,3.78h-3l3.34-20.87h4.8Zm-7.49-6.62h3.17l-1.58-10.55Z"/><path class="cls-11" d="M495.79,286.35a6.33,6.33,0,0,1-.3-2.56v-3.28c0-1.94-.66-2.65-2.15-2.65h-1.13v8.49h-3.28V265.48h4.95c3.4,0,4.86,1.58,4.86,4.8v1.64c0,2.15-.68,3.55-2.15,4.24,1.64.68,2.18,2.26,2.18,4.44v3.22a6.09,6.09,0,0,0,.36,2.53Zm-3.58-17.89v6.41h1.28c1.22,0,2-.53,2-2.2v-2.06c0-1.49-.51-2.15-1.67-2.15Z"/><path class="cls-11" d="M500,265.48H510.1v3h-3.43v17.89h-3.28V268.46H500Z"/><polygon class="cls-11" points="555.4 336.02 539.5 311.69 553.7 308.63 534.24 294.22 514.78 279.81 520.16 303.42 525.54 327.03 534.05 315.25 549.95 339.58 555.4 336.02"/><path class="cls-11" d="M444.66,316.3a16.09,16.09,0,1,0,16.08,16.09A16.08,16.08,0,0,0,444.66,316.3Zm2.66,18.75v8.8H442v-8.8h-8.8v-5.32H442v-8.79h5.32v8.79h8.8v5.32Z"/><path class="cls-11" d="M473.06,305.58a8.94,8.94,0,1,0,8.94,8.93A8.93,8.93,0,0,0,473.06,305.58ZM474.54,316v4.89h-3V316H466.7V313h4.88v-4.89h3V313h4.89V316Z"/><path class="cls-11" d="M407.76,286.35h-3.31l-.57-3.78h-4l-.57,3.78h-3l3.34-20.87h4.8Zm-7.48-6.62h3.16l-1.58-10.55Z"/><path class="cls-11" d="M409.28,265.48h5.19c3.28,0,4.89,1.82,4.89,5.16V281.2c0,3.33-1.61,5.15-4.89,5.15h-5.19Zm3.28,3v14.91h1.85c1,0,1.67-.53,1.67-2V270.49c0-1.49-.63-2-1.67-2Z"/><path class="cls-11" d="M421.45,265.48h5.19c3.28,0,4.89,1.82,4.89,5.16V281.2c0,3.33-1.61,5.15-4.89,5.15h-5.19Zm3.28,3v14.91h1.85c1,0,1.67-.53,1.67-2V270.49c0-1.49-.63-2-1.67-2Z"/><path class="cls-11" d="M437.28,265.48h10.14v3H444v17.89h-3.28V268.46h-3.43Z"/><path class="cls-11" d="M448.59,270.49c0-3.34,1.75-5.25,5-5.25s5,1.91,5,5.25v10.85c0,3.34-1.76,5.25-5,5.25s-5-1.91-5-5.25Zm3.27,11.06c0,1.49.66,2.06,1.7,2.06s1.7-.57,1.7-2.06V270.28c0-1.49-.65-2-1.7-2s-1.7.56-1.7,2Z"/><path class="cls-11" d="M474.79,278.57v2.77c0,3.34-1.66,5.25-4.88,5.25s-4.89-1.91-4.89-5.25V270.49c0-3.34,1.66-5.25,4.89-5.25s4.88,1.91,4.88,5.25v2h-3.1v-2.24c0-1.49-.65-2-1.7-2s-1.69.56-1.69,2v11.27c0,1.49.65,2,1.69,2s1.7-.54,1.7-2v-3Z"/><path class="cls-11" d="M487.41,286.35H484.1l-.57-3.78h-4l-.57,3.78h-3l3.34-20.87h4.8Zm-7.49-6.62h3.17l-1.58-10.55Z"/><path class="cls-11" d="M495.79,286.35a6.33,6.33,0,0,1-.3-2.56v-3.28c0-1.94-.66-2.65-2.15-2.65h-1.13v8.49h-3.28V265.48h4.95c3.4,0,4.86,1.58,4.86,4.8v1.64c0,2.15-.68,3.55-2.15,4.24,1.64.68,2.18,2.26,2.18,4.44v3.22a6.09,6.09,0,0,0,.36,2.53Zm-3.58-17.89v6.41h1.28c1.22,0,2-.53,2-2.2v-2.06c0-1.49-.51-2.15-1.67-2.15Z"/><path class="cls-11" d="M500,265.48H510.1v3h-3.43v17.89h-3.28V268.46H500Z"/><path class="cls-16" d="M573,355.58a113,113,0,1,1-199.67-72.5c1-1.21,2-2.39,3.11-3.56a113,113,0,0,1,140.35-21.66,110.64,110.64,0,0,1,9.3,6.06c1.42,1,2.8,2.07,4.15,3.15A112.77,112.77,0,0,1,573,355.58Z"/><g class="cls-17"><path class="cls-18" d="M497.62,359.15H413.75l-1.32-5-1.85-7a16.43,16.43,0,0,0-15.82-12H376.47a4.55,4.55,0,1,0,0,9.09h18.29a7.3,7.3,0,0,1,4.43,1.49,7.16,7.16,0,0,1,2.6,3.8l1.23,4.62,1.32,5,2.4,9.11,11.15,42.18a16.39,16.39,0,0,0,15.78,12h53.06a16.39,16.39,0,0,0,14.95-9.73L512,380.93a15.64,15.64,0,0,0-14.39-21.78Z"/><path class="cls-18" d="M442.6,424.07a14.79,14.79,0,1,0,14.79,14.79A14.8,14.8,0,0,0,442.6,424.07Z"/><path class="cls-18" d="M478.1,424.07a14.79,14.79,0,1,0,14.8,14.79A14.79,14.79,0,0,0,478.1,424.07Z"/><path class="cls-18" d="M552.8,338.62l-5.45,3.56-15.9-24.34-8.51,11.78L517.57,306l-1.38-6H382.93a6.5,6.5,0,0,1-6.5-6.5v-14a112.83,112.83,0,0,1,26.78-21.66h116.4a6.49,6.49,0,0,1,6.47,6.06,2.12,2.12,0,0,1,0,.44v28.37l5.54,4.09,19.46,14.41L536.9,314.3Z"/><path class="cls-18" d="M442.05,318.9A16.09,16.09,0,1,0,458.15,335,16.07,16.07,0,0,0,442.05,318.9Zm2.67,18.76v8.78H439.4v-8.78h-8.8v-5.32h8.8v-8.8h5.32v8.8h8.8v5.32Z"/><path class="cls-18" d="M470.46,308.19a8.93,8.93,0,1,0,8.94,8.93A8.93,8.93,0,0,0,470.46,308.19Zm1.48,10.41v4.87H469V318.6H464.1v-3H469v-4.87h2.95v4.87h4.89v3Z"/></g><path class="cls-19" d="M514.61,378.33l-10.33,31.76a16.39,16.39,0,0,1-14.95,9.73H436.27a16.39,16.39,0,0,1-15.78-12l-11.15-42.18-2.4-9.11-1.32-5H415l1.32,5h83.87a15.64,15.64,0,0,1,14.39,21.78Z"/><path class="cls-20" d="M513.35,363.69a15.6,15.6,0,0,0-13.13-7.14H416.35l-1.32-5-1.85-7a16.43,16.43,0,0,0-15.82-12H379.07a4.55,4.55,0,1,0,0,9.09h18.29a7.3,7.3,0,0,1,4.43,1.49,7.16,7.16,0,0,1,2.6,3.8l1.23,4.62,1.32,5,2.4,9.11,11.15,42.18a16.39,16.39,0,0,0,15.78,12h53.06a16.39,16.39,0,0,0,14.95-9.73l10.33-31.76A15.58,15.58,0,0,0,513.35,363.69Zm-7.15,11.17-10.32,31.73a7.14,7.14,0,0,1-2.59,2.94,7.26,7.26,0,0,1-4,1.18H436.27a7.27,7.27,0,0,1-7-5.26l-10.51-39.79h81.46a6.54,6.54,0,0,1,6,9.2Z"/><path class="cls-20" d="M430.4,436.26a14.8,14.8,0,1,1,14.8,14.79A14.8,14.8,0,0,1,430.4,436.26Z"/><path class="cls-21" d="M439.52,436.26a5.68,5.68,0,1,1,5.68,5.67A5.68,5.68,0,0,1,439.52,436.26Z"/><path class="cls-20" d="M465.91,436.26a14.8,14.8,0,1,1,14.79,14.79A14.79,14.79,0,0,1,465.91,436.26Z"/><path class="cls-21" d="M475,436.26a5.68,5.68,0,1,1,5.67,5.67A5.67,5.67,0,0,1,475,436.26Z"/><path class="cls-20" d="M494.35,377.66H432.07a2.76,2.76,0,1,1,0-5.51h62.28a2.76,2.76,0,1,1,0,5.51Z"/><path class="cls-20" d="M491.87,390.13H434.55a2.76,2.76,0,0,1,0-5.51h57.32a2.76,2.76,0,1,1,0,5.51Z"/><path class="cls-20" d="M488.84,402.6H437.58a2.76,2.76,0,0,1,0-5.51h51.26a2.76,2.76,0,1,1,0,5.51Z"/><path class="cls-22" d="M528.71,261.76a6.5,6.5,0,0,0-6.5-6.5H385.53a6.5,6.5,0,0,0-6.5,6.5v14.56H528.71Z"/><path class="cls-23" d="M379,276.32v14.56a6.5,6.5,0,0,0,6.5,6.5H522.21a6.5,6.5,0,0,0,6.5-6.5V276.32Z"/><path class="cls-21" d="M407.76,286.35h-3.31l-.57-3.78h-4l-.57,3.78h-3l3.34-20.87h4.8Zm-7.48-6.62h3.16l-1.58-10.55Z"/><path class="cls-21" d="M409.28,265.48h5.19c3.28,0,4.89,1.82,4.89,5.16V281.2c0,3.33-1.61,5.15-4.89,5.15h-5.19Zm3.28,3v14.91h1.85c1,0,1.67-.53,1.67-2V270.49c0-1.49-.63-2-1.67-2Z"/><path class="cls-21" d="M421.45,265.48h5.19c3.28,0,4.89,1.82,4.89,5.16V281.2c0,3.33-1.61,5.15-4.89,5.15h-5.19Zm3.28,3v14.91h1.85c1,0,1.67-.53,1.67-2V270.49c0-1.49-.63-2-1.67-2Z"/><path class="cls-21" d="M437.28,265.48h10.14v3H444v17.89h-3.28V268.46h-3.43Z"/><path class="cls-21" d="M448.59,270.49c0-3.34,1.75-5.25,5-5.25s5,1.91,5,5.25v10.85c0,3.34-1.76,5.25-5,5.25s-5-1.91-5-5.25Zm3.27,11.06c0,1.49.66,2.06,1.7,2.06s1.7-.57,1.7-2.06V270.28c0-1.49-.65-2-1.7-2s-1.7.56-1.7,2Z"/><path class="cls-21" d="M474.79,278.57v2.77c0,3.34-1.66,5.25-4.88,5.25s-4.89-1.91-4.89-5.25V270.49c0-3.34,1.66-5.25,4.89-5.25s4.88,1.91,4.88,5.25v2h-3.1v-2.24c0-1.49-.65-2-1.7-2s-1.69.56-1.69,2v11.27c0,1.49.65,2,1.69,2s1.7-.54,1.7-2v-3Z"/><path class="cls-21" d="M487.41,286.35H484.1l-.57-3.78h-4l-.57,3.78h-3l3.34-20.87h4.8Zm-7.49-6.62h3.17l-1.58-10.55Z"/><path class="cls-21" d="M495.79,286.35a6.33,6.33,0,0,1-.3-2.56v-3.28c0-1.94-.66-2.65-2.15-2.65h-1.13v8.49h-3.28V265.48h4.95c3.4,0,4.86,1.58,4.86,4.8v1.64c0,2.15-.68,3.55-2.15,4.24,1.64.68,2.18,2.26,2.18,4.44v3.22a6.09,6.09,0,0,0,.36,2.53Zm-3.58-17.89v6.41h1.28c1.22,0,2-.53,2-2.2v-2.06c0-1.49-.51-2.15-1.67-2.15Z"/><path class="cls-21" d="M500,265.48H510.1v3h-3.43v17.89h-3.28V268.46H500Z"/><polygon class="cls-8" points="555.4 336.02 539.5 311.69 553.7 308.63 534.24 294.22 514.78 279.81 520.16 303.42 525.54 327.03 534.05 315.25 549.95 339.58 555.4 336.02"/><path class="cls-23" d="M444.66,316.3a16.09,16.09,0,1,0,16.08,16.09A16.08,16.08,0,0,0,444.66,316.3Zm2.66,18.75v8.8H442v-8.8h-8.8v-5.32H442v-8.79h5.32v8.79h8.8v5.32Z"/><path class="cls-20" d="M473.06,305.58a8.94,8.94,0,1,0,8.94,8.93A8.93,8.93,0,0,0,473.06,305.58ZM474.54,316v4.89h-3V316H466.7V313h4.88v-4.89h3V313h4.89V316Z"/><path class="cls-24" d="M407.76,286.35h-3.31l-.57-3.78h-4l-.57,3.78h-3l3.34-20.87h4.8Zm-7.48-6.62h3.16l-1.58-10.55Z"/><path class="cls-24" d="M409.28,265.48h5.19c3.28,0,4.89,1.82,4.89,5.16V281.2c0,3.33-1.61,5.15-4.89,5.15h-5.19Zm3.28,3v14.91h1.85c1,0,1.67-.53,1.67-2V270.49c0-1.49-.63-2-1.67-2Z"/><path class="cls-24" d="M421.45,265.48h5.19c3.28,0,4.89,1.82,4.89,5.16V281.2c0,3.33-1.61,5.15-4.89,5.15h-5.19Zm3.28,3v14.91h1.85c1,0,1.67-.53,1.67-2V270.49c0-1.49-.63-2-1.67-2Z"/><path class="cls-24" d="M437.28,265.48h10.14v3H444v17.89h-3.28V268.46h-3.43Z"/><path class="cls-24" d="M448.59,270.49c0-3.34,1.75-5.25,5-5.25s5,1.91,5,5.25v10.85c0,3.34-1.76,5.25-5,5.25s-5-1.91-5-5.25Zm3.27,11.06c0,1.49.66,2.06,1.7,2.06s1.7-.57,1.7-2.06V270.28c0-1.49-.65-2-1.7-2s-1.7.56-1.7,2Z"/><path class="cls-24" d="M474.79,278.57v2.77c0,3.34-1.66,5.25-4.88,5.25s-4.89-1.91-4.89-5.25V270.49c0-3.34,1.66-5.25,4.89-5.25s4.88,1.91,4.88,5.25v2h-3.1v-2.24c0-1.49-.65-2-1.7-2s-1.69.56-1.69,2v11.27c0,1.49.65,2,1.69,2s1.7-.54,1.7-2v-3Z"/><path class="cls-24" d="M487.41,286.35H484.1l-.57-3.78h-4l-.57,3.78h-3l3.34-20.87h4.8Zm-7.49-6.62h3.17l-1.58-10.55Z"/><path class="cls-24" d="M495.79,286.35a6.33,6.33,0,0,1-.3-2.56v-3.28c0-1.94-.66-2.65-2.15-2.65h-1.13v8.49h-3.28V265.48h4.95c3.4,0,4.86,1.58,4.86,4.8v1.64c0,2.15-.68,3.55-2.15,4.24,1.64.68,2.18,2.26,2.18,4.44v3.22a6.09,6.09,0,0,0,.36,2.53Zm-3.58-17.89v6.41h1.28c1.22,0,2-.53,2-2.2v-2.06c0-1.49-.51-2.15-1.67-2.15Z"/><path class="cls-24" d="M500,265.48H510.1v3h-3.43v17.89h-3.28V268.46H500Z"/></g></g></svg>