<svg id="Layer_1" data-name="Layer 1" xmlns="http://www.w3.org/2000/svg" xmlns:xlink="http://www.w3.org/1999/xlink" viewBox="0 0 654 654"><defs><style>.cls-1{fill:url(#linear-gradient);}.cls-2{fill:#e8f2fa;}.cls-3{opacity:0.3;}.cls-4{fill:#acbfe3;}.cls-5{fill:#ddeaf8;}.cls-6{opacity:0.5;}.cls-7{fill:#c2dbf3;}.cls-8{opacity:0.2;}.cls-9{fill:#8db0dd;}.cls-10{fill:#f18e37;}.cls-11{fill:#9ccc98;}.cls-12{fill:#e5690b;}.cls-13{fill:#ed750f;}.cls-14{fill:#ec6c05;}.cls-15{fill:#4d57a2;}.cls-16{fill:#e4effa;}.cls-17{fill:#ee783e;}.cls-18{fill:#293967;}.cls-19{fill:#f5a977;}.cls-20{fill:#5b6cb0;}.cls-21{fill:#28539f;}.cls-22{fill:#1f3865;}.cls-23{fill:#90adda;}.cls-24{fill:#f29154;}.cls-25{fill:#f29053;}.cls-26{fill:#fff;}.cls-27{fill:#182844;}.cls-28{fill:#1b3660;}.cls-29{fill:#0d468c;}.cls-30{fill:#f39b64;}.cls-31{fill:#2c3454;}</style><linearGradient id="linear-gradient" x1="327.54" y1="654.22" x2="327.54" y2="-1" gradientUnits="userSpaceOnUse"><stop offset="0" stop-color="#fff"/><stop offset="0.16" stop-color="#e4eaf0"/><stop offset="0.35" stop-color="#cbd8e3"/><stop offset="0.54" stop-color="#bacad9"/><stop offset="0.75" stop-color="#afc3d4"/><stop offset="1" stop-color="#acc0d2"/></linearGradient></defs><rect class="cls-1" x="0.09" y="-1" width="654.91" height="655.22"/><path class="cls-2" d="M26.88,509.39s-45-67.63,4-147.21S145.6,322.62,142.42,230s135.9-101.61,185.05-74.75S420,166.73,478.72,168.6c95.21,3,121.86,96.47,95.46,141.93-37.45,64.51,117.33,72.1,28.24,198.86Z"/><g class="cls-3"><path class="cls-4" d="M101.32,363.63c-4.43-16.14,21.78-25.58,21.78-25.58s30.43,15,35.44,12.86S135,333,135,333c8.53-6.15,38.09-8.58,38.09-8.58s15.32,29.29,19.64,26-14.89-25.24-14.89-25.24c10.29-2.5,24.45,2.89,24.45,2.89,20,10.58,5.28,35.54,5.28,35.54s5.53,10,18.34,17.77h0a39.78,39.78,0,0,1,6.11,4l-2.38,1.39q-.85-.78-1.74-1.47h0l0,0-1.59-1.12h0c-1.57-1-2.68-1.75-3.44-2.33h0c-4.82-3.18-11.39-7.15-14.21-7.14a5.14,5.14,0,0,0-.13-1.39c.05.44.09.9.13,1.39,1.06,11.08-18.51,24.45-31.26,28.77s-9.67-1.76-6.6-10.52,16.71-14.88,19.31-19.13-4.15-3-11.39,2-6.59,14.77-18.16,23.08-34.43-9.16-34.43-9.16c10-2.33,22.43-15.83,21.31-19.07S124,380.81,120,382,105.75,379.77,101.32,363.63Z"/></g><path class="cls-5" d="M539.56,482.37c16.28-15.72-7.63-44.56-7.63-44.56s-45.68-3.34-50-9.25,39.62-4.73,39.62-4.73c-5.66-13-38.3-35.94-38.3-35.94s-38,23.54-40.74,16.75S477.2,385.5,477.2,385.5c-10.22-9.92-30.38-13.33-30.38-13.33-30.49-1.35-30.66,37.65-30.66,37.65s-13.34,7.88-33.55,8.13h0a52.87,52.87,0,0,0-9.87.48l1.81,3.25c1-.22,2-.4,3-.52h.07l2.62-.21h0c2.5-.09,4.32-.21,5.59-.36h0c7.79-.4,18.16-.53,21.42,1.41a7.27,7.27,0,0,1,1.11-1.52L407.29,422c-8.87,12.15,4.62,41,16.44,54.74s12.45,4.55,14.93-7.71-9.14-28.68-9.22-35.38,6.91-.7,11.87,10.05-2.55,21.64,5.15,39.18,46.3,12.87,46.3,12.87c-10-9.53-15.13-33.68-11.58-36.68s20.18,27.78,24,31.88S523.28,498.09,539.56,482.37Z"/><g class="cls-6"><path class="cls-7" d="M194.94,315.85s-20.79-21.53-43.7-26.51a3.32,3.32,0,0,0-3.31,5.29l.1.12C151.39,298.86,178.55,306.43,194.94,315.85Z"/></g><g class="cls-6"><path class="cls-7" d="M201.56,321.52s-34.59-20.47-65.27-18a3.53,3.53,0,0,0-3.28,3.59c.05,1.22.75,2.65,2.85,4.14C141.46,315.22,177.9,315.38,201.56,321.52Z"/></g><g class="cls-6"><g class="cls-6"><path class="cls-4" d="M445.21,368.92s4.93-30.69,21.56-48.46a3.47,3.47,0,0,1,6,2.57c0,.06,0,.11,0,.17C472.32,328.69,453.61,351.19,445.21,368.92Z"/></g><g class="cls-6"><path class="cls-4" d="M442.92,377.67S460.3,339.76,488,323.78a3.69,3.69,0,0,1,5,1.14c.68,1.07.93,2.71,0,5.22C490.58,336.83,459.5,358.46,442.92,377.67Z"/></g></g><g class="cls-8"><path class="cls-9" d="M303,298.42l12.11-1.32a2.72,2.72,0,0,1,2.54,1.21c.69,1.09,1.44,2.15,2.24,3.19a44.46,44.46,0,0,0,4.78,5.33,2.64,2.64,0,0,1,.64,2.92l-4.67,11.77a2.59,2.59,0,0,0,1.28,3.3L332.36,330a2.59,2.59,0,0,0,3.32-.91l6.33-9.8a2.61,2.61,0,0,1,2.91-1.11,47.26,47.26,0,0,0,14.76,1.5,2.7,2.7,0,0,1,2.68,1.86l2.11,6.77a2.71,2.71,0,0,0,3.08,1.82l11.33-2.24a2.37,2.37,0,0,0,.65-.22A2.59,2.59,0,0,0,381,325l-1-9-.25-2.2a44.68,44.68,0,0,0,5.5-3.59,46.28,46.28,0,0,0,6.46-5.91,2.61,2.61,0,0,1,2.9-.69l9.54,3.76a2.69,2.69,0,0,0,3.39-1.3l4-7.92,1.13-2.27a2.7,2.7,0,0,0-1-3.49l-8.24-5.27a2.57,2.57,0,0,1-1.15-2.82,45.54,45.54,0,0,0,1.28-9.85,7.77,7.77,0,0,0,0-.83,2.46,2.46,0,0,1,0-.28,2.65,2.65,0,0,1,1.88-2.26l11.05-3.44a2.24,2.24,0,0,0,.36-.14,2.69,2.69,0,0,0,1.46-2.91l-2.23-11.24a2.69,2.69,0,0,0-2.93-2.13l-12.62,1.38a2.62,2.62,0,0,1-2.61-1.36,47.1,47.1,0,0,0-3.93-6c-.79-1-1.62-2-2.47-3a2.68,2.68,0,0,1-.51-2.82l4.49-11.32a2.59,2.59,0,0,0-1.27-3.28L384,219.78a2.73,2.73,0,0,0-3.52,1l-5,7.76a2.7,2.7,0,0,1-3.13,1.09A46.94,46.94,0,0,0,358.11,227a2.67,2.67,0,0,1-2.51-1.87l-3.11-9.9a2.76,2.76,0,0,0-3.15-1.86l-11.26,2.2a2.63,2.63,0,0,0-2.12,2.87l.06.53,1.14,10.45a2.65,2.65,0,0,1-1.46,2.68h0a47,47,0,0,0-7,4.39c-1.19.91-2.31,1.86-3.41,2.86a2.66,2.66,0,0,1-2.78.53l-9.68-3.81a2.72,2.72,0,0,0-3.45,1.31l-5.11,10.2a3.18,3.18,0,0,0-.27.9,2.7,2.7,0,0,0,1.22,2.54l6.59,4.19a2.69,2.69,0,0,1,1.22,2.36,2.74,2.74,0,0,1-.13.74,46.07,46.07,0,0,0-2.43,18.23,2.63,2.63,0,0,1-1.42,2.51,3.61,3.61,0,0,1-.42.16L299.67,282a2.66,2.66,0,0,0-1.83,3l.05.26,2.17,11A2.73,2.73,0,0,0,303,298.42Zm77.53-34a31,31,0,0,1,1.62,5.56,24.41,24.41,0,0,1-1.78,13.21l-.57,1.09c-11.9,21.83-42.93,17.4-48-7.28a25.12,25.12,0,0,1,.94-11.52,16.71,16.71,0,0,1,.93-2.27,28.67,28.67,0,0,1,5.8-7.89A25.3,25.3,0,0,1,380.56,264.46Z"/></g><path class="cls-4" d="M456.21,278.7l7.52-.82a1.68,1.68,0,0,1,1.57.76c.44.67.9,1.33,1.4,2a27.7,27.7,0,0,0,3,3.31,1.64,1.64,0,0,1,.41,1.81l-2.91,7.31a1.62,1.62,0,0,0,.8,2.05l6.46,3.21a1.62,1.62,0,0,0,2.06-.56l3.94-6.09a1.61,1.61,0,0,1,1.8-.69,29.46,29.46,0,0,0,9.17.93,1.66,1.66,0,0,1,1.66,1.15l1.32,4.21a1.67,1.67,0,0,0,1.9,1.13l7-1.39a1.53,1.53,0,0,0,.41-.14,1.59,1.59,0,0,0,.9-1.63l-.61-5.59-.15-1.36a29.17,29.17,0,0,0,7.43-5.9,1.62,1.62,0,0,1,1.8-.43l5.92,2.33a1.67,1.67,0,0,0,2.11-.8l2.47-4.92.7-1.41a1.67,1.67,0,0,0-.6-2.17l-5.11-3.27a1.6,1.6,0,0,1-.72-1.75,28.76,28.76,0,0,0,.8-6.12,4.35,4.35,0,0,0,0-.51.55.55,0,0,1,0-.18,1.64,1.64,0,0,1,1.16-1.4l6.86-2.14a.92.92,0,0,0,.23-.09,1.66,1.66,0,0,0,.91-1.8l-1.39-7a1.67,1.67,0,0,0-1.82-1.32l-7.84.86a1.62,1.62,0,0,1-1.61-.85,28.6,28.6,0,0,0-2.45-3.74c-.49-.64-1-1.26-1.53-1.84a1.68,1.68,0,0,1-.32-1.75l2.79-7a1.62,1.62,0,0,0-.78-2l-6.41-3.16a1.68,1.68,0,0,0-2.18.59l-3.12,4.82a1.67,1.67,0,0,1-1.94.68,29.56,29.56,0,0,0-8.84-1.61,1.63,1.63,0,0,1-1.55-1.16L486.92,227a1.7,1.7,0,0,0-1.95-1.15l-7,1.37a1.62,1.62,0,0,0-1.31,1.78l0,.32.72,6.49a1.68,1.68,0,0,1-.91,1.67h0a28.81,28.81,0,0,0-4.34,2.72c-.74.57-1.44,1.16-2.12,1.78a1.67,1.67,0,0,1-1.73.33l-6-2.37a1.7,1.7,0,0,0-2.15.81L457,247.14a1.63,1.63,0,0,0-.16.56,1.65,1.65,0,0,0,.75,1.57l4.09,2.61a1.65,1.65,0,0,1,.76,1.46,1.48,1.48,0,0,1-.08.46,28.64,28.64,0,0,0-1.51,11.32,1.64,1.64,0,0,1-.88,1.56l-.26.1-5.56,1.73A1.65,1.65,0,0,0,453,270.4l0,.16,1.35,6.81A1.68,1.68,0,0,0,456.21,278.7Zm48.14-21.09a19.09,19.09,0,0,1,1,3.46,15,15,0,0,1-1.11,8.2c-.11.23-.23.46-.35.68-7.39,13.55-26.66,10.8-29.79-4.53a15.55,15.55,0,0,1,.59-7.15,10.34,10.34,0,0,1,.57-1.41,18,18,0,0,1,3.61-4.9A15.7,15.7,0,0,1,504.35,257.61Z"/><path class="cls-10" d="M412.38,233l5.13-1.72a1.24,1.24,0,0,1,1.22.29c.4.41.83.8,1.28,1.18a20.13,20.13,0,0,0,2.58,1.87,1.17,1.17,0,0,1,.56,1.2l-.91,5.56a1.14,1.14,0,0,0,.87,1.31l5,1.27a1.16,1.16,0,0,0,1.36-.71l1.82-4.86a1.14,1.14,0,0,1,1.15-.75,21.11,21.11,0,0,0,6.56-.74,1.2,1.2,0,0,1,1.34.56l1.56,2.74a1.2,1.2,0,0,0,1.51.5l4.71-2a1.17,1.17,0,0,0,.27-.15,1.15,1.15,0,0,0,.38-1.28l-1.29-3.82-.31-.93a20.16,20.16,0,0,0,2.05-2.08,20.5,20.5,0,0,0,2.24-3.17,1.16,1.16,0,0,1,1.2-.57l4.5.73a1.19,1.19,0,0,0,1.35-.88l1-3.82.28-1.09a1.21,1.21,0,0,0-.75-1.43l-4.08-1.51a1.15,1.15,0,0,1-.77-1.12,20.34,20.34,0,0,0-.38-4.4c0-.13,0-.24-.06-.36a.3.3,0,0,1,0-.13,1.15,1.15,0,0,1,.6-1.15l4.47-2.54a.67.67,0,0,0,.14-.09,1.18,1.18,0,0,0,.36-1.4l-2-4.68a1.2,1.2,0,0,0-1.47-.65L450.42,204a1.15,1.15,0,0,1-1.26-.35,21.21,21.21,0,0,0-2.29-2.25q-.66-.56-1.35-1.05a1.19,1.19,0,0,1-.49-1.18l.87-5.34a1.14,1.14,0,0,0-.86-1.3l-5-1.25a1.22,1.22,0,0,0-1.44.75l-1.44,3.84a1.2,1.2,0,0,1-1.26.77,21,21,0,0,0-6.43.22,1.18,1.18,0,0,1-1.26-.58l-2.3-4a1.23,1.23,0,0,0-1.55-.51l-4.68,2a1.15,1.15,0,0,0-.64,1.44l.07.22,1.49,4.44a1.18,1.18,0,0,1-.38,1.3h0a20.39,20.39,0,0,0-2.62,2.56c-.44.51-.83,1-1.21,1.56a1.18,1.18,0,0,1-1.16.5L410.7,205a1.22,1.22,0,0,0-1.38.89l-1.25,4.92a1.14,1.14,0,0,0,0,.41,1.17,1.17,0,0,0,.76,1l3.27,1.2a1.23,1.23,0,0,1,.75.91,1.28,1.28,0,0,1,0,.34,20.61,20.61,0,0,0,.68,8.15,1.15,1.15,0,0,1-.38,1.22.91.91,0,0,1-.16.11l-3.63,2.05a1.19,1.19,0,0,0-.5,1.5l0,.11,2,4.55A1.22,1.22,0,0,0,412.38,233Zm30.45-22a14,14,0,0,1,1.24,2.27,10.79,10.79,0,0,1,.47,5.9c0,.18-.09.35-.14.53-3.09,10.6-17,11.59-21.53,1.35a11.1,11.1,0,0,1-.69-5.1,6.6,6.6,0,0,1,.19-1.07,12.63,12.63,0,0,1,1.77-4A11.25,11.25,0,0,1,442.83,211Z"/><path class="cls-11" d="M44.09,509H66.22c1.19-1-.82-3.28-2.91-3.43a12.74,12.74,0,0,0-3.38.4c-.31-4-2-22.11-8.6-21.38-7.37.81,0,8,2.08,12.2a102.6,102.6,0,0,1,3.92,9.75c-.6.13-1.22.26-1.85.37-1-3-4.62-13-9.24-12.43-5.43.68-3.25,4.71.6,7.09,2.82,1.76,6.29,4.26,7.94,5.46a23.73,23.73,0,0,1-4.33.35C46.66,507.24,44.81,508.35,44.09,509Z"/><path class="cls-11" d="M586.94,508.41h-25c-1.34-1.13.93-3.7,3.3-3.87A14.71,14.71,0,0,1,569,505c.34-4.55,2.31-25,9.72-24.18,8.34.92,0,9-2.35,13.79a112.5,112.5,0,0,0-4.43,11l2.09.41c1.11-3.37,5.22-14.72,10.45-14.05,6.13.77,3.67,5.32-.68,8-3.2,2-7.11,4.81-9,6.17a26.36,26.36,0,0,0,4.9.39C584,506.48,586.13,507.74,586.94,508.41Z"/><path class="cls-12" d="M309.23,356.6,297.12,499.76s-1.26,8.68,5.23,8.69c10.67,0,53.12,0,53.12,0s-8-1.8-7.94-5.87c.12-4.79,14.15-147.34,14.15-147.34Z"/><path class="cls-10" d="M359.46,505.91c-2.09,0-43.19.08-53.58-.06-4.53-.05-5.33-4-5.37-6.56a13.82,13.82,0,0,1,.14-2.13l.32-3.72.8-9.48.71-8.38.91-10.77.77-9.09L312.76,354l52.45-1.36s-5.91,59.66-10.09,103.08c-.47,4.84-.91,9.48-1.32,13.81-.14,1.38-.26,2.74-.39,4.05-.39,4.11-.74,7.88-1.05,11.22-.16,1.75-.31,3.38-.45,4.88-.53,5.85-.84,9.59-.85,10.3a7,7,0,0,0,.1,1.16C352,505.7,358.68,505.91,359.46,505.91Z"/><polygon class="cls-10" points="181.85 278.69 211.34 396.5 215.38 412.63 229.11 467.5 484.3 467.5 433.67 278.69 181.85 278.69"/><polygon class="cls-12" points="181.85 278.69 177.76 280.05 223.68 471.6 229.11 467.5 181.85 278.69"/><polygon class="cls-13" points="223.68 471.6 477.3 471.6 484.3 467.5 229.11 467.5 223.68 471.6"/><rect class="cls-10" x="312.74" y="505.91" width="54.91" height="2.59" transform="translate(680.4 1014.42) rotate(180)"/><polygon class="cls-14" points="353.69 471.6 353.41 473.58 301.77 483.96 302.48 475.58 302.82 471.6 353.69 471.6"/><g class="cls-6"><path class="cls-13" d="M359.46,505.91c-2.09,0-43.19.08-53.58-.06-4.53-.05-5.33-4-5.37-6.56l51.4-9.61c-.53,5.85-.84,9.59-.85,10.3a7,7,0,0,0,.1,1.16C352,505.7,358.68,505.91,359.46,505.91Z"/></g><polygon class="cls-13" points="181.85 278.69 433.67 278.69 474.53 430.44 219.84 430.44 181.85 278.69"/><polygon class="cls-15" points="462.65 423.86 226.87 423.86 218.44 390.48 215.18 377.56 213.85 372.3 205.19 338 204.75 336.21 200.17 318.08 198.12 309.97 196.37 303.05 192.28 286.82 424.67 286.82 429.16 303.05 431.08 309.97 433.33 318.08 448.14 371.53 448.14 371.53 449.4 376.06 449.99 378.16 460.21 415.06 462.65 423.86"/><polygon class="cls-13" points="315.51 430.44 229.2 467.94 219.84 430.44 315.51 430.44"/><path class="cls-16" d="M336.65,372.61c-19.27,0-37.54-15.58-40.73-34.74s9.87-34.74,29.14-34.74,37.53,15.58,40.73,34.74S355.91,372.61,336.65,372.61Zm-10.59-63.49c-15.95,0-26.76,12.9-24.12,28.75s17.76,28.75,33.71,28.75,26.76-12.9,24.11-28.75S342,309.12,326.06,309.12Z"/><path class="cls-10" d="M336.66,372.69c-19.31,0-37.62-15.62-40.82-34.82s9.9-34.82,29.2-34.82c10.49,0,21.11,4.62,29.14,12.67a41.56,41.56,0,0,1,11.69,22.15,2.54,2.54,0,0,1-2.58,3.07,3.79,3.79,0,0,1-3.61-3.07,35.33,35.33,0,0,0-33.61-28.67c-15.9,0-26.69,12.86-24.05,28.67s17.72,28.67,33.61,28.67a3.8,3.8,0,0,1,3.61,3.08A2.54,2.54,0,0,1,336.66,372.69Z"/><path class="cls-16" d="M402.94,399.37l.56,3.32a2.74,2.74,0,0,1-2.77,3.3h-117a4.08,4.08,0,0,1-3.86-3.3l-.56-3.32a2.74,2.74,0,0,1,2.77-3.3h117A4.08,4.08,0,0,1,402.94,399.37Z"/><path class="cls-10" d="M365.13,396.07l1.66,9.92h-83.1a4.08,4.08,0,0,1-3.86-3.3l-.56-3.32a2.74,2.74,0,0,1,2.77-3.3Z"/><polygon class="cls-17" points="347.89 396.07 340.35 405.99 323.14 405.99 330.69 396.07 347.89 396.07"/><polygon class="cls-17" points="365.13 396.07 366.79 405.99 350.84 405.99 358.38 396.07 365.13 396.07"/><polygon class="cls-17" points="320.19 396.07 312.65 405.99 295.44 405.99 302.99 396.07 320.19 396.07"/><path class="cls-17" d="M292.49,396.07,285,406h-1.26a4.08,4.08,0,0,1-3.86-3.3l-.56-3.32a2.74,2.74,0,0,1,2.77-3.3Z"/><path class="cls-16" d="M317.83,333.26h-6.52l-.33-2h9.12l.28,1.72-4,11.18h-2.56Z"/><path class="cls-16" d="M322.77,337.72c-.62-3.68,1.14-6.67,4.55-6.67s6.13,2.95,6.75,6.67-1.15,6.67-4.56,6.67S323.39,341.45,322.77,337.72Zm9,0c-.43-2.54-2.09-4.62-4.09-4.62s-2.94,2-2.51,4.62,2.07,4.63,4.09,4.63S332.15,340.3,331.72,337.72Z"/><path class="cls-16" d="M335.47,334.42a2.59,2.59,0,0,1,2.52-3.3,3.81,3.81,0,0,1,3.59,3.3c.3,1.79-.69,3.3-2.52,3.3A3.8,3.8,0,0,1,335.47,334.42Zm4.46,0a2,2,0,0,0-1.74-1.88c-.87,0-1.25.85-1.07,1.88a2,2,0,0,0,1.74,1.88C339.73,336.3,340.1,335.46,339.93,334.42Zm5.82-3.15h1.83l-7.34,12.9h-1.83ZM344.41,341c-.3-1.79.69-3.3,2.52-3.3a3.81,3.81,0,0,1,3.59,3.3c.3,1.79-.69,3.3-2.52,3.3A3.8,3.8,0,0,1,344.41,341Zm4.46,0a2,2,0,0,0-1.74-1.88c-.87,0-1.25.85-1.07,1.88a2,2,0,0,0,1.74,1.88C348.67,342.9,349,342.05,348.87,341Z"/><path class="cls-16" d="M327.57,388.24h.7l.56,3.34h2.1l.11.63h-2.8Z"/><path class="cls-16" d="M331.22,390.72a1.3,1.3,0,0,1,1.35-1.57,1.93,1.93,0,0,1,1.87,1.57,1.3,1.3,0,0,1-1.36,1.56A1.91,1.91,0,0,1,331.22,390.72Zm2.52,0a1.13,1.13,0,0,0-1.08-1,.75.75,0,0,0-.75,1,1.15,1.15,0,0,0,1.08,1A.75.75,0,0,0,333.74,390.72Z"/><path class="cls-16" d="M337.23,392.21l-.06-.37a1,1,0,0,1-.9.44,1.17,1.17,0,0,1-1.23-.94c-.12-.67.35-1,1-1a2.92,2.92,0,0,1,.86.12v-.06a.76.76,0,0,0-.85-.64,1.92,1.92,0,0,0-.83.19l-.28-.55a2.26,2.26,0,0,1,1.1-.25,1.41,1.41,0,0,1,1.54,1.27l.3,1.77ZM337,391a2.1,2.1,0,0,0-.71-.12c-.44,0-.66.18-.61.48a.6.6,0,0,0,.65.44c.46,0,.76-.26.7-.63Z"/><path class="cls-16" d="M338.33,390.71c-.16-1,.42-1.56,1.14-1.56a1.5,1.5,0,0,1,1.12.53l-.27-1.61H341l.69,4.14H341l-.08-.5a1,1,0,0,1-.93.57A1.79,1.79,0,0,1,338.33,390.71Zm2.44,0a1.1,1.1,0,0,0-1-1c-.47,0-.81.36-.71,1a1.1,1.1,0,0,0,1,1A.75.75,0,0,0,340.77,390.71Z"/><path class="cls-16" d="M341.89,388.1h.74l.11.65H342Zm.22,1.11h.69l.5,3h-.69Z"/><path class="cls-16" d="M343.7,389.21h.69l.08.47a.89.89,0,0,1,.85-.53,1.27,1.27,0,0,1,1.27,1.16l.32,1.9h-.69l-.29-1.7a.76.76,0,0,0-.77-.73c-.4,0-.63.28-.55.74l.28,1.69h-.69Z"/><path class="cls-16" d="M347.83,392.78l.17-.52a2.24,2.24,0,0,0,1.13.32c.61,0,.9-.32.8-.92l0-.24a1,1,0,0,1-1,.56,1.67,1.67,0,0,1-1.61-1.42,1.12,1.12,0,0,1,1.14-1.41,1.55,1.55,0,0,1,1.14.51l-.08-.45h.7l.39,2.39a1.33,1.33,0,0,1-.19,1.13,1.48,1.48,0,0,1-1.17.4A3,3,0,0,1,347.83,392.78Zm1.92-2.22a1,1,0,0,0-1-.83.68.68,0,0,0-.72.84,1,1,0,0,0,1,.83A.71.71,0,0,0,349.75,390.56Z"/><path class="cls-18" d="M166.43,365.68s.59-6.39-6.6-6.39a8.39,8.39,0,0,1,3.31,1.76s-4.59-2.68-9.58,1.44-1.89,14.42-3.4,16.38-7.43,2.35-6.71,8.68,18.75,14.27,17.6,19.5c0,0,7.06-10.32,2-15,0,0,2.46,2.31,2.71,5.05,0,0,.67-5.35-2.75-7.06-3-1.52-5.52-7.06-5.26-8.05S166.43,365.68,166.43,365.68Z"/><path class="cls-19" d="M159.35,396.4s5.37,22.09,10.64,26.51c3.17,2.65,12.59,8.74,12.59,8.74l-3.92,1.42s-13.06-4.39-16-7.81-10.93-20.56-10.93-20.56Z"/><path class="cls-20" d="M190.19,439.73l-1.26-3.11a8.88,8.88,0,0,0-8.22-5.51H157.43v77.4h96.29V445.8H199.23A9.77,9.77,0,0,1,190.19,439.73Z"/><path class="cls-21" d="M108.89,435.21l.14.26c1.18,2,3.87,7,6.84,12.45,1.41,2.59,2.88,5.28,4.27,7.81,2.41,4.37,4.59,8.26,5.87,10.31s2.25,3.56,2.64,4.15h0a1,1,0,0,1,.13.61,31.18,31.18,0,0,0,.08,5.47,42,42,0,0,0,13.81,27.22l3.57.52s-5.06-18.62-6.55-29.15a20.08,20.08,0,0,1-.27-4.18c.26-2.74-.23-6.77-1.15-11.39A254.59,254.59,0,0,0,131,432.91c-.16-.51-5.19-18.58-5.19-18.58-4.21,3.66-19.59,5.17-19.59,5.17S103.57,425.81,108.89,435.21Z"/><path class="cls-22" d="M153.74,508.51H138.83a8.1,8.1,0,0,1,.42-4c.74-1.64,1.81-1.69.13-4.27,1,1,4,1.37,6.15,1.08.27.43,1.7,3.28,2.59,3.91S153.44,505.7,153.74,508.51Z"/><path class="cls-22" d="M108.89,435.21l.14.26c1.18,2,7.53,13.7,10.5,19.15-3.44-14.08-1-28.15-1-28.15Z"/><path class="cls-18" d="M164.4,364.78c.09-.39-8.52,3.88-9,4.36-4,4.45-2.88,10.27-.57,10.32,1.48,0,1.19,2.49,1.19,2.49L172.58,375S170.59,363.47,164.4,364.78Z"/><path class="cls-4" d="M158.85,393.08s2.51,5,2.2,9c0,0-3,4.76-10.89,6C150.16,408.09,156.91,393.08,158.85,393.08Z"/><path class="cls-21" d="M120.51,420.61l0-2.77c-5.56.69-19.16-6.61-19.16-6.61s-5.81,3.85-6.6,14.83c-.39,5.35-2.85,28-3.12,34.78-.1,2.46-.13,4.21-.14,4.91h0a1,1,0,0,1-.24.57,32.06,32.06,0,0,0-3,4.59c-8.48,15.69-4,37-4,37l2-.5s7.17-22.09,11.86-31.65a19.36,19.36,0,0,1,2.12-3.61c1.76-2.13,3.62-5.74,5.45-10.09C109.1,453.84,120.51,420.61,120.51,420.61Z"/><path class="cls-22" d="M96.1,508.51H81.19a8.1,8.1,0,0,1,.42-4c.75-1.64,1.92-2.39,1.64-4.38a5.38,5.38,0,0,0,4.65,1.77,16.28,16.28,0,0,0,2.58,3.33C91.46,506,95.8,505.7,96.1,508.51Z"/><path class="cls-4" d="M149.15,411.27c-2,.34.33,1.92-2.43,2.22-3.92.43-8,.72-10.09,1.56a2.24,2.24,0,0,0-1.45,1.17c-.92,2.75-6.74,7.47-6.74,7.47-26-1.18-27.63-12.68-27.63-12.68,16.85-16.28,31.18-25.15,43-26.24,2.88-.27,6.77.09,8.59.9,4.15,1.83,6.42,7.41,6.42,7.41S156.76,410,149.15,411.27Z"/><path class="cls-23" d="M146.72,413.49c-3.92.43-8,.72-10.09,1.56-6.12-12.15,5.25-22.56,5.25-22.56S145.86,408.62,146.72,413.49Z"/><path class="cls-19" d="M150.11,390.31s-9.86-.54-11.62,5.62,3.29,30.72,4.38,33.26c2,4.61,11.94,18.36,11.94,18.36l3.2-1.64s-6.42-20.13-7.85-22.12C147.91,420.66,153.06,393,150.11,390.31Z"/><path class="cls-19" d="M158,445.91a14.09,14.09,0,0,1,1.48,1.52c.67.8.08,1.09,2,4.74,0,0-.1.51-.51.41s-1.85-1.5-2.59-1.4c0,0-.53.43-.59,1.86a32.8,32.8,0,0,1-.29,4.85c-.23.56-1.94-2.33-2.79-4.41-.73-1.83,0-8,0-8Z"/><path class="cls-4" d="M136.55,404.16c0,.14,9.33,1.7,15.15-1.24,0,0,4.86-15.14-2.09-14.42s-11.06,2.9-11.23,6.21A63.87,63.87,0,0,1,136.55,404.16Z"/><path class="cls-19" d="M152.21,386.73a6.15,6.15,0,0,0,1.87,4.31c1.24,1.26,3,2.25,4.28,1a13.34,13.34,0,0,0,1.94-2.33c1.08-1.85,2.37-3.74,2.37-3.74l-5.58-4.86-.33-.29a14.28,14.28,0,0,1-4.16,4.69A1.28,1.28,0,0,0,152.21,386.73Z"/><path class="cls-24" d="M162.67,386s-1.29,1.89-2.37,3.74c-3.47-2.12-3.47-6.39-3.21-8.6Z"/><path class="cls-19" d="M162.83,388.41s-8.42-4.66-5.42-9.83,3.93-9.26,9.43-6.5,5.39,5.32,4.82,7.29S165.09,389.48,162.83,388.41Z"/><path class="cls-18" d="M173.08,376.35c-.39-2.29-1.56-2.51-2.38-2.36a6.76,6.76,0,0,0-8.19-3.12,11.48,11.48,0,0,1-6.64,4s1,1.81,5,2.93a6.94,6.94,0,0,0,4-.32,22.41,22.41,0,0,1-5.71,2.14c5.3.48,10.35-4.34,10.87-4.86a7.39,7.39,0,0,1,.42,3.46c-.35,1.56-1.74,4.37-.89,4.74C169.54,382.93,173.66,379.8,173.08,376.35Z"/><path class="cls-19" d="M184.12,431.66s-2.35,1.76-.58,2.9,4.94,1.46,5,.71C188.53,432.74,187.27,431,184.12,431.66Z"/><path class="cls-4" d="M182.66,485.47h49.75c2.05,0,3.63-3.12,3.66-5.33.08-6.93-7.4-18-24.36-13.1,0,0-4.78-12.85-21.6-11.29-9.87.91-15.37,10.93-16,19.86C173.68,480.94,177.69,485.47,182.66,485.47Z"/><rect class="cls-10" x="200.24" y="475" width="9.64" height="22.02" transform="translate(410.12 972.01) rotate(180)"/><polygon class="cls-10" points="217.02 479.44 193.1 479.44 205.06 468.26 217.02 479.44"/><polygon class="cls-22" points="430.19 376.39 417.61 379.27 411.36 390.49 406.69 364.86 430.19 376.39"/><polygon class="cls-22" points="424.93 387.35 423.09 388.73 415.1 378.17 416.93 376.8 424.93 387.35"/><path class="cls-19" d="M234.23,312.16a1.45,1.45,0,0,0-.26,1.56h0a9.8,9.8,0,0,0,3.09,3.36l.5.41a.52.52,0,0,0,.11.1l.08.08c1.36,1.24.85,1.53,3.29,4.05,2.77,2.88,4.69,2.93,5.23,2.67s-.47-1.75-1.51-3.46l-.15-.25c-.14-.23-.28-.46-.41-.69-1.22-2.07-.91-3-.62-6.1.24-2.5,3.91-13.94,3.91-13.94l-5.33-.91s-1.6,9.11-3.37,10.51c-.95.75-2,.76-2.91,1.31l-.19.12A6.82,6.82,0,0,0,234.23,312.16Z"/><path class="cls-22" d="M234.23,312.16a1.45,1.45,0,0,0-.26,1.56h0a11.25,11.25,0,0,0,3.1,3.35l.49.42a.52.52,0,0,0,.11.1l.08.08c1.36,1.24.85,1.53,3.29,4.05,2.77,2.88,4.69,2.93,5.23,2.67s-.47-1.75-1.51-3.46a12,12,0,0,1-4.95-3.63c-1.62-2.05-2.71-4.66-3.81-6.26l-.31-.06A6.82,6.82,0,0,0,234.23,312.16Z"/><path class="cls-19" d="M277.18,308.85c.32,1.63,2.67,1.36,5.29.72s2,.12,5.72-.29,4.85-1.79,5-2.34-1.74-.66-3.72-.89l-.75-.08c-2.23-.28-3.86-1.71-5.88-2.89s-4.78-5.65-4.78-5.65l-5.11.41s2.68,4.05,3.71,5.81a6.15,6.15,0,0,1,.51,3.46A6.35,6.35,0,0,0,277.18,308.85Z"/><path class="cls-22" d="M282.47,309.57c2.61-.63,2,.12,5.72-.29s4.85-1.79,5-2.34-1.74-.66-3.72-.89l0,0a10.47,10.47,0,0,1-5.33,1.65c-2.53.06-5.21-.66-6.95-.63a6.35,6.35,0,0,0,0,1.74C277.5,310.48,279.85,310.21,282.47,309.57Z"/><path class="cls-23" d="M257.59,276.36l-4.77,12.78-6.24,16.69a10.24,10.24,0,0,1-3.31-.3,14.37,14.37,0,0,1-3.21-1.55s1.73-17.92,5-28.21a18.39,18.39,0,0,1,2.78-6C252.81,263.9,257.59,276.36,257.59,276.36Z"/><path class="cls-4" d="M252.74,256.06c-2.72-.88-9.82,0-17.51,1.37a5.24,5.24,0,0,1-5.39-2.42h0l-19.37-1.51s-6.39,14.1-2.89,23.08a3.39,3.39,0,0,0,3.38,2.17h15.45c9.63,0,20.38-6.58,21.77-6.86,2.28-.45,3.19,4.08,5.47,8.83s21.4,21.06,21.4,21.06a16.62,16.62,0,0,0,4.15-.43,4,4,0,0,0,1.78-1.12S259.79,258.32,252.74,256.06Z"/><path class="cls-22" d="M227.78,198.45a6.85,6.85,0,0,0-3.7-.95,12,12,0,0,1-1.79-.11c-7.39-1.08-11.84,9.6-12.1,12.82-.48,5.93-3.63,6.83-8.06,10.54-8.89,7.43-6.29,16.08-1.42,19.29,2.91,1.93,8,0,8,0s14.07-7.78,21-11.56C240.06,227,231.93,200.91,227.78,198.45Z"/><path class="cls-19" d="M223.94,225.27s-3.39,1.18-5.68.17-3.78-4.47-3.75-4.47c1,0,2.05-.89,2.88-6.48l.42.15,7,2.51s-.51,2.23-.83,4.36C223.71,223.3,223.56,225,223.94,225.27Z"/><path class="cls-25" d="M224.82,217.15s-.28,1.2-.69,3.46a7.91,7.91,0,0,1-6.32-6Z"/><path class="cls-19" d="M225.87,219.37s-9.6-1.28-8.7-7.21.25-10.09,6.42-9.53,7,3,7.19,5.06S228.39,219.55,225.87,219.37Z"/><path class="cls-22" d="M230.44,204.44s-6.15,5.26-10.33,5.69-5.76-.91-5.76-.91a16.12,16.12,0,0,0,4-5.32,2.94,2.94,0,0,1,2.42-1.72C223.7,201.93,229.36,201.81,230.44,204.44Z"/><path class="cls-22" d="M226.59,204a15,15,0,0,1,2.71,3.44,11.51,11.51,0,0,1,.31,6.14s3.2-6.19,1.39-9.2C229.08,201.16,226.59,204,226.59,204Z"/><path class="cls-10" d="M232,239.33c-.29,19.32-.08,15.28-2.2,17.11-.51.44-1.95.71-3.85.83-5.95.39-16.42-.58-16.82-1.68-1.38-3.78-.41-5-1.55-10.76-.12-.62-.27-1.28-.44-2-1-4-1.89-5.34,1.5-11.74,3.08-5.79,6.27-10.5,6.56-10.33,8.11,4.79,8.77.77,8.77.77S232.17,229.91,232,239.33Z"/><path class="cls-4" d="M252.82,289.14l-6.24,16.69a10.24,10.24,0,0,1-3.31-.3,14.37,14.37,0,0,1-3.21-1.55s1.73-17.92,5-28.21Z"/><path class="cls-10" d="M224,221.51s8.34,1.41,9.32,5,4.21,25.26,4.21,25.26-2.35,2.29-4.31.34S227,231.8,227,231.8Z"/><path class="cls-13" d="M226,257.27c-5.95.39-16.42-.58-16.82-1.68-1.38-3.78-.41-5-1.55-10.76l2.87-8s-.47,9,2.18,11.31,10.88,4.55,12.17,6.52A7.2,7.2,0,0,1,226,257.27Z"/><path class="cls-19" d="M219.15,253.5s5.88-1.3,6.82-.78a13.93,13.93,0,0,1,3.56,3.06c.29.66-2.11-.49-2.89-.7a6.84,6.84,0,0,0-2.5.54,8.35,8.35,0,0,1-4.47.45Z"/><path class="cls-10" d="M215.21,220.75s-7.89.48-10.62,4.27c-3.84,5.33-11.47,28.06-7.1,31.09,4.92,3.42,22.41.9,22.41.9s.58-2.71-.23-4-14-3.42-14.57-4,7.59-11.78,7.59-13.59S215.21,220.75,215.21,220.75Z"/><path class="cls-19" d="M226.26,254.35a11.06,11.06,0,0,0,1.63,1.76,1.29,1.29,0,0,0,.67.15l-.83-1.49Z"/><path class="cls-19" d="M226,252.72l3.58,1.73a.63.63,0,0,1-.59.23,8.44,8.44,0,0,1-1.55-.43Z"/><polygon class="cls-22" points="256.54 256.78 219.15 256.78 219.15 257.61 256.21 257.61 256.54 256.78"/><polygon class="cls-22" points="227.89 257.61 256.21 257.61 264.73 236.54 236.46 236.54 227.89 257.61"/><path class="cls-26" d="M249.06,247.07a1,1,0,0,0-1-1.34,1.93,1.93,0,0,0-1.73,1.34,1,1,0,0,0,1,1.34A1.93,1.93,0,0,0,249.06,247.07Z"/><path class="cls-13" d="M525.64,343.34s13.72,13.89,14.42,19.65S533,377.75,533,377.75Z"/><path class="cls-27" d="M517.8,500.62s-.53,8.12-2.11,8.24c-.21,0-8,0-8,0l-10-.07a3.22,3.22,0,0,1,3-2.89c2.92-.5,7.8-2.52,9.57-6.35C512.13,495.52,517.8,500.62,517.8,500.62Z"/><path class="cls-27" d="M540,500.67s-.52,8.12-2.1,8.23c-.21,0-8,0-8,0l-10-.08a3.23,3.23,0,0,1,3-2.88c2.91-.5,7.79-2.53,9.57-6.35C534.32,495.57,540,500.67,540,500.67Z"/><path class="cls-28" d="M507,413.29s2.57,16.58,12.23,46,11,42.19,11,42.19l10.43-.27s.16-32.15-4.29-47-.85-53.34-.85-53.34Z"/><path class="cls-29" d="M501.9,401.76a400.44,400.44,0,0,0,3.86,55.66c4.27,30.68,2.77,43.69,2.77,43.69l10.41.37s6.29-30.67,4.54-46,8.63-52.66,8.63-52.66Z"/><path class="cls-19" d="M522.18,343.35,516.62,347l-8-1.51c.11-.64.65-3.31,1.14-5.72,0-.14.06-.29.08-.42l.78-3.82,7.49-3.27,2.8-1.22s-.22,2.28-.25,2.61A18.82,18.82,0,0,0,522.18,343.35Z"/><path class="cls-13" d="M510.67,341.5c.16-.06,9.66-2.83,10.69-2.49s1.64,2.33,1.64,2.33l-15.54,3.46A7.73,7.73,0,0,1,510.67,341.5Z"/><path class="cls-10" d="M536.11,404.92c-1.63,7.3-28.42,8.11-35.31,1.46-.78-.75-.81-4.27-.51-9,.6-9.26,2.49-23.18,2.58-30.3A55.8,55.8,0,0,1,504,356.93a82.15,82.15,0,0,1,3.42-12.13s13.09-4.18,15.54-3.46C534.79,344.81,537.73,397.62,536.11,404.92Z"/><path class="cls-13" d="M500.29,397.37c.6-9.26,2.49-23.18,2.58-30.3A55.8,55.8,0,0,1,504,356.93l7.87-1.36S520.59,388.74,500.29,397.37Z"/><path class="cls-19" d="M504.58,384.47a1.83,1.83,0,0,1-.59,2.13,3.59,3.59,0,0,0-1.61,3.26c.26,1,2.72,2.67,3.58,2.41s2.61-1.6,2.42-2.14,1.18-4.69-.9-6.29S504.58,384.47,504.58,384.47Z"/><path class="cls-10" d="M513.26,343.37s-7.47,1-13.6,9.93-10.18,15.6-9.06,18.84S502,386.6,503.74,386.6s4.63-1.27,4.8-4.15c0,0-6.49-11.46-5.07-13.07.61-.69,8.69-7.09,9.94-3.89C515.47,370.79,513.26,343.37,513.26,343.37Z"/><path class="cls-30" d="M520.08,333.71c-1.65,2.76-7.78,5.14-10.33,6,0-.14.06-.29.08-.42l.78-3.82,7.49-3.27C519.76,332.2,520.77,332.57,520.08,333.71Z"/><path class="cls-19" d="M507.79,335s12.05,3.76,14.29-3.73,5.31-12.07-2.29-14.79-9.95-.3-11.31,2S504.71,333.85,507.79,335Z"/><path class="cls-28" d="M509,317.81s.75,8.73,2.57,8.35,3.46-.65,3.19,2-2.8,5.67,2.8,6.15,13.67-13.86,12.14-16.58C525.23,309.86,502.56,308.23,509,317.81Z"/><rect class="cls-31" x="2.47" y="508.51" width="650" height="1.77" rx="0.64"/></svg>