<svg id="Layer_1" data-name="Layer 1" xmlns="http://www.w3.org/2000/svg" xmlns:xlink="http://www.w3.org/1999/xlink" viewBox="0 0 654 654"><defs><style>.cls-1{fill:url(#linear-gradient);}.cls-2{fill:#f6b07e;}.cls-3{fill:#f39548;}.cls-4{fill:#efa26f;}.cls-5{fill:#f8be96;}.cls-6{fill:#2b488b;}.cls-7{fill:#c2d6f0;}.cls-8{fill:#cbdff4;}.cls-9{fill:#fad1b5;}.cls-10{fill:#ed7d2b;}.cls-11{fill:#dce8f7;}.cls-12{fill:#6f98d0;}.cls-13{fill:#9bbce4;}.cls-14{fill:#dfeaf8;}.cls-15{fill:#9fbfe6;}.cls-16{fill:#fff;}.cls-17{fill:#d1e1f4;}</style><linearGradient id="linear-gradient" x1="327.09" y1="654" x2="327.09" y2="1.68" gradientUnits="userSpaceOnUse"><stop offset="0.43" stop-color="#a9bed0"/><stop offset="0.84" stop-color="#eff6f6"/></linearGradient></defs><rect class="cls-1" x="0.18" y="1.68" width="653.82" height="652.32"/><path class="cls-2" d="M394.1,338.2s-29.92,59.85-60.31,101.17c-12.09,16.44-24.26,29.95-34.64,35.58-10.17,5.51-18.78,14.08-25.9,23.57-18.44,24.57-26.95,55.33-26.95,55.33L168.59,436.27s2.65-114.92,12-134.15c13.6-28,20.17-84.62,25.39-95.89,3.88-8.36,14.95-51.54,16-54.71.46-1.37,4.14-3.47,8.92-3.46,3.84,0,10.36,3.71,12,11.33,8.31,38.53-1.69,64-1.58,65.08,2.94,29.61-5.88,51.59.3,57.41.23.22.66.12,1.26-.27,10.72-6.88,77.21-103.82,85.4-105.91C336.92,173.49,394.1,338.2,394.1,338.2Z"/><path class="cls-3" d="M269.68,530.58s-1.06,52.25-4.09,122.61h-196c44.81-95.55,83.77-176,83.77-176S264.94,480.63,269.68,530.58Z"/><path class="cls-2" d="M462.05,135.63,438,170.91l-23.61,34.63a5.4,5.4,0,0,1-4.91,2.16c-5.67-.53-12.68-8.71-18.15-13.23l-.55-.46a17,17,0,0,1-2.26-23.93l36.09-43.63h0L435.3,113.5a17,17,0,0,1,23.93-2.26l.56.45A17.06,17.06,0,0,1,462.05,135.63Z"/><path class="cls-4" d="M438,170.91l-23.61,34.63a5.4,5.4,0,0,1-4.91,2.16l15.13-81.25C424.62,126.9,427.2,163.36,438,170.91Z"/><path class="cls-4" d="M333.79,439.37c-12.09,16.44-24.26,29.95-34.64,35.58-10.17,5.51-18.78,14.08-25.9,23.57-8.19-3.82-17.52-8.3-26.65-12.74-11.11-5.4-11.54-21.18-.65-27l.31-.17c10.2-5.84,20.65-26.44,20.65-26.44Z"/><path class="cls-5" d="M221.43,153.3l-6.3,25.43s5.5,2.25,9,.5S230.59,154.67,221.43,153.3Z"/><rect class="cls-6" x="242.89" y="105.33" width="183.83" height="346.05" rx="25.43"/><path class="cls-7" d="M417.62,131.84V422.56a17.93,17.93,0,0,1-17.8,17.93h-130A17.92,17.92,0,0,1,252,422.56V131.84a17.91,17.91,0,0,1,17.79-17.93h130A17.92,17.92,0,0,1,417.62,131.84Z"/><path class="cls-8" d="M399.82,113.91,271.41,440.49H269.8A17.92,17.92,0,0,1,252,422.56V131.84a17.91,17.91,0,0,1,17.79-17.93Z"/><rect class="cls-6" x="299.59" y="107.36" width="70.43" height="17.36" rx="8.45"/><path class="cls-2" d="M450.07,268.86l-3.59,1.37-24.13,9.17a16.07,16.07,0,0,1-1.71.54,16.47,16.47,0,0,1-19.49-10.07l-.36-.92a16.5,16.5,0,0,1,9.53-21.21l22.5-8.55,1.63-.62,3.59-1.36a16.48,16.48,0,0,1,21.2,9.52l.35.93A16.47,16.47,0,0,1,450.07,268.86Z"/><path class="cls-9" d="M430.47,269.42c-4,1.52-11.32,4.23-15.22,4.79-1.1.16-3.14-.44-5-2.52a14.81,14.81,0,0,1-3-5.47,17.32,17.32,0,0,1-.82-3.49,14.87,14.87,0,0,1,.13-4.16,4.14,4.14,0,0,1,2.3-3h0a94.9,94.9,0,0,1,14.64-5.74c3.38-.94,6.81.56,7.88,3.52l.51,1.39,2.59,7.09C435.5,264.81,433.76,268.18,430.47,269.42Z"/><path class="cls-5" d="M430.47,269.42c-4,1.52-11.32,4.23-15.22,4.79-1.1.16-3.14-.44-5-2.52-.21-.47-.39-1-.57-1.5a17.32,17.32,0,0,1-.82-3.49,14.87,14.87,0,0,1,.13-4.16,4.14,4.14,0,0,1,2.3-3h0a94.9,94.9,0,0,1,14.64-5.74,6.94,6.94,0,0,1,5.92.94l2.59,7.09C435.5,264.81,433.76,268.18,430.47,269.42Z"/><rect class="cls-2" x="406.43" y="282.24" width="40.6" height="23.5" rx="10.66" transform="matrix(0.96, -0.26, 0.26, 0.96, -62.24, 122.42)"/><path class="cls-9" d="M429.05,301.88c-3.41.91-9.59,2.52-12.83,2.7-1.18.07-3.54-.93-5.08-4a12.49,12.49,0,0,1-.95-2.62,12.29,12.29,0,0,1-.42-2.74,10.7,10.7,0,0,1,.42-3.18,3.32,3.32,0,0,1,2.1-2.13h0a83.72,83.72,0,0,1,12.43-3.46c2.85-.5,5.54.87,6.21,3.21l.48,1.68,1.44,5C433.53,298.66,431.85,301.14,429.05,301.88Z"/><path class="cls-5" d="M429.05,301.88c-3.41.91-9.59,2.52-12.83,2.7-1.18.07-3.54-.93-5.08-4a11.82,11.82,0,0,1-.38-2.56,10.76,10.76,0,0,1,.42-3.19,3.34,3.34,0,0,1,2.1-2.13h0a82.52,82.52,0,0,1,12.43-3.47,5.63,5.63,0,0,1,5.7,2.1l1.44,5C433.53,298.66,431.85,301.14,429.05,301.88Z"/><path class="cls-10" d="M134.24,516.86s38.31,36.69,64.13,50.85l19.56-13.86V574.3s38.45,6.8,50.58,0V518.51l-108-54.14Z"/><path class="cls-11" d="M276.67,569.86c-14.88,3.06-47-8.63-47-8.63l5.17-50-36.23,41.5c-18.44-6.86-47.28-24.77-64.41-35.91-8.54-5.55-14.17-9.42-14.17-9.42,24.18-38.91,48.51-75.3,48.51-75.3,7.13,14.28,24,26.68,42.35,36.6,30.44,16.48,64.8,26.12,64.8,26.12C275.73,524.54,276.67,569.86,276.67,569.86Z"/><path class="cls-2" d="M449.48,233.2l-.4.13-24.4,6.27c-10.73,2.76-21.82-3-24.65-12.9l-1.46-5c-2.72-9.46,3.13-19.35,13.1-22.55l8.06-2.07,16.34-4.2c10.73-2.75,21.82,3,24.66,12.9l1.45,5.05C464.86,220.11,459.2,229.85,449.48,233.2Z"/><path class="cls-9" d="M438.3,226.39l-11.85,5.34-.08,0a14.49,14.49,0,0,1-1.43.29l-.6.08h-.25a1.88,1.88,0,0,1-1.64-2.66,11.77,11.77,0,0,0,.67-8l-.28-1v0l-.92-3.37a12.62,12.62,0,0,0-4.29-6.55c-.25-.2-.5-.38-.75-.56a3.4,3.4,0,0,1,1-6.06l.08,0,13-2c3.21-.87,6.31,1.6,7.19,4.82l1,3.83,2.23,8.17C442.28,221.87,441.52,225.51,438.3,226.39Z"/><path class="cls-5" d="M438.3,226.39l-11.85,5.34-.08,0-2.28.37a1.88,1.88,0,0,1-1.64-2.66,11.77,11.77,0,0,0,.67-8l-.28-1v0l-.92-3.37a12.62,12.62,0,0,0-4.29-6.55,3.28,3.28,0,0,1,1.86-1.33l.08,0,13-2c2.7-.73,5.32.91,6.61,3.36l2.23,8.17C442.28,221.87,441.52,225.51,438.3,226.39Z"/><path class="cls-4" d="M242.89,360.11s-5.32-46.47-10.23-55.53-9.07-27.2-1.51-40.68,10.16-39.43,10.16-39.43c2.94,29.61-5.88,51.59.3,57.41.23.22.66.12,1.26-.27Z"/><rect class="cls-12" x="165.31" y="187.16" width="208.09" height="97.27" rx="12.2"/><rect class="cls-13" x="281" y="141.67" width="91.79" height="33.16" rx="10.21"/><rect class="cls-13" x="264.85" y="377.06" width="106.7" height="40.91" rx="12.22"/><rect class="cls-3" x="299.57" y="301.38" width="106.7" height="58.73" rx="14.64"/><path class="cls-2" d="M615.12,653.22H471.36c-6.89-4.63-42.69-29.05-57.51-47.25-3.14-3.86-14.62-37.11-23.45-64.11-5.5-16.86-10-31.29-10.74-34.6a44.08,44.08,0,0,1-.54-6.53v0c-.37-11,.14-32.33.67-49.24v-.3c0-.75.05-1.48.07-2.2v0a1.7,1.7,0,0,1,0-.22c.09-2.93.19-5.7.27-8.22.23-6.29.41-11,.49-12.88l0-.86h0c.23-.12,7.14-3.82,16.39,2.84,2.23,1.61,4.29,5.5,6.17,10.57,1.2,3.24,2.33,7,3.38,10.88,4,15.07,6.94,33.09,8.48,37.91,2.5,7.8,31.89,42.08,33.73,44.22l.08.1V479.12l-22.19-59.38-9.1-24.37L413,383.12a221,221,0,0,1-12.91-25.4A120.23,120.23,0,0,1,393.72,339c-.35-1.48-.64-2.94-.88-4.37h0c-.87-5.24-.93-10.09.28-14.05,2.14-7,7-8.36,10.7-8.22q.57,0,1.11.09a6.53,6.53,0,0,1,1.07.21,7.31,7.31,0,0,1,1.85.77h0a7.53,7.53,0,0,1,2.41,2.26s3.14,4.09,7.35,9.6c2.76,3.63,6,7.86,9.1,11.94,5.54,7.27,10.67,14.06,12.09,16C446.44,364,467,399,467,399l24.07,1a16,16,0,0,1,10.22,4.28c8.56,8,27,25.28,29.27,27.85,0,.85,14.33,7.74,25.41,13.88,7.92,3.35,23,15.21,23,15.21,3.11,2.75,5.49,5.49,6.69,8.11,5.16,11.23,19.15,108.88,25.84,157.15C613.62,642,615,652.41,615.12,653.22Z"/><path class="cls-4" d="M467,399s22.29,36.39,25.24,38S506.66,441,508,437,467,399,467,399Z"/><path class="cls-4" d="M579,461.32l-.11-.1s-15-11.86-23-15.21c-10.17-5.64-23.08-11.91-25.13-13.55,2.36,2.7,19,21.48,25.35,22.89C561.79,456.59,574.53,460.07,579,461.32Z"/><path class="cls-4" d="M448.91,533.26V479.12s12.87,21.51,13.85,33.31S457.42,543.34,448.91,533.26Z"/><path class="cls-9" d="M402.24,334.57c-1.88-3.23-5.24-9.07-6.4-12.34a6.15,6.15,0,0,1,.85-4.75,10.69,10.69,0,0,1,3.37-3.5,10.93,10.93,0,0,1,2.37-1.28,9,9,0,0,1,3-.56,3.24,3.24,0,0,1,2.59,1.5s0,0,0,0a93.07,93.07,0,0,1,7,11.69c1.33,2.77.91,6-1,7.37l-.9.66-4.63,3.38C406.55,338.16,403.78,337.21,402.24,334.57Z"/><path class="cls-5" d="M402.24,334.57c-1.88-3.23-5.24-9.07-6.4-12.34a6.15,6.15,0,0,1,.85-4.75,11.35,11.35,0,0,1,1-.73,10.9,10.9,0,0,1,2.37-1.28,9.45,9.45,0,0,1,3-.56,3.22,3.22,0,0,1,2.59,1.51h0a94.25,94.25,0,0,1,7,11.69,7.1,7.1,0,0,1,.47,5.26l-4.63,3.38C406.55,338.16,403.78,337.21,402.24,334.57Z"/><rect class="cls-14" x="483.24" y="142.13" width="58.97" height="53.65" rx="15.14"/><path class="cls-3" d="M497.05,168.52c1.64,4.32,15.68,15.65,15.68,15.65s4.58-3.71,8.81-7.72c3.18-3,6.14-6.08,6.84-7.93,1.67-4.29-.1-10.43-6.24-11.47s-9.41,5.36-9.41,5.36-3.3-6.4-9.44-5.36a8.58,8.58,0,0,0-2.81,1C496.66,160.17,495.7,165,497.05,168.52Z"/><path class="cls-14" d="M43.16,335.52h90.28a13.13,13.13,0,0,1,13.09,13.09v39.6a12.05,12.05,0,0,1-12,12h-2.32l4.35,18.38-27.31-18.38H42.38A13.12,13.12,0,0,1,29.3,387.16V349.37A13.9,13.9,0,0,1,43.16,335.52Z"/><path class="cls-8" d="M40.74,364.27h94.13a2.34,2.34,0,0,0,2.33-2.33h0a2.34,2.34,0,0,0-2.33-2.33H40.74a2.34,2.34,0,0,0-2.34,2.33h0A2.34,2.34,0,0,0,40.74,364.27Z"/><path class="cls-8" d="M40.74,374.71h94.13a2.34,2.34,0,0,0,2.33-2.34h0a2.34,2.34,0,0,0-2.33-2.33H40.74a2.34,2.34,0,0,0-2.34,2.33h0A2.34,2.34,0,0,0,40.74,374.71Z"/><path class="cls-8" d="M40.74,385.14h94.13a2.34,2.34,0,0,0,2.33-2.33h0a2.34,2.34,0,0,0-2.33-2.33H40.74a2.34,2.34,0,0,0-2.34,2.33h0A2.34,2.34,0,0,0,40.74,385.14Z"/><path class="cls-8" d="M92,348.06h40a2.78,2.78,0,0,0,2.77-2.77h0a2.78,2.78,0,0,0-2.77-2.78H92a2.78,2.78,0,0,0-2.77,2.78h0A2.78,2.78,0,0,0,92,348.06Z"/><rect class="cls-8" x="55.48" y="342.51" width="28.43" height="5.55" rx="2.3" transform="translate(139.4 690.58) rotate(180)"/><polygon class="cls-15" points="496.8 355.61 553.58 374.18 519.57 341.02 516.11 349.12 501.5 349.19 496.8 355.61"/><polygon class="cls-16" points="553.58 374.18 509.51 340.65 462.42 329.89 553.58 374.18"/><polygon class="cls-16" points="519.57 341.02 553.58 374.18 530.91 327.73 519.57 341.02"/><polygon class="cls-15" points="161.95 144.06 108.87 151.64 144.1 127.63 145.89 135.32 158.79 137.66 161.95 144.06"/><polygon class="cls-16" points="108.87 151.64 153.04 128.86 196.33 126.69 108.87 151.64"/><polygon class="cls-16" points="144.1 127.63 108.87 151.64 136.14 114.11 144.1 127.63"/><path class="cls-16" d="M245.28,232.12a30,30,0,0,1-6.26,18.4,30.47,30.47,0,0,1-4.4,4.61,30.15,30.15,0,1,1,10.66-23Z"/><path class="cls-6" d="M227.24,246.38a3,3,0,0,0-.23-.26,4.26,4.26,0,0,0-2.09-.67c-.71-.12-1.69-.26-3.09-.44l-.46,0-.35,0c-.4-.21-.5-1.87-.5-3.62,0-.13,0-.26,0-.39,0-.66,0-1.32.05-1.9v-.11c.86.07,1.44.06,1.44.06,1.6-.13,2.61-4.43,3-7.91a11.8,11.8,0,0,0,.79-4,5.14,5.14,0,0,0-1-3.32,4.32,4.32,0,0,0-1.13-1l-.3-.28c-1.5-1.66-7.57-7.88-11.56-4.28-.1-.36-1.4-4.4-7.69-3.08.39,0,3.18-.3,4,.83-.11-.05-2.55-1.13-4.08-.19a3.74,3.74,0,0,0-1.4,2.28h0v0h0v0c0,.13-.06.26-.08.39s0,0,0,.06h0a6.3,6.3,0,0,0-.07,2.38c.23,1,2,3.91,3.11,3.91a3.46,3.46,0,0,0,1.32-.32,14,14,0,0,0-.47,1.71c-1.22,5.75,2.6,10.11,4.57,9,1.27-.69,2.23,1.53,2.23,1.53h0c-.19,4.2-1.34,6.94-2.2,7.63-.31,0-1,.11-1.8.25h0A20.77,20.77,0,0,0,204,246l-.05,0a5.09,5.09,0,0,0-1.26.7h0a1.8,1.8,0,0,0-.41.42,1.62,1.62,0,0,0-.13.19,34.38,34.38,0,0,0-2.2,6,25.57,25.57,0,0,0,31.8-1A16,16,0,0,0,227.24,246.38Z"/><rect class="cls-16" x="263.77" y="211.59" width="38.57" height="5.35" rx="2.27"/><path class="cls-16" d="M300.6,236.16H265.51a1.75,1.75,0,0,1-1.74-1.74h0a1.75,1.75,0,0,1,1.74-1.75H300.6a1.75,1.75,0,0,1,1.74,1.75h0A1.75,1.75,0,0,1,300.6,236.16Z"/><rect class="cls-16" x="263.77" y="240.92" width="22.63" height="3.49" rx="1.4"/><rect class="cls-16" x="291.82" y="240.92" width="35.6" height="3.49" rx="1.74"/><path class="cls-16" d="M355.88,236.16h-46a1.75,1.75,0,0,1-1.74-1.74h0a1.75,1.75,0,0,1,1.74-1.75h46a1.75,1.75,0,0,1,1.74,1.75h0A1.75,1.75,0,0,1,355.88,236.16Z"/><path class="cls-16" d="M300.6,252.66H265.51a1.74,1.74,0,0,1-1.74-1.74h0a1.74,1.74,0,0,1,1.74-1.74H300.6a1.74,1.74,0,0,1,1.74,1.74h0A1.74,1.74,0,0,1,300.6,252.66Z"/><path class="cls-16" d="M355.88,252.66h-46a1.74,1.74,0,0,1-1.74-1.74h0a1.74,1.74,0,0,1,1.74-1.74h46a1.74,1.74,0,0,1,1.74,1.74h0A1.74,1.74,0,0,1,355.88,252.66Z"/><rect class="cls-16" x="307.12" y="211.59" width="28.3" height="5.35" rx="1.94"/><rect class="cls-12" x="276.66" y="384.88" width="27.42" height="3.8" rx="1.61"/><path class="cls-12" d="M302.85,398.42h-25a1.25,1.25,0,0,1-1.24-1.24h0a1.25,1.25,0,0,1,1.24-1.24h25a1.25,1.25,0,0,1,1.24,1.24h0A1.25,1.25,0,0,1,302.85,398.42Z"/><rect class="cls-12" x="276.66" y="401.81" width="16.09" height="2.48" rx="1"/><rect class="cls-12" x="296.6" y="401.81" width="25.31" height="2.48" rx="1.24"/><path class="cls-12" d="M342.15,398.42h-32.7a1.24,1.24,0,0,1-1.24-1.24h0a1.24,1.24,0,0,1,1.24-1.24h32.7a1.25,1.25,0,0,1,1.24,1.24h0A1.25,1.25,0,0,1,342.15,398.42Z"/><path class="cls-12" d="M302.85,410.15h-25a1.24,1.24,0,0,1-1.24-1.23h0a1.24,1.24,0,0,1,1.24-1.24h25a1.24,1.24,0,0,1,1.24,1.24h0A1.24,1.24,0,0,1,302.85,410.15Z"/><path class="cls-12" d="M342.15,410.15h-32.7a1.23,1.23,0,0,1-1.24-1.23h0a1.23,1.23,0,0,1,1.24-1.24h32.7a1.24,1.24,0,0,1,1.24,1.24h0A1.24,1.24,0,0,1,342.15,410.15Z"/><rect class="cls-12" x="307.48" y="384.88" width="20.12" height="3.8" rx="1.38"/><rect class="cls-12" x="292.82" y="148.07" width="27.42" height="3.8" rx="1.61"/><path class="cls-12" d="M319,161.61H294.06a1.25,1.25,0,0,1-1.24-1.24h0a1.25,1.25,0,0,1,1.24-1.24H319a1.25,1.25,0,0,1,1.24,1.24h0A1.25,1.25,0,0,1,319,161.61Z"/><rect class="cls-12" x="292.82" y="165" width="16.09" height="2.48" rx="1"/><rect class="cls-12" x="312.76" y="165" width="25.31" height="2.48" rx="1.24"/><path class="cls-12" d="M358.3,161.61H325.6a1.25,1.25,0,0,1-1.24-1.24h0a1.25,1.25,0,0,1,1.24-1.24h32.7a1.24,1.24,0,0,1,1.24,1.24h0A1.24,1.24,0,0,1,358.3,161.61Z"/><rect class="cls-12" x="323.64" y="148.07" width="20.12" height="3.8" rx="1.38"/><rect class="cls-10" x="311.89" y="312.15" width="30.02" height="4.16" rx="1.76"/><path class="cls-10" d="M340.55,327h-27.3a1.36,1.36,0,0,1-1.36-1.36h0a1.36,1.36,0,0,1,1.36-1.36h27.3a1.36,1.36,0,0,1,1.36,1.36h0A1.36,1.36,0,0,1,340.55,327Z"/><rect class="cls-10" x="311.89" y="330.68" width="17.61" height="2.71" rx="1.09"/><rect class="cls-10" x="333.72" y="330.68" width="27.71" height="2.71" rx="1.36"/><path class="cls-10" d="M383.58,327h-35.8a1.36,1.36,0,0,1-1.36-1.36h0a1.36,1.36,0,0,1,1.36-1.36h35.8a1.36,1.36,0,0,1,1.36,1.36h0A1.36,1.36,0,0,1,383.58,327Z"/><path class="cls-10" d="M340.55,339.81h-27.3a1.36,1.36,0,0,1-1.36-1.35h0a1.36,1.36,0,0,1,1.36-1.36h27.3a1.36,1.36,0,0,1,1.36,1.36h0A1.36,1.36,0,0,1,340.55,339.81Z"/><path class="cls-10" d="M383.58,339.81h-35.8a1.36,1.36,0,0,1-1.36-1.35h0a1.36,1.36,0,0,1,1.36-1.36h35.8a1.36,1.36,0,0,1,1.36,1.36h0A1.36,1.36,0,0,1,383.58,339.81Z"/><path class="cls-10" d="M340.55,346.5h-27.3a1.36,1.36,0,0,1-1.36-1.36h0a1.36,1.36,0,0,1,1.36-1.35h27.3a1.36,1.36,0,0,1,1.36,1.35h0A1.36,1.36,0,0,1,340.55,346.5Z"/><path class="cls-10" d="M383.58,346.5h-35.8a1.36,1.36,0,0,1-1.36-1.36h0a1.36,1.36,0,0,1,1.36-1.35h35.8a1.36,1.36,0,0,1,1.36,1.35h0A1.36,1.36,0,0,1,383.58,346.5Z"/><rect class="cls-10" x="345.63" y="312.15" width="22.03" height="4.16" rx="1.51"/><path class="cls-16" d="M277.08,132.09l-1.86,1.33-1.86-1.31a2.28,2.28,0,0,1,3.72,0Z"/><path class="cls-16" d="M275.22,127.9a5.48,5.48,0,0,0-4.5,2.35l1.17.82a4.07,4.07,0,0,1,6.65,0l1.17-.85A5.52,5.52,0,0,0,275.22,127.9Z"/><path class="cls-16" d="M275.22,121.74a11.63,11.63,0,0,0-9.53,5l1.17.82a10.22,10.22,0,0,1,16.68-.06l1.17-.84A11.67,11.67,0,0,0,275.22,121.74Z"/><path class="cls-16" d="M275.22,125.11a8.34,8.34,0,0,0-6.8,3.52l1.18.82a6.9,6.9,0,0,1,11.22,0l1.17-.84A8.36,8.36,0,0,0,275.22,125.11Z"/><path class="cls-16" d="M264.82,328.35a11.79,11.79,0,0,0,2.46,7.22,11.4,11.4,0,0,0,1.73,1.81,12.52,12.52,0,0,0,2.06,1.41,11.85,11.85,0,0,0,12.38-.74l.29-.2a11.84,11.84,0,1,0-18.92-9.5Z"/><path class="cls-12" d="M279.87,335.94l-1.09-1-.27,0c-.2-.14-.41-.27-.64-.4.07-.44.13-.85.18-1.21a19.3,19.3,0,0,0,.19-2.15c.57,0,1-.09,1-.09,1.1-.26,1.15-4,.9-5.94a1.46,1.46,0,0,0,.61-.11c.83-.37.87-1.62.87-1.62a1.51,1.51,0,0,1-.59.59s1.38-1.9-.22-3.2-3.24-.45-4.17-.39c-2,.13-3.36.25-4,1.59s-.4,5,.86,6.31a2.38,2.38,0,0,1,.06.37A2.53,2.53,0,0,0,274,330a8.32,8.32,0,0,1-1.51,3.52,5.87,5.87,0,0,0-1.09,1.17l0,0h0a12,12,0,0,0-1.53,3.35v0a11,11,0,0,0,2.16,1.19l.15.06,0,0,.25.09.6.22.64.19.3.07.27.05h0l.17,0,.42.07h.1l.23,0,.33,0,.37,0,.35,0h1.13l.37,0a11.65,11.65,0,0,0,4.46-1.35A12.21,12.21,0,0,0,279.87,335.94Z"/><path class="cls-16" d="M381.09,397.18a11.87,11.87,0,0,0,2.48,7.27,12,12,0,0,0,1.74,1.83,11.94,11.94,0,0,0,14.83.46,12,12,0,0,0,4.8-9.56,11.93,11.93,0,0,0-23.85,0Z"/><path class="cls-3" d="M399.11,403.94a.47.47,0,0,0-.06-.09.89.89,0,0,0-.19-.2h0a2.69,2.69,0,0,0-.59-.33h0a9.7,9.7,0,0,0-2.39-.6l-.84-.11c-.4-.32-.93-1.6-1-3.56h0s.45-1,1-.71c.92.51,2.7-1.53,2.13-4.21a5.3,5.3,0,0,0-.22-.79,1.71,1.71,0,0,0,.62.15c.53,0,1.34-1.37,1.45-1.83s0-2-.74-2.42a2.4,2.4,0,0,0-1.9.09c.36-.52,1.61-.41,1.84-.39-2.92-.6-3.52,1.27-3.57,1.44-1.86-1.68-4.69,1.22-5.39,2l-.14.13a2.16,2.16,0,0,0-.52.47,2.39,2.39,0,0,0-.49,1.55,5.49,5.49,0,0,0,.37,1.86c.17,1.62.64,3.63,1.39,3.69,0,0,.27,0,.67,0v.05c0,.27,0,.58,0,.88v.19c0,.81,0,1.59-.23,1.68l-.16,0-.22,0c-.65.09-1.11.15-1.44.21a2,2,0,0,0-1,.31l-.11.12a7.37,7.37,0,0,0-2.11,2.77,11.94,11.94,0,0,0,14.83.46A15.81,15.81,0,0,0,399.11,403.94Z"/><path class="cls-16" d="M381.09,157.54a11.92,11.92,0,0,0,2.48,7.28,11.53,11.53,0,0,0,1.74,1.82,11.92,11.92,0,0,0,14.83.47,12.27,12.27,0,0,0,2.32-2.29,11.92,11.92,0,1,0-21.37-7.28Z"/><path class="cls-3" d="M399.11,164.3a.47.47,0,0,0-.06-.09,1.17,1.17,0,0,0-.19-.2h0a2.69,2.69,0,0,0-.59-.33h0a9.7,9.7,0,0,0-2.39-.6h0c-.39-.07-.69-.1-.84-.12a1.51,1.51,0,0,1-.3-.39h0a7.44,7.44,0,0,1-.72-3.17h0s.45-1,1-.72c.92.51,2.7-1.53,2.13-4.21a5.3,5.3,0,0,0-.22-.79,1.71,1.71,0,0,0,.62.15c.53,0,1.34-1.37,1.45-1.83s0-2-.74-2.42a2.45,2.45,0,0,0-1.9.09c.36-.51,1.62-.41,1.84-.39-2.92-.6-3.52,1.27-3.57,1.44-1.86-1.68-4.69,1.22-5.39,2l-.14.13a1.8,1.8,0,0,0-.52.47,2.35,2.35,0,0,0-.49,1.55,5.47,5.47,0,0,0,.37,1.85c.17,1.62.64,3.63,1.39,3.69,0,0,.27,0,.67,0v.05c0,.27,0,.58,0,.89v.18c0,.82,0,1.59-.23,1.69h-.16l-.22,0c-.65.09-1.11.15-1.44.21a2,2,0,0,0-1,.31l-.11.12a7.37,7.37,0,0,0-2.11,2.77l.35.29.06,0,.26.2.19.14.2.13a2.9,2.9,0,0,0,.29.19l.2.13.25.14.28.16h.05a.05.05,0,0,0,0,0l.22.12h0l.07,0,.12.06.13.06.29.13.29.12.14.05.13,0,.28.1.28.09.25.08h0l.16.05c.28.08.57.14.87.2l.38.07h.14l.25,0h.09l.23,0H392l.42,0H393a11.89,11.89,0,0,0,7.12-2.36A16.26,16.26,0,0,0,399.11,164.3Z"/><path class="cls-4" d="M542.9,631,500,653.22H471.36c-6.89-4.63-42.69-29.05-57.51-47.25-3.14-3.86-14.62-37.11-23.45-64.11h0c1.18,3.59,25.8,56,32.82,62s43.82,40.67,54,40.32c9.85-.34,62.29-12.41,65.54-13.15Z"/><path class="cls-17" d="M629.3,653.22H474.48c7.76-3.05,37.47-14.4,68.27-22.2l.15,0c26.44-6.69,53.67-10.74,68.46-4.66l.1.16Z"/><path class="cls-4" d="M379.87,448.71h0c2.61-1,6.28-1.59,8.06,1.39,2.77,4.63-7.53,45.49-8.82,50.63Z"/><path class="cls-5" d="M380.67,426.74l-.88,24.72s5.19.84,8.15-1.36S389.33,426.45,380.67,426.74Z"/><path class="cls-8" d="M276.67,569.86c-14.88,3.06-47-8.63-47-8.63l5.17-50-36.23,41.5c-18.44-6.86-47.28-24.77-64.41-35.91,43.9-4.79,76.69-48.12,76.69-48.12,30.44,16.48,64.8,26.12,64.8,26.12C275.73,524.54,276.67,569.86,276.67,569.86Z"/><path class="cls-3" d="M174.57,524.49a6,6,0,1,1,6,6.09A6,6,0,0,1,174.57,524.49Z"/></svg>