<svg id="Layer_1" data-name="Layer 1" xmlns="http://www.w3.org/2000/svg" xmlns:xlink="http://www.w3.org/1999/xlink" viewBox="0 0 654 654"><defs><style>.cls-1{fill:url(#linear-gradient);}.cls-2{fill:#e8f2fa;}.cls-3{opacity:0.3;}.cls-4{fill:#acbfe3;}.cls-5{fill:#c9def4;}.cls-6{fill:#abcaeb;}.cls-7{opacity:0.5;}.cls-8{opacity:0.2;}.cls-9{fill:#f5a977;}.cls-10{fill:#25468f;}.cls-11{fill:#1f3865;}.cls-12{fill:#90adda;}.cls-13{fill:#f18e37;}.cls-14{fill:#ed750f;}.cls-15{fill:#f29053;}.cls-16{fill:#5b6cb0;}.cls-17{opacity:0.9;}.cls-18{fill:#fff;}.cls-19{opacity:0.8;}.cls-20{fill:#f29154;}.cls-21{fill:#182843;}.cls-22{fill:#1b3660;}.cls-23{fill:#e96426;}.cls-24{fill:#ee783e;}.cls-25{fill:#f8bc96;}.cls-26{fill:#2c3454;}</style><linearGradient id="linear-gradient" x1="327.09" y1="654" x2="327.09" y2="1.68" gradientUnits="userSpaceOnUse"><stop offset="0.43" stop-color="#a9bed0"/><stop offset="0.84" stop-color="#eff6f6"/></linearGradient></defs><rect class="cls-1" x="0.18" y="1.68" width="653.82" height="652.32"/><path class="cls-2" d="M71.77,557.9s-81.1-104.67,3.48-195.79c94-101.28,5.18-214.59,98.84-254.93,132.08-56.89,155.75,55.62,303.66,27.73,123.5-23.29,120.88,158.69,84.38,223.63-30.27,53.85,86.37,80.53,26.67,199.12Z"/><g class="cls-3"><path class="cls-4" d="M378.59,278s12.81-62.33,61.89-70.56c0,0,9.55-1.46,13,9S438,227.58,426.31,232.17,387.71,255.55,378.59,278Z"/></g><g class="cls-3"><path class="cls-4" d="M377.14,266.49s-6.61-51.13,28.82-70.37c0,0,6.93-3.63,12.37,3.46s-9,12.6-16.72,19.19S378.19,246.86,377.14,266.49Z"/></g><path class="cls-5" d="M178.11,247.79c6-17.1,35-9.48,35-9.48s17.75,32,23.51,33.16-9.83-30.33-9.83-30.33c11.35-.26,39,15.67,39,15.67s-4.44,35.49,1.43,35.19,2.33-31.62,2.33-31.62c10.66,4.07,19.9,17.54,19.9,17.54,11.2,21.66-17.18,34.92-17.18,34.92s-1.28,12.33,5.31,27.07h0a42.27,42.27,0,0,1,3,7.32l-3-.22c-.18-.81-.39-1.6-.63-2.36v0c-.17-.47-.41-1.15-.72-2h0c-.78-1.85-1.3-3.2-1.62-4.18h0c-2.31-5.78-5.69-13.34-8.2-15.06a5.56,5.56,0,0,0,.74-1.32l-.74,1.32C260.58,333.9,235,333.84,221,329.89s-7.49-7.49.62-13.42,24-3,28.89-5.24-1.8-5.25-11.31-5.22-14.92,9.14-30.3,9.47-24.89-29.24-24.89-29.24c10.3,4,29.63-.38,30.63-4s-27-5.28-31.31-6.69S172.1,264.89,178.11,247.79Z"/><path class="cls-6" d="M133.6,516.57C123.07,498.21,152,478.35,152,478.35s41.84,8.75,47.25,4.53-34.3-14.45-34.3-14.45c8.43-10.24,43.65-22.57,43.65-22.57s28,31,32.19,25.6-26.17-26.2-26.17-26.2c11.74-6.31,30.7-4.2,30.7-4.2C273,447.69,263,482.9,263,482.9s9.93,10.54,28,16h0a48.83,48.83,0,0,1,8.73,3l-2.46,2.46c-.86-.46-1.72-.88-2.58-1.24h0l0,0c-.54-.21-1.33-.51-2.29-.86h0c-2.22-.72-3.82-1.3-4.92-1.76h0c-6.88-2.37-16.15-5.14-19.57-4.24a6.56,6.56,0,0,0-.61-1.66c.2.53.4,1.08.61,1.66,4.81,13.24-14.76,35.81-28.91,45.14s-12.34.9-11.39-10.8S243.16,507,245,501s-6-2.41-13.25,6-3.31,20.17-14.75,34-44.85-.32-44.85-.32c11.44-6,22.28-26.48,19.87-30.09s-25.29,19.86-29.8,22.57S144.13,534.94,133.6,516.57Z"/><g class="cls-7"><path class="cls-6" d="M536.81,271.72c-2-19-33.74-18.22-33.74-18.22s-26,28.61-32.18,28.4,17.43-28.8,17.43-28.8c-11.6-3-43.92,6.66-43.92,6.66s-4,37.56-10,35.83,5.26-33.07,5.26-33.07C427.72,264.13,415,275.74,415,275.74c-16.74,19.55,9.23,40.05,9.23,40.05s-1.67,13-12,26.54h0a44.33,44.33,0,0,0-4.81,6.81l3.11.5a24.65,24.65,0,0,1,1.23-2.28h0l0,0,1.22-1.85h0c1.25-1.7,2.11-3,2.67-3.9h0c3.77-5.39,9.08-12.34,12.07-13.5a6,6,0,0,1-.44-1.53l.44,1.53c3.51,12.25,29.82,18.38,45.12,17.69s9.51-5.89,2.61-14-23.91-8.92-28.43-12.37,3.12-5,12.89-2.62,13.13,13,28.85,17,32.66-24,32.66-24c-11.56,1.67-30.36-7.55-30.52-11.47s29,1.11,33.8.69S538.85,290.75,536.81,271.72Z"/></g><g class="cls-8"><path class="cls-6" d="M553.46,503.23c21-17.23-4.63-54.21-4.63-54.21s-54.16-8.58-58.74-16.1,47.74-1.71,47.74-1.71c-5.45-16.12-42.08-47-42.08-47s-47.7,24.45-50.29,16,43.34-19.5,43.34-19.5c-11.21-12.93-34.92-19-34.92-19-36.23-4.66-40.35,42.11-40.35,42.11s-16.71,8.11-40.84,6.39h0a62.76,62.76,0,0,0-11.83-.4l1.83,4.07c1.25-.16,2.47-.27,3.66-.32h3.24c3,.14,5.17.17,6.71.12h0c9.33.29,21.71,1.18,25.41,3.82a9.18,9.18,0,0,1,1.48-1.71c-.47.55-1,1.12-1.48,1.71-11.8,13.7,1.39,49.69,14.12,67.32s14.39,6.71,18.58-7.76-8-35.32-7.44-43.36,8.31-.15,13.14,13.25-5.2,25.7,2.21,47.52,53.94,20.05,53.94,20.05c-11-12.43-14.66-41.91-10.12-45.15s21.28,35.34,25.47,40.65S532.46,520.47,553.46,503.23Z"/></g><g id="man"><path class="cls-9" d="M230.69,374c-1,2.68-2.73,5.79-4.54,6.56a7.06,7.06,0,0,0-2.92,2.12l-1.66-1-2-1.16s0-.22.15-.57.24-.86.44-1.41a1.91,1.91,0,0,0,.24-1.76,4.07,4.07,0,0,1,.34-3.43c.63-.92,1.24-3.2,1.63-3.13.92.16-.46,3.29-.06,3.87a.69.69,0,0,0,.89.3h0c2.61-1.15,5.76-7.31,7.16-6.48C230.91,368.21,231.11,372.81,230.69,374Z"/><rect class="cls-10" x="220.01" y="369.97" width="15.54" height="5.01" rx="0.51" transform="translate(-207.93 344.67) rotate(-54.9)"/><rect class="cls-11" x="222.32" y="372.54" width="15.54" height="3.11" rx="0.39" transform="translate(-208.28 347.24) rotate(-54.9)"/><path class="cls-12" d="M174.94,360.64s16.58,28.92,22.6,34.24l22.05-16.44a8,8,0,0,1,4.6,4.19s-13.39,27.29-26.57,28.44-31.7-32.7-31.7-32.7Z"/><path class="cls-11" d="M137.42,557.33h-9.58a5.85,5.85,0,0,1-2.62-4.39c-.46-3.09-3.92-4.77-4.67-7.3s3.08-6.07,3.08-6.07l.65-.83.66-.86,6.36,1.5s.16,1.51.25,3.44a43.21,43.21,0,0,1,0,4.41c-.18,3.37.94,7,3.93,7.65C137.73,555.36,137.63,556.67,137.42,557.33Z"/><path class="cls-11" d="M193,557.33H171.11c-1.05-1.29-.66-6-.5-7.58,0-.32,0-.5,0-.5s7.48-6,8.51-1.4c0,.14.07.28.11.42,1.3,4.29,7.1,6.24,10.46,6.78A3.79,3.79,0,0,1,193,557.33Z"/><path class="cls-13" d="M188.85,435s-1.14,14.17-2.48,31.21c-1.81,23.14-4,51.57-4.21,57-.37,9.35-1.87,24.31-1.87,24.31s-3.55,3.56-10.66,2.06a244.84,244.84,0,0,1-8.14-44c0-.37-.06-.74-.08-1.11-1.69-23-4.3-71.43-4.3-71.43Z"/><path class="cls-14" d="M188.85,435s-1.14,14.17-2.48,31.21l-24.88,39.37c0-.37-.06-.74-.08-1.11-1.69-23-4.3-71.43-4.3-71.43Z"/><path class="cls-13" d="M183.66,436.72s-20.48,51.33-33.94,75.45S132.05,543,132.05,543s-7.71-3.09-8.42-5.19c0,0,5.15-46.57,14.17-57.92,5.09-6.42,11.08-25.67,11.36-32.4s1.82-20,1.82-20Z"/><path class="cls-9" d="M178.56,361.9c-8,2.52-21.84-4.29-21.84-4.29s7.37-5.54,7-17.05l6.18,5,4.2,3.39a48.86,48.86,0,0,1-.47,5.5c-.12.92.92,2.95,1.82,4.09C177.86,361.59,178.56,361.9,178.56,361.9Z"/><path class="cls-15" d="M174.09,348.93a48.86,48.86,0,0,1-.47,5.5c-4.66-.8-9.94-8.33-9.94-8.33a14.93,14.93,0,0,1,6.21-.56Z"/><path class="cls-9" d="M176.54,348.74s-13.21,2.2-14.45-6.05-3.79-13.53,4.6-15.28,10.5,1.15,11.59,3.8S180,348,176.54,348.74Z"/><path class="cls-4" d="M189.73,436.22a1.29,1.29,0,0,1-.84.32c-3,0-11.77,1.63-19.18.87A55,55,0,0,1,152,432.29c-.79-.35-2.61-1.32-2.57-2.2s.12-2.37.24-4.13a220,220,0,0,0,.44-28.85c-.13-2.26-.19-4.51-.2-6.72-.06-16.49,3.21-31,9.78-35.91.56-.4,4,1.29,7.17,2.85a13.11,13.11,0,0,0,8.61,1l2.77,2.44a27.68,27.68,0,0,1,8.65,13.83c1.37,5.48,2.17,15.38,2.61,25.64.2,4.65.36,9.34.4,13.78v.16c0,.44,0,.93,0,1.37C190.09,427,189.93,436.06,189.73,436.22Z"/><path class="cls-12" d="M149.66,426a220,220,0,0,0,.44-28.85c-.13-2.26-.19-4.51-.2-6.72,2.74-6.64,5-11.46,5-11.46h6.9S166.83,413.48,149.66,426Z"/><rect class="cls-11" x="117.46" y="431.98" width="26.95" height="43.79" rx="7.03" transform="translate(-336.87 519.47) rotate(-81.89)"/><path class="cls-10" d="M149.21,446.43h0a7.1,7.1,0,0,0-4.87-4.26h0c-.22-.05-.45-.1-.68-.13l-5.86-.83.39-2.76a2.31,2.31,0,0,0-.44-1.72,2.34,2.34,0,0,0-1.53-.91l-1.53-.22-6.15-.88-1.11-.15a2.33,2.33,0,0,0-2.64,2l-.39,2.76-10.11-1.45a7.09,7.09,0,0,0-8,6l-1.84,12.9a7.09,7.09,0,0,0,6,8l29.37,4.19a7.17,7.17,0,0,0,1.53.05h0a7.15,7.15,0,0,0,2.29-.58,7.07,7.07,0,0,0,4.15-5.47l1.84-12.9A7,7,0,0,0,149.21,446.43Zm-23-9.68A.85.85,0,0,1,127,436a.75.75,0,0,1,.26,0l1.31.19,4.84.69,2.64.38a.86.86,0,0,1,.74,1l-.39,2.75-10.51-1.5Z"/><path class="cls-9" d="M136.7,427.15s-1.55,2.05-1.61,2.88c-.41,5.57,2.13,6.34-4.46,9.44,0,0-2.82,1.07-2.86-1.11s2-2.22,1.58-5.28c-.42-3.53-.38-3.57,1.94-5.41l1.53-2.53Z"/><path class="cls-4" d="M132.77,428.72A22.32,22.32,0,0,0,138,429s7.37-22.78,8.32-24.86,21.91-26.72,21.91-26.72l-8.73-21.85s-22.67,37.87-25,43.19c-3.81,8.79-5.13,28.5-5.13,28.5A9.57,9.57,0,0,0,132.77,428.72Z"/><path class="cls-10" d="M162.07,341.89s1.36-.23,1.14-2.09-.21-4.31,1.3-3.86,1.6,1.67,2.22,1,.64-3.7,5.16-3.91,6.35,1.37,8.45.44,2.22-4.1,2.22-4.1a3.68,3.68,0,0,1-1.5,1.5s3.5-4.8-.56-8.09-8.19-1.13-10.54-1c-5.18.31-8.52.62-10.21,4S158.75,338.62,162.07,341.89Z"/><path class="cls-9" d="M134.26,429.6s1.49,1.55,1.58,2.19c.3,2.08,1,3,.65,3.2-.72.46-1.67-1.07-2.13-2.45A6.21,6.21,0,0,1,134.26,429.6Z"/></g><rect class="cls-16" x="248.73" y="247.62" width="176.26" height="307.35" rx="17.47"/><path class="cls-10" d="M408.65,557H265.06a18.41,18.41,0,0,1-18.38-18.39V264a18.4,18.4,0,0,1,18.38-18.38H408.65A18.4,18.4,0,0,1,427,264V538.62A18.41,18.41,0,0,1,408.65,557ZM265.06,249.67A14.3,14.3,0,0,0,250.78,264V538.62a14.3,14.3,0,0,0,14.28,14.29H408.65a14.3,14.3,0,0,0,14.28-14.29V264a14.29,14.29,0,0,0-14.28-14.28Z"/><g class="cls-17"><rect class="cls-18" x="278.89" y="328.49" width="115.93" height="115.93"/></g><rect class="cls-10" x="290.51" y="432.25" width="4.61" height="4.61"/><rect class="cls-10" x="295.12" y="432.25" width="4.61" height="4.61"/><rect class="cls-10" x="299.73" y="432.25" width="4.61" height="4.61"/><rect class="cls-10" x="304.33" y="432.25" width="4.61" height="4.61"/><rect class="cls-10" x="308.94" y="432.25" width="4.61" height="4.61"/><rect class="cls-10" x="318.16" y="432.25" width="4.61" height="4.61"/><rect class="cls-10" x="322.76" y="432.25" width="4.61" height="4.61"/><rect class="cls-10" x="336.58" y="432.25" width="4.61" height="4.61"/><rect class="cls-10" x="345.8" y="432.25" width="4.88" height="4.61"/><rect class="cls-10" x="350.68" y="432.25" width="4.61" height="4.61"/><rect class="cls-10" x="359.89" y="432.25" width="4.61" height="4.61"/><rect class="cls-10" x="364.5" y="432.25" width="4.61" height="4.61"/><rect class="cls-10" x="369.11" y="432.25" width="4.61" height="4.61"/><rect class="cls-10" x="373.71" y="432.25" width="4.61" height="4.61"/><rect class="cls-10" x="378.32" y="432.25" width="4.61" height="4.61"/><rect class="cls-10" x="382.93" y="432.25" width="4.88" height="4.61"/><rect class="cls-10" x="285.91" y="432.25" width="4.61" height="4.61"/><rect class="cls-10" x="308.94" y="427.65" width="4.61" height="4.61"/><rect class="cls-10" x="322.76" y="427.65" width="4.61" height="4.61"/><rect class="cls-10" x="331.98" y="427.65" width="4.61" height="4.61"/><rect class="cls-10" x="336.58" y="427.65" width="4.61" height="4.61"/><rect class="cls-10" x="341.19" y="427.65" width="4.61" height="4.61"/><rect class="cls-10" x="345.8" y="427.65" width="4.88" height="4.61"/><rect class="cls-10" x="359.89" y="427.65" width="4.61" height="4.61"/><rect class="cls-10" x="382.93" y="427.65" width="4.88" height="4.61"/><rect class="cls-10" x="285.91" y="427.65" width="4.61" height="4.61"/><rect class="cls-10" x="295.12" y="423.04" width="4.61" height="4.61"/><rect class="cls-10" x="299.73" y="423.04" width="4.61" height="4.61"/><rect class="cls-10" x="308.94" y="423.04" width="4.61" height="4.61"/><rect class="cls-10" x="318.16" y="423.04" width="4.61" height="4.61"/><rect class="cls-10" x="322.76" y="423.04" width="4.61" height="4.61"/><rect class="cls-10" x="327.37" y="423.04" width="4.61" height="4.61"/><rect class="cls-10" x="336.58" y="423.04" width="4.61" height="4.61"/><rect class="cls-10" x="341.19" y="423.04" width="4.61" height="4.61"/><rect class="cls-10" x="345.8" y="423.04" width="4.88" height="4.61"/><rect class="cls-10" x="350.68" y="423.04" width="4.61" height="4.61"/><rect class="cls-10" x="359.89" y="423.04" width="4.61" height="4.61"/><rect class="cls-10" x="369.11" y="423.04" width="4.61" height="4.61"/><rect class="cls-10" x="373.71" y="423.04" width="4.61" height="4.61"/><rect class="cls-10" x="382.93" y="423.04" width="4.88" height="4.61"/><rect class="cls-10" x="285.91" y="423.04" width="4.61" height="4.61"/><rect class="cls-10" x="295.12" y="418.43" width="4.61" height="4.61"/><rect class="cls-10" x="299.73" y="418.43" width="4.61" height="4.61"/><rect class="cls-10" x="308.94" y="418.43" width="4.61" height="4.61"/><rect class="cls-10" x="318.16" y="418.43" width="4.61" height="4.61"/><rect class="cls-10" x="327.37" y="418.43" width="4.61" height="4.61"/><rect class="cls-10" x="336.58" y="418.43" width="4.61" height="4.61"/><rect class="cls-10" x="359.89" y="418.43" width="4.61" height="4.61"/><rect class="cls-10" x="369.11" y="418.43" width="4.61" height="4.61"/><rect class="cls-10" x="373.71" y="418.43" width="4.61" height="4.61"/><rect class="cls-10" x="382.93" y="418.43" width="4.88" height="4.61"/><rect class="cls-10" x="285.91" y="418.43" width="4.61" height="4.61"/><rect class="cls-10" x="308.94" y="413.83" width="4.61" height="4.61"/><rect class="cls-10" x="318.16" y="413.83" width="4.61" height="4.61"/><rect class="cls-10" x="322.76" y="413.83" width="4.61" height="4.61"/><rect class="cls-10" x="327.37" y="413.83" width="4.61" height="4.61"/><rect class="cls-10" x="336.58" y="413.83" width="4.61" height="4.61"/><rect class="cls-10" x="341.19" y="413.83" width="4.61" height="4.61"/><rect class="cls-10" x="350.68" y="413.83" width="4.61" height="4.61"/><rect class="cls-10" x="359.89" y="413.83" width="4.61" height="4.61"/><rect class="cls-10" x="382.93" y="413.83" width="4.88" height="4.61"/><rect class="cls-10" x="285.91" y="413.83" width="4.61" height="4.61"/><rect class="cls-10" x="290.51" y="409.22" width="4.61" height="4.61"/><rect class="cls-10" x="295.12" y="409.22" width="4.61" height="4.61"/><rect class="cls-10" x="299.73" y="409.22" width="4.61" height="4.61"/><rect class="cls-10" x="304.33" y="409.22" width="4.61" height="4.61"/><rect class="cls-10" x="308.94" y="409.22" width="4.61" height="4.61"/><rect class="cls-10" x="318.16" y="409.22" width="4.61" height="4.61"/><rect class="cls-10" x="327.37" y="409.22" width="4.61" height="4.61"/><rect class="cls-10" x="331.98" y="409.22" width="4.61" height="4.61"/><rect class="cls-10" x="341.19" y="409.22" width="4.61" height="4.61"/><rect class="cls-10" x="359.89" y="409.22" width="4.61" height="4.61"/><rect class="cls-10" x="364.5" y="409.22" width="4.61" height="4.61"/><rect class="cls-10" x="369.11" y="409.22" width="4.61" height="4.61"/><rect class="cls-10" x="373.71" y="409.22" width="4.61" height="4.61"/><rect class="cls-10" x="378.32" y="409.22" width="4.61" height="4.61"/><rect class="cls-10" x="382.93" y="409.22" width="4.88" height="4.61"/><rect class="cls-10" x="285.91" y="409.22" width="4.61" height="4.61"/><rect class="cls-10" x="331.98" y="404.61" width="4.61" height="4.61"/><rect class="cls-10" x="336.58" y="404.61" width="4.61" height="4.61"/><rect class="cls-10" x="341.19" y="404.61" width="4.61" height="4.61"/><rect class="cls-10" x="350.68" y="404.61" width="4.61" height="4.61"/><rect class="cls-10" x="290.51" y="400" width="4.61" height="4.61"/><rect class="cls-10" x="295.12" y="400" width="4.61" height="4.61"/><rect class="cls-10" x="299.73" y="400" width="4.61" height="4.61"/><rect class="cls-10" x="304.33" y="400" width="4.61" height="4.61"/><rect class="cls-10" x="318.16" y="400" width="4.61" height="4.61"/><rect class="cls-10" x="322.76" y="400" width="4.61" height="4.61"/><rect class="cls-10" x="327.37" y="400" width="4.61" height="4.61"/><rect class="cls-10" x="336.58" y="400" width="4.61" height="4.61"/><rect class="cls-10" x="341.19" y="400" width="4.61" height="4.61"/><rect class="cls-10" x="345.8" y="400" width="4.88" height="4.61"/><rect class="cls-10" x="350.68" y="400" width="4.61" height="4.61"/><rect class="cls-10" x="355.28" y="400" width="4.61" height="4.61"/><rect class="cls-10" x="359.89" y="400" width="4.61" height="4.61"/><rect class="cls-10" x="364.5" y="400" width="4.61" height="4.61"/><rect class="cls-10" x="369.11" y="400" width="4.61" height="4.61"/><rect class="cls-10" x="378.32" y="400" width="4.61" height="4.61"/><rect class="cls-10" x="382.93" y="400" width="4.88" height="4.61"/><rect class="cls-10" x="295.12" y="395.4" width="4.61" height="4.61"/><rect class="cls-10" x="299.73" y="395.4" width="4.61" height="4.61"/><rect class="cls-10" x="313.55" y="395.4" width="4.61" height="4.61"/><rect class="cls-10" x="318.16" y="395.4" width="4.61" height="4.61"/><rect class="cls-10" x="327.37" y="395.4" width="4.61" height="4.61"/><rect class="cls-10" x="341.19" y="395.4" width="4.61" height="4.61"/><rect class="cls-10" x="350.68" y="395.4" width="4.61" height="4.61"/><rect class="cls-10" x="355.28" y="395.4" width="4.61" height="4.61"/><rect class="cls-10" x="364.5" y="395.4" width="4.61" height="4.61"/><rect class="cls-10" x="369.11" y="395.4" width="4.61" height="4.61"/><rect class="cls-10" x="290.51" y="390.79" width="4.61" height="4.61"/><rect class="cls-10" x="299.73" y="390.79" width="4.61" height="4.61"/><rect class="cls-10" x="304.33" y="390.79" width="4.61" height="4.61"/><rect class="cls-10" x="308.94" y="390.79" width="4.61" height="4.61"/><rect class="cls-10" x="313.55" y="390.79" width="4.61" height="4.61"/><rect class="cls-10" x="322.76" y="390.79" width="4.61" height="4.61"/><rect class="cls-10" x="327.37" y="390.79" width="4.61" height="4.61"/><rect class="cls-10" x="331.98" y="390.79" width="4.61" height="4.61"/><rect class="cls-10" x="336.58" y="390.79" width="4.61" height="4.61"/><rect class="cls-10" x="341.19" y="390.79" width="4.61" height="4.61"/><rect class="cls-10" x="345.8" y="390.79" width="4.88" height="4.61"/><rect class="cls-10" x="369.11" y="390.79" width="4.61" height="4.61"/><rect class="cls-10" x="373.71" y="390.79" width="4.61" height="4.61"/><rect class="cls-10" x="382.93" y="390.79" width="4.88" height="4.61"/><rect class="cls-10" x="285.91" y="390.79" width="4.61" height="4.61"/><rect class="cls-10" x="290.51" y="386.18" width="4.61" height="4.61"/><rect class="cls-10" x="295.12" y="386.18" width="4.61" height="4.61"/><rect class="cls-10" x="299.73" y="386.18" width="4.61" height="4.61"/><rect class="cls-10" x="318.16" y="386.18" width="4.61" height="4.61"/><rect class="cls-10" x="322.76" y="386.18" width="4.61" height="4.61"/><rect class="cls-10" x="341.19" y="386.18" width="4.61" height="4.61"/><rect class="cls-10" x="355.28" y="386.18" width="4.61" height="4.61"/><rect class="cls-10" x="359.89" y="386.18" width="4.61" height="4.61"/><rect class="cls-10" x="369.11" y="386.18" width="4.61" height="4.61"/><rect class="cls-10" x="373.71" y="386.18" width="4.61" height="4.61"/><rect class="cls-10" x="378.32" y="386.18" width="4.61" height="4.61"/><rect class="cls-10" x="382.93" y="386.18" width="4.88" height="4.61"/><rect class="cls-10" x="285.91" y="386.18" width="4.61" height="4.61"/><rect class="cls-10" x="299.73" y="381.58" width="4.61" height="4.61"/><rect class="cls-10" x="304.33" y="381.58" width="4.61" height="4.61"/><rect class="cls-10" x="308.94" y="381.58" width="4.61" height="4.61"/><rect class="cls-10" x="313.55" y="381.58" width="4.61" height="4.61"/><rect class="cls-10" x="318.16" y="381.58" width="4.61" height="4.61"/><rect class="cls-10" x="322.76" y="381.58" width="4.61" height="4.61"/><rect class="cls-10" x="336.58" y="381.58" width="4.61" height="4.61"/><rect class="cls-10" x="350.68" y="381.58" width="4.61" height="4.61"/><rect class="cls-10" x="355.28" y="381.58" width="4.61" height="4.61"/><rect class="cls-10" x="373.71" y="381.58" width="4.61" height="4.61"/><rect class="cls-10" x="285.91" y="381.58" width="4.61" height="4.61"/><rect class="cls-10" x="290.51" y="376.97" width="4.61" height="4.61"/><rect class="cls-10" x="295.12" y="376.97" width="4.61" height="4.61"/><rect class="cls-10" x="299.73" y="376.97" width="4.61" height="4.61"/><rect class="cls-10" x="304.33" y="376.97" width="4.61" height="4.61"/><rect class="cls-10" x="313.55" y="376.97" width="4.61" height="4.61"/><rect class="cls-10" x="322.76" y="376.97" width="4.61" height="4.61"/><rect class="cls-10" x="327.37" y="376.97" width="4.61" height="4.61"/><rect class="cls-10" x="336.58" y="376.97" width="4.61" height="4.61"/><rect class="cls-10" x="341.19" y="376.97" width="4.61" height="4.61"/><rect class="cls-10" x="345.8" y="376.97" width="4.88" height="4.61"/><rect class="cls-10" x="350.68" y="376.97" width="4.61" height="4.61"/><rect class="cls-10" x="359.89" y="376.97" width="4.61" height="4.61"/><rect class="cls-10" x="364.5" y="376.97" width="4.61" height="4.61"/><rect class="cls-10" x="369.11" y="376.97" width="4.61" height="4.61"/><rect class="cls-10" x="373.71" y="376.97" width="4.61" height="4.61"/><rect class="cls-10" x="382.93" y="376.97" width="4.88" height="4.61"/><rect class="cls-10" x="290.51" y="372.36" width="4.61" height="4.61"/><rect class="cls-10" x="299.73" y="372.36" width="4.61" height="4.61"/><rect class="cls-10" x="308.94" y="372.36" width="4.61" height="4.61"/><rect class="cls-10" x="313.55" y="372.36" width="4.61" height="4.61"/><rect class="cls-10" x="327.37" y="372.36" width="4.61" height="4.61"/><rect class="cls-10" x="331.98" y="372.36" width="4.61" height="4.61"/><rect class="cls-10" x="336.58" y="372.36" width="4.61" height="4.61"/><rect class="cls-10" x="345.8" y="372.36" width="4.88" height="4.61"/><rect class="cls-10" x="350.68" y="372.36" width="4.61" height="4.61"/><rect class="cls-10" x="355.28" y="372.36" width="4.61" height="4.61"/><rect class="cls-10" x="364.5" y="372.36" width="4.61" height="4.61"/><rect class="cls-10" x="373.71" y="372.36" width="4.61" height="4.61"/><rect class="cls-10" x="378.32" y="372.36" width="4.61" height="4.61"/><rect class="cls-10" x="382.93" y="372.36" width="4.88" height="4.61"/><rect class="cls-10" x="285.91" y="372.36" width="4.61" height="4.61"/><rect class="cls-10" x="290.51" y="367.75" width="4.61" height="4.61"/><rect class="cls-10" x="308.94" y="367.75" width="4.61" height="4.61"/><rect class="cls-10" x="313.55" y="367.75" width="4.61" height="4.61"/><rect class="cls-10" x="322.76" y="367.75" width="4.61" height="4.61"/><rect class="cls-10" x="327.37" y="367.75" width="4.61" height="4.61"/><rect class="cls-10" x="336.58" y="367.75" width="4.61" height="4.61"/><rect class="cls-10" x="341.19" y="367.75" width="4.61" height="4.61"/><rect class="cls-10" x="350.68" y="367.75" width="4.61" height="4.61"/><rect class="cls-10" x="355.28" y="367.75" width="4.61" height="4.61"/><rect class="cls-10" x="359.89" y="367.75" width="4.61" height="4.61"/><rect class="cls-10" x="364.5" y="367.75" width="4.61" height="4.61"/><rect class="cls-10" x="369.11" y="367.75" width="4.61" height="4.61"/><rect class="cls-10" x="373.71" y="367.75" width="4.61" height="4.61"/><rect class="cls-10" x="285.91" y="367.75" width="4.61" height="4.61"/><rect class="cls-10" x="322.76" y="363.15" width="4.61" height="4.61"/><rect class="cls-10" x="331.98" y="363.15" width="4.61" height="4.61"/><rect class="cls-10" x="336.58" y="363.15" width="4.61" height="4.61"/><rect class="cls-10" x="345.8" y="363.15" width="4.88" height="4.61"/><rect class="cls-10" x="350.68" y="363.15" width="4.61" height="4.61"/><rect class="cls-10" x="355.28" y="363.15" width="4.61" height="4.61"/><rect class="cls-10" x="290.51" y="358.54" width="4.61" height="4.61"/><rect class="cls-10" x="295.12" y="358.54" width="4.61" height="4.61"/><rect class="cls-10" x="299.73" y="358.54" width="4.61" height="4.61"/><rect class="cls-10" x="304.33" y="358.54" width="4.61" height="4.61"/><rect class="cls-10" x="308.94" y="358.54" width="4.61" height="4.61"/><rect class="cls-10" x="318.16" y="358.54" width="4.61" height="4.61"/><rect class="cls-10" x="322.76" y="358.54" width="4.61" height="4.61"/><rect class="cls-10" x="336.58" y="358.54" width="4.61" height="4.61"/><rect class="cls-10" x="355.28" y="358.54" width="4.61" height="4.61"/><rect class="cls-10" x="359.89" y="358.54" width="4.61" height="4.61"/><rect class="cls-10" x="369.11" y="358.54" width="4.61" height="4.61"/><rect class="cls-10" x="382.93" y="358.54" width="4.88" height="4.61"/><rect class="cls-10" x="285.91" y="358.54" width="4.61" height="4.61"/><rect class="cls-10" x="308.94" y="353.93" width="4.61" height="4.61"/><rect class="cls-10" x="345.8" y="353.93" width="4.88" height="4.61"/><rect class="cls-10" x="350.68" y="353.93" width="4.61" height="4.61"/><rect class="cls-10" x="359.89" y="353.93" width="4.61" height="4.61"/><rect class="cls-10" x="364.5" y="353.93" width="4.61" height="4.61"/><rect class="cls-10" x="373.71" y="353.93" width="4.61" height="4.61"/><rect class="cls-10" x="378.32" y="353.93" width="4.61" height="4.61"/><rect class="cls-10" x="382.93" y="353.93" width="4.88" height="4.61"/><rect class="cls-10" x="285.91" y="353.93" width="4.61" height="4.61"/><rect class="cls-10" x="295.12" y="349.33" width="4.61" height="4.61"/><rect class="cls-10" x="299.73" y="349.33" width="4.61" height="4.61"/><rect class="cls-10" x="308.94" y="349.33" width="4.61" height="4.61"/><rect class="cls-10" x="318.16" y="349.33" width="4.61" height="4.61"/><rect class="cls-10" x="322.76" y="349.33" width="4.61" height="4.61"/><rect class="cls-10" x="331.98" y="349.33" width="4.61" height="4.61"/><rect class="cls-10" x="336.58" y="349.33" width="4.61" height="4.61"/><rect class="cls-10" x="345.8" y="349.33" width="4.88" height="4.61"/><rect class="cls-10" x="364.5" y="349.33" width="4.61" height="4.61"/><rect class="cls-10" x="369.11" y="349.33" width="4.61" height="4.61"/><rect class="cls-10" x="373.71" y="349.33" width="4.61" height="4.61"/><rect class="cls-10" x="285.91" y="349.33" width="4.61" height="4.61"/><rect class="cls-10" x="295.12" y="344.72" width="4.61" height="4.61"/><rect class="cls-10" x="299.73" y="344.72" width="4.61" height="4.61"/><rect class="cls-10" x="308.94" y="344.72" width="4.61" height="4.61"/><rect class="cls-10" x="318.16" y="344.72" width="4.61" height="4.61"/><rect class="cls-10" x="327.37" y="344.72" width="4.61" height="4.61"/><rect class="cls-10" x="331.98" y="344.72" width="4.61" height="4.61"/><rect class="cls-10" x="336.58" y="344.72" width="4.61" height="4.61"/><rect class="cls-10" x="341.19" y="344.72" width="4.61" height="4.61"/><rect class="cls-10" x="345.8" y="344.72" width="4.88" height="4.61"/><rect class="cls-10" x="355.28" y="344.72" width="4.61" height="4.61"/><rect class="cls-10" x="359.89" y="344.72" width="4.61" height="4.61"/><rect class="cls-10" x="364.5" y="344.72" width="4.61" height="4.61"/><rect class="cls-10" x="373.71" y="344.72" width="4.61" height="4.61"/><rect class="cls-10" x="378.32" y="344.72" width="4.61" height="4.61"/><rect class="cls-10" x="382.93" y="344.72" width="4.88" height="4.61"/><rect class="cls-10" x="285.91" y="344.72" width="4.61" height="4.61"/><rect class="cls-10" x="308.94" y="340.11" width="4.61" height="4.61"/><rect class="cls-10" x="327.37" y="340.11" width="4.61" height="4.61"/><rect class="cls-10" x="331.98" y="340.11" width="4.61" height="4.61"/><rect class="cls-10" x="341.19" y="340.11" width="4.61" height="4.61"/><rect class="cls-10" x="345.8" y="340.11" width="4.88" height="4.61"/><rect class="cls-10" x="350.68" y="340.11" width="4.61" height="4.61"/><rect class="cls-10" x="355.28" y="340.11" width="4.61" height="4.61"/><rect class="cls-10" x="378.32" y="340.11" width="4.61" height="4.61"/><rect class="cls-10" x="285.91" y="340.11" width="4.61" height="4.61"/><rect class="cls-10" x="290.51" y="335.5" width="4.61" height="4.61"/><rect class="cls-10" x="295.12" y="335.5" width="4.61" height="4.61"/><rect class="cls-10" x="299.73" y="335.5" width="4.61" height="4.61"/><rect class="cls-10" x="304.33" y="335.5" width="4.61" height="4.61"/><rect class="cls-10" x="308.94" y="335.5" width="4.61" height="4.61"/><rect class="cls-10" x="318.16" y="335.5" width="4.61" height="4.61"/><rect class="cls-10" x="322.76" y="335.5" width="4.61" height="4.61"/><rect class="cls-10" x="345.8" y="335.5" width="4.88" height="4.61"/><rect class="cls-10" x="355.28" y="335.5" width="4.61" height="4.61"/><rect class="cls-10" x="364.5" y="335.5" width="4.61" height="4.61"/><rect class="cls-10" x="369.11" y="335.5" width="4.61" height="4.61"/><rect class="cls-10" x="382.93" y="335.5" width="4.88" height="4.61"/><rect class="cls-10" x="285.91" y="335.5" width="4.61" height="4.61"/><g class="cls-19"><path class="cls-18" d="M270.51,344.58a1.64,1.64,0,0,1-1.64-1.64V320.59a1.63,1.63,0,0,1,1.64-1.63h22.54a1.64,1.64,0,1,1,0,3.27h-20.9v20.71A1.65,1.65,0,0,1,270.51,344.58Z"/><path class="cls-18" d="M403.21,344.68a1.64,1.64,0,0,1-1.64-1.64V322.13H380.86a1.64,1.64,0,1,1,0-3.27h22.35a1.63,1.63,0,0,1,1.63,1.63V343A1.64,1.64,0,0,1,403.21,344.68Z"/></g><g class="cls-19"><path class="cls-18" d="M403.21,457H380.66a1.64,1.64,0,0,1,0-3.28h20.91V433a1.64,1.64,0,1,1,3.27,0v22.35A1.64,1.64,0,0,1,403.21,457Z"/><path class="cls-18" d="M292.85,457.07H270.51a1.64,1.64,0,0,1-1.64-1.64V432.88a1.64,1.64,0,0,1,3.28,0v20.91h20.7a1.64,1.64,0,0,1,0,3.28Z"/></g><rect class="cls-18" x="278.89" y="484.95" width="115.93" height="9.34" rx="3.11"/><path class="cls-14" d="M359.89,485v9.34H282a3.12,3.12,0,0,1-3.11-3.1v-3.14A3.11,3.11,0,0,1,282,485Z"/><polygon class="cls-13" points="343.66 484.95 335.04 494.29 318.92 494.29 327.54 484.95 343.66 484.95"/><polygon class="cls-13" points="359.89 484.95 359.89 494.29 344.95 494.29 353.56 484.95 359.89 484.95"/><polygon class="cls-13" points="317.7 484.95 309.08 494.29 292.95 494.29 301.57 484.95 317.7 484.95"/><path class="cls-13" d="M291.73,485l-8.61,9.34h-1.19a3.11,3.11,0,0,1-3.1-3.1v-3.14a3.1,3.1,0,0,1,3.1-3.1Z"/><path class="cls-18" d="M325,479.61l.61-.72a2.66,2.66,0,0,0,1.83.75c.63,0,1-.29,1-.75s-.24-.63-1.31-.89c-1.24-.29-1.93-.65-1.93-1.74a1.78,1.78,0,0,1,2-1.68,3.23,3.23,0,0,1,2.1.73l-.55.77a2.62,2.62,0,0,0-1.57-.6c-.6,0-.94.31-.94.71s.26.64,1.37.91,1.86.73,1.86,1.71-.85,1.73-2.07,1.73A3.51,3.51,0,0,1,325,479.61Z"/><path class="cls-18" d="M330.4,477.56a2.93,2.93,0,0,1,3-3,3,3,0,0,1,2.27.91l-.66.75a2.3,2.3,0,0,0-1.62-.72,2.07,2.07,0,0,0,0,4.12,2.27,2.27,0,0,0,1.66-.75l.66.66a3,3,0,0,1-2.35,1A2.92,2.92,0,0,1,330.4,477.56Z"/><path class="cls-18" d="M338.82,474.62h.94l2.55,5.84h-1.07l-.59-1.4h-2.74l-.6,1.4h-1Zm1.46,3.54-1-2.32-1,2.32Z"/><path class="cls-18" d="M343.31,474.66h.94l3.1,4v-4h1v5.8h-.86l-3.19-4.12v4.12h-1Z"/><g id="girl_2" data-name="girl 2"><path class="cls-11" d="M423.78,433.93a15.22,15.22,0,0,1,15.16,4.32c9.33,10.14,2.45,17.95,7.12,25,2.82,4.29,5.19,11.8-3.55,16.24-4,2.05-16.08,12.78-18.55,13-25,2.57-25.43-22.78-17-30.12C418.79,452.11,408,438.54,423.78,433.93Z"/><path class="cls-20" d="M436.84,473.11s22.8,11.05,27.08,10.86,31-9.58,31-9.58l-.67,4.52S473.9,490.6,466.8,491.26s-30.89-6.28-33.2-7.74S430.13,474.59,436.84,473.11Z"/><path class="cls-9" d="M439.35,483.53a22.47,22.47,0,0,1-7.91,3.37c-12.19,2.82-16.87-7.49-18.62-14.56a10.55,10.55,0,0,1,4.13-1.27c.88-.11,1.81-.17,2.58-.21,1.37-1.05,3.41-5.34,3.86-12l.57.16,9.61,2.63s-.44,3.05-.65,5.94c-.17,2.26-.2,4.42.23,4.95l1.2.26h0A63,63,0,0,1,439.35,483.53Z"/><path class="cls-20" d="M433.57,461.64s-.44,3.05-.65,5.94c-5.45-.54-8-5.73-9-8.57Z"/><path class="cls-9" d="M435.2,464.51s-12.93-.72-12.36-8.76-.72-13.55,7.56-13.43,9.66,3.29,10.12,6S438.57,464.48,435.2,464.51Z"/><path class="cls-11" d="M440.46,443.85c-1.82-2.56-3.37-2.14-4.26-1.48a9.06,9.06,0,0,0-11.74,1,15.39,15.39,0,0,1-5.67,8.71s2.29,1.83,7.77.62a13.75,13.75,0,0,0,9.75-8.57,8.25,8.25,0,0,1,2.42,2.91,12.74,12.74,0,0,1,1.42,6.34S443.19,447.69,440.46,443.85Z"/><path class="cls-13" d="M409.14,509.81c-1.17-6-5-29.8-1.17-37.47,1.37-2.76,6.73-3,12.61-2.76,1.83,1.18,8.81,5.64,11.68,5.09l.16,0c1.35-.34,1.86-1.29.73-2.1a56.58,56.58,0,0,1,6.2.86c2,.38,7.66,3.83,7.66,3.83a16.75,16.75,0,0,1-6.64,5.69c.7,6.23-.34,9-6.8,23.36-5.46,12.15.74,23.1.74,23.1S402.17,555.21,402,542.05C401.86,532.15,410.63,517.43,409.14,509.81Z"/><path class="cls-12" d="M435.9,557.46a6,6,0,0,0,4.3-2.61c.15-.24.32-.48.49-.75,3.66-5.54,5.09-22.5,13.31-40.56,2-4.4,9.2-5.19,11.16-10.16,0,0,4.83-16.12-9.24-16.59s-37.68,44.84-38.05,49.59S408.57,560.55,435.9,557.46Z"/><path class="cls-21" d="M491.82,557.37h-20s-.75-3.28.57-5.51c1.16-2,.72-3.1-.15-4.73a7.58,7.58,0,0,0,3.38.65,6.83,6.83,0,0,0,3-1.08,74.92,74.92,0,0,0,5.71,6.16C485.58,553.82,491.41,553.48,491.82,557.37Z"/><path class="cls-12" d="M465.62,491.45c1.21,9,5.91,37.57,14.22,51.48,2.68,4.49-6.75,7-6.8,7-1.26-.33-3.37-2.34-4.34-3.22-6.74-6.07-20.43-23.28-20.43-37.08,0-6.72-.12-19.57,4.77-22.84C456.06,484.77,465.14,487.85,465.62,491.45Z"/><path class="cls-14" d="M409.92,483.52s4.07,8.27,23,14.11,8.12-8.84,8.12-8.84l-26.52-9.26Z"/><path class="cls-4" d="M426.12,557.48a14.55,14.55,0,0,0,1.66-3.78c1.08-3.78,1.46-6.52,3.53-12.41,2.17-6.17,4.75-13.77,8-21.68,1-2.44,2-4.91,3.17-7.38,2-4.4,7.51-3.79,9.48-8.76,0,0,7.65-17.24-6.42-17.71s-40.8,46.11-42.34,50.62C401.49,541.32,395.45,562.22,426.12,557.48Z"/><path class="cls-22" d="M477.12,557.37h-20s-.74-3.28.57-5.51c1.16-2,.72-3.1-.14-4.73a7.54,7.54,0,0,0,3.37.65,6.87,6.87,0,0,0,3-1.08,73.08,73.08,0,0,0,5.7,6.16C470.88,553.82,476.71,553.48,477.12,557.37Z"/><g class="cls-7"><path class="cls-12" d="M431.31,541.29c2.17-6.17,4.75-13.77,8-21.68-.84-6-2.66-11.23-5.71-13.34C433.57,506.27,426.17,529.19,431.31,541.29Z"/></g><path class="cls-4" d="M453.93,490.8c1.21,9,2.91,38.22,11.21,52.13,2.68,4.49-6.75,7-6.8,7-1.26-.33-3.37-2.34-4.34-3.22-6.74-6.07-20.43-23.28-20.43-37.08,0-6.72,7.9-19,12.79-22.3A4.92,4.92,0,0,1,453.93,490.8Z"/><path class="cls-23" d="M497.28,462.74l-20.51-2.18a1.33,1.33,0,0,0-1.38.85l-7.33,19.27a1.32,1.32,0,0,0,1.18,1.8l20.35.82a1.32,1.32,0,0,0,1.27-.81l7.5-17.93A1.32,1.32,0,0,0,497.28,462.74Z"/><path class="cls-24" d="M499.06,462.92l-20.51-2.17a1.32,1.32,0,0,0-1.38.84l-7.33,19.28a1.32,1.32,0,0,0,1.18,1.79l20.35.82a1.3,1.3,0,0,0,1.27-.81l7.5-17.92A1.33,1.33,0,0,0,499.06,462.92Z"/><path class="cls-2" d="M487.69,471.93a.84.84,0,0,0-.79-1.25,2,2,0,0,0-1.7,1.25.84.84,0,0,0,.79,1.24A2,2,0,0,0,487.69,471.93Z"/><path class="cls-2" d="M498.44,464.75a.42.42,0,0,0-.39-.62,1,1,0,0,0-.83.62.41.41,0,0,0,.39.61A1,1,0,0,0,498.44,464.75Z"/><path class="cls-9" d="M412.82,472.34s28.42,10.46,32.69,10.25c2.76-.14,25.7-8.2,25.7-8.2l2.06,3.89s-22.33,14.35-28.47,14.28c-12.12-.14-32.57-7.58-34.88-9S406.11,473.82,412.82,472.34Z"/><path class="cls-9" d="M471.21,474.39s2.06-3.17,4.11-3.27,5.6,1.4,6.81,1.63,4.66,1.36,3.63,3-5.78,2.06-7.83,1.68a9.54,9.54,0,0,0-4.66.82Z"/><path class="cls-9" d="M474.76,471.22s3.27-1.49,4.2-1.77.74,0,.46.88-1.95,1.73-1.95,2S474.76,471.22,474.76,471.22Z"/><path class="cls-9" d="M497,472.71s-1.31-4.29-2.73-2.94-.59,2.8-.41,4.59c.35,3.42,1,3.27,1.48,3.11S497.43,474.43,497,472.71Z"/><path class="cls-9" d="M497,473.36a5.44,5.44,0,0,1-2.8,5.55l1-2.51Z"/><path class="cls-18" d="M437.62,459.88s-1.22-.48-4.66-.2c0,0,.18,1.34,2.72,1.47A2,2,0,0,0,437.62,459.88Z"/><path class="cls-13" d="M427.46,477.5a15.61,15.61,0,0,1-11.27,9.88s-14.42-4.44-7.24-14.27C409,473.11,416.05,467.84,427.46,477.5Z"/><path class="cls-9" d="M497,473.88s.6-2,.64-2.36,0-.52-.32-.28a1.69,1.69,0,0,0-.64,1.5C496.84,473.35,497,473.88,497,473.88Z"/></g><path class="cls-25" d="M309.75,293.29a2.05,2.05,0,0,0-.37,2.2h0c.53,1.47,2.28,3.11,4.32,4.75l.69.57.16.14.12.11c1.9,1.75,1.18,2.15,4.6,5.71,3.89,4.05,6.57,4.12,7.33,3.75s-.67-2.46-2.12-4.88l-.21-.35c-.19-.32-.39-.64-.58-1-1.7-2.9-1.26-4.26-.86-8.59.33-3.51,5.47-19.62,5.47-19.62l-7.46-1.29s-2.25,12.83-4.72,14.81c-1.32,1.05-2.8,1.07-4.08,1.85l-.26.16A10.06,10.06,0,0,0,309.75,293.29Z"/><path class="cls-11" d="M309.75,293.29a2.05,2.05,0,0,0-.37,2.2h0c.65,1.47,2.36,3.1,4.33,4.73l.68.59.16.14.12.11c1.9,1.75,1.18,2.15,4.6,5.71,3.89,4.05,6.57,4.12,7.33,3.75s-.67-2.46-2.12-4.88a16.49,16.49,0,0,1-6.94-5.11c-2.34-3-3.9-6.83-5.5-9.05l-.26.16A10.06,10.06,0,0,0,309.75,293.29Z"/><path class="cls-25" d="M369.88,288.64c.46,2.3,3.74,1.91,7.41,1s2.79.17,8-.41,6.79-2.52,6.95-3.3-2.43-.93-5.2-1.25l-1-.12c-3.12-.4-5.41-2.41-8.25-4.06-2.68-1.57-6.69-8-6.69-8l-7.16.57s3.76,5.7,5.21,8.18a8.66,8.66,0,0,1,.7,4.88A9.14,9.14,0,0,0,369.88,288.64Z"/><path class="cls-11" d="M377.29,289.66c3.66-.9,2.79.17,8-.41s6.79-2.52,6.95-3.3-2.43-.93-5.2-1.25l0,.05a14.74,14.74,0,0,1-7.47,2.33c-3.54.08-7.29-.93-9.74-.89a9.14,9.14,0,0,0,.06,2.45C370.34,290.94,373.62,290.55,377.29,289.66Z"/><path class="cls-14" d="M342.46,242.89l-6.69,18L327,284.38a14.17,14.17,0,0,1-4.64-.42,20,20,0,0,1-4.49-2.18s2.43-25.24,6.95-39.72c1.16-3.72,2.46-6.73,3.89-8.42C335.76,225.36,342.46,242.89,342.46,242.89Z"/><path class="cls-13" d="M335.66,214.3c-4.17-1.34-15.71.24-27.65,2.52a2.64,2.64,0,0,1-2.73-1.22l-1.68-2.77-27.12-2.12s-7,15.9-4,29.13c.73,3.24,4.69,7.44,10.75,7.82,17,1.05,28.44-4.84,46.07-11,3.07-1.08,4.47,5.73,7.65,12.43s30,29.64,30,29.64,4.11,0,5.81-.59a5.77,5.77,0,0,0,2.5-1.58S345.54,217.49,335.66,214.3Z"/><path class="cls-11" d="M302.53,133.87c-3.47-1.83-8.76-2.07-9.62-2.19-10.27-1.38-16.46,13.55-16.82,18.08-.67,8.34-5.08,9.61-11.29,14.83-12.45,10.47-8.8,22.64-2,27.16,4.09,2.71,11.29,0,11.29,0s19.69-10.95,29.35-16.27C317.91,173.43,311.38,138.52,302.53,133.87Z"/><path class="cls-9" d="M295.34,171c.05,0-4.75,1.66-7.95.24-3-1.33-5.3-6.29-5.26-6.29,1.37-.07,2.88-1.27,4-9.14l.58.21,9.82,3.54s-.71,3.15-1.17,6.15C295,168.19,294.81,170.6,295.34,171Z"/><path class="cls-15" d="M296.57,159.52s-.49,2.23-1,5.29c-5.64-1-8-5.78-8.79-8.83Z"/><path class="cls-9" d="M298,162.65s-13.44-1.81-12.19-10.16.36-14.21,9-13.41,9.81,4.24,10.07,7.13S301.56,162.9,298,162.65Z"/><path class="cls-11" d="M304.43,141.63s-8.6,7.41-14.45,8-8.07-1.28-8.07-1.28a23,23,0,0,0,5.53-7.49,4.11,4.11,0,0,1,3.39-2.42C295,138.09,302.93,137.92,304.43,141.63Z"/><path class="cls-11" d="M299.06,141a21.46,21.46,0,0,1,3.78,4.85c.87,2,1.14,6.75.44,8.65,0,0,4.48-8.72,2-13C302.53,137,299.06,141,299.06,141Z"/><path class="cls-4" d="M306.66,190.75c1,24.25-.6,22.92-3.09,24.1a16,16,0,0,1-5.38,1.16c-8.34.56-23-.82-23.56-2.36-1.93-5.33-.57-7-2.17-15.15-.17-.87-.38-1.81-.62-2.83-1.34-5.61-2.64-7.52,2.11-16.53,4.3-8.16,8.77-14.78,9.18-14.54,11.36,6.74,12.27,1.07,12.27,1.07S306.09,177.49,306.66,190.75Z"/><path class="cls-13" d="M335.77,260.88,327,284.38a14.17,14.17,0,0,1-4.64-.42,20,20,0,0,1-4.49-2.18s2.43-25.24,6.95-39.72Z"/><path class="cls-4" d="M295.4,165.67s11.69,2,13.06,7,9.45,34.62,9.45,34.62-5.94,1.07-8.68-1.68-9.56-25.46-9.56-25.46Z"/><path class="cls-12" d="M298.19,216c-8.34.56-23-.82-23.56-2.36-1.93-5.33-.57-7-2.17-15.15l4-11.33s-.67,12.61,3,15.93,15.24,6.41,17,9.18A10.08,10.08,0,0,1,298.19,216Z"/><path class="cls-9" d="M288.63,210.71s8.23-1.83,9.56-1.1,4.57,3.39,5,4.31-3-.7-4-1c-.71-.19-2.58.45-3.5.76a11.55,11.55,0,0,1-6.26.63Z"/><path class="cls-4" d="M283.12,164.59s-11.05.68-14.87,6c-5.39,7.51-16.07,39.52-9.95,43.78,6.9,4.81,31.38,1.26,31.38,1.26s.81-3.81-.32-5.65-19.55-4.82-20.4-5.67,10.62-16.57,10.62-19.12S283.12,164.59,283.12,164.59Z"/><path class="cls-9" d="M298.58,211.9a16.4,16.4,0,0,0,2.29,2.49,1.76,1.76,0,0,0,.93.2l-1.16-2.1Z"/><path class="cls-9" d="M298.19,209.61l5,2.43a.88.88,0,0,1-.83.32,12.09,12.09,0,0,1-2.18-.6Z"/><polygon class="cls-10" points="300.87 217.79 340.52 217.79 352.45 188.13 312.86 188.13 300.87 217.79"/><polygon class="cls-10" points="340.99 216.64 288.63 216.64 288.63 217.79 340.52 217.79 340.99 216.64"/><path class="cls-2" d="M330.52,203a1.37,1.37,0,0,0-1.35-1.88,2.71,2.71,0,0,0-2.43,1.88,1.37,1.37,0,0,0,1.35,1.89A2.7,2.7,0,0,0,330.52,203Z"/><rect class="cls-26" y="557.01" width="654" height="1.78" rx="0.77"/></svg>