<svg id="Layer_1" data-name="Layer 1" xmlns="http://www.w3.org/2000/svg" xmlns:xlink="http://www.w3.org/1999/xlink" viewBox="0 0 654 654"><defs><style>.cls-1{fill:url(#linear-gradient);}.cls-2{fill:#eaf1f8;}.cls-3{fill:#1a355e;}.cls-4{fill:#e39863;}.cls-5{fill:#4c72b6;}.cls-6{fill:#a8c4e8;}.cls-7{fill:#e48537;}.cls-8{fill:#ee984a;}.cls-9{fill:#1a4789;}.cls-10{fill:#7794cc;}.cls-11{fill:#d58c5c;}.cls-12{fill:#2b488b;}.cls-13{fill:#d2e1f4;}.cls-14{fill:#f3f9fd;}.cls-15{fill:#80b278;}.cls-16{fill:#fff;}.cls-17{fill:#202f4e;}</style><linearGradient id="linear-gradient" x1="327.09" y1="654" x2="327.09" y2="1.68" gradientUnits="userSpaceOnUse"><stop offset="0.43" stop-color="#a9bed0"/><stop offset="0.84" stop-color="#eff6f6"/></linearGradient></defs><rect class="cls-1" x="0.18" y="1.68" width="653.82" height="652.32"/><path class="cls-2" d="M557,306.22c-24.64-21-54.35-147.77-156.11-81.76-52.57,34.11-141.23-29.28-214.61-7.38-67.39,20.11-73.88,86.36-67.36,107.94,13.17,43.61-27.82,50.1-65.84,68.83C-6.58,423.24,37.63,527.62,94,528.12s397.26,0,397.26,0,81.95-1.88,116-47.05C643.85,432.45,620.63,360.51,557,306.22Z"/><path class="cls-3" d="M222,516.42s.71,11.51,2.94,11.67c.29,0,11.29,0,11.29,0l14-.08s-.09-3.39-4.19-4.1-11-3.6-13.46-9C230,509.21,222,516.42,222,516.42Z"/><path class="cls-4" d="M216.89,382.09s6.11,1.57,10,.4,10.58.75,11.66,2.17.68,2-1.24,2.47-8.74,3.4-13.22,1.72a35.43,35.43,0,0,0-10.31-1.75Z"/><path class="cls-5" d="M164,329s6.87,48.83,18.25,53.21c5.62,2.16,30.43,7.05,37.77,7.54,0,0,1.79-1.46,1.36-7.39,0,0-26-9.55-29.69-14.74-5.5-7.72,3.41-31.55-3.49-38.81S169.71,318.4,164,329Z"/><path class="cls-6" d="M164.9,517.13V506.48H148.14a.82.82,0,0,1-.82-.82V504a.82.82,0,0,1,.82-.82H164.9V442.52a3.11,3.11,0,0,1,3.09-3.1h3.32a3.11,3.11,0,0,1,3.09,3.1v60.61h16.77a.82.82,0,0,1,.82.82v1.71a.82.82,0,0,1-.82.82H174.4v10.65c12.13.91,21.85,5.28,24.58,10.92H140.33C143.05,522.41,152.77,518,164.9,517.13Z"/><path class="cls-7" d="M166.34,431.85a85.2,85.2,0,0,0,6.71,9.6c7.39,9.32,15.42,17,16.83,24.28a33.3,33.3,0,0,0,1.29,4.65c.59,1.66,1.31,3.41,2.15,5.22A160.7,160.7,0,0,0,205.82,497c8.08,12,15.69,22,15.69,22l14-.6c-.56-1.4-6.64-17.95-14.78-38.17-3.31-8.21-6.82-16.94-10.21-25.37l-1.35-3.35-3.05-7.59c-7.65-19-13.73-34.11-13.73-34.11s-30.55-11.57-33.72-4.07C156,411.88,158.14,417.94,166.34,431.85Z"/><path class="cls-3" d="M189.65,483.54s-9.71,6.23-8.76,8.26c.12.26,5.48,9.87,5.48,9.87l6.92,12.22s2.91-1.73,1.53-5.66-2.21-11.34,1.32-16.16C199.85,487,189.65,483.54,189.65,483.54Z"/><path class="cls-8" d="M202.77,404.28s38.34,23.88,42.62,39.93-51,50.28-51,50.28-6.06-5.34-7.13-9.27c0,0,25-29.93,30.41-36.64,3.33-4.12-49.22-14.27-55.64-24.26s-4.12-18.38-4.12-18.38Z"/><rect class="cls-9" x="127.57" y="434.95" width="84.17" height="21.4" rx="2.85"/><path class="cls-4" d="M185.05,320.59a21.71,21.71,0,0,1,5.84,5.29c-9.19,2.38-24.41-6.14-24.41-6.14a22.52,22.52,0,0,0,8.1-12.7q.16-.66.3-1.35a28.05,28.05,0,0,0,.5-4.78l4.22,3.78,7,6.29a60.33,60.33,0,0,1-1,7.09C185.42,318.85,185.25,319.69,185.05,320.59Z"/><path class="cls-10" d="M156.79,363.92c1.32,17.69-.89,44.59.6,49.25,1.29,4,16.44,1.64,22.3.3,2.17-.5,4.8-1.21,7.51-2.05,7.56-2.34,15.81-5.68,16.69-8.17A1,1,0,0,0,204,403a2.15,2.15,0,0,0,0-1c-.3-1.27-1.43-2.64-1.57-5.77-.15-3.5-.12-7.62-.25-12.05,0-.5,0-1.05-.07-1.54v-.47c-.13-4.94-.39-10.14-.69-15.29-.19-3.24-.41-6.44-.66-9.51-.66-7.93-1.55-15-2.73-19.43-1.92-7.27-6.16-12-10-15.48L185.17,320A16.13,16.13,0,0,1,175,318.65c-3.61-1.71-4.85-2.94-5.48-2.48C161.23,322.6,155.24,342.29,156.79,363.92Z"/><path class="cls-5" d="M187.16,411.46c7.56-2.34,15.81-5.69,16.69-8.17,0-.1.06-.19.08-.29,0-.34,0-.69,0-1-.3-1.26-1.44-2.63-1.57-5.77-.15-3.5-.13-7.62-.26-12.05a13.23,13.23,0,0,0-.07-1.54v-.46l-28.58-13S171.79,392.21,187.16,411.46Z"/><path class="cls-11" d="M186.61,311a60.33,60.33,0,0,1-1,7.09c-6.85-2.21-9.95-8.4-11-11-.3-.74-.43-1.2-.43-1.2l.73-.15,4.72-1Z"/><path class="cls-4" d="M189.38,310.91s-15,1.69-16-7.69-3.47-15.5,6.1-17,11.79,1.92,12.86,5S193.28,310.22,189.38,310.91Z"/><path class="cls-12" d="M173.49,303.86s.95-12.46,14.65-13.75c9.38-.89,4.15-9,3.15-10.25,0,0-7.19,1-14.56,2.2C161.26,284.62,172,301.92,173.49,303.86Z"/><rect class="cls-5" x="251.91" y="359.16" width="1.39" height="36.27" transform="matrix(-0.95, -0.31, 0.31, -0.95, 376.24, 814.18)"/><rect class="cls-5" x="209.62" y="392.07" width="38.06" height="2.28" transform="translate(448.86 791.22) rotate(-178.78)"/><path class="cls-4" d="M213.74,389.6s5.9,2.24,9.9,1.5S234.07,393,235,394.54s.46,2-1.51,2.32-9.06,2.41-13.32.25a35.57,35.57,0,0,0-10.07-2.87Z"/><path class="cls-10" d="M167.06,331s1.44,49.3,12.27,54.9c5.34,2.76,29.46,10.36,36.7,11.66,0,0,1.95-1.25,2.17-7.2,0,0-24.79-12.35-27.89-17.92-4.61-8.28,6.87-31,.82-38.95S173.87,321.1,167.06,331Z"/><rect class="cls-13" x="280.19" y="130.55" width="246.02" height="318.15" rx="17.43" transform="translate(806.4 579.25) rotate(-180)"/><rect class="cls-14" x="304.36" y="163.89" width="198.08" height="252.6" transform="translate(806.81 580.39) rotate(180)"/><path class="cls-8" d="M474.35,405.41h0A10.45,10.45,0,0,1,463.9,395V250.46A10.45,10.45,0,0,1,474.35,240h0a10.45,10.45,0,0,1,10.45,10.45V395A10.45,10.45,0,0,1,474.35,405.41Z"/><path class="cls-8" d="M440.11,405.41h0A10.45,10.45,0,0,1,429.66,395V204.36a10.45,10.45,0,0,1,10.45-10.45h0a10.45,10.45,0,0,1,10.45,10.45V395A10.45,10.45,0,0,1,440.11,405.41Z"/><path class="cls-8" d="M402.74,405.41h0A10.45,10.45,0,0,1,392.29,395V290.46A10.45,10.45,0,0,1,402.74,280h0a10.45,10.45,0,0,1,10.46,10.45V395A10.45,10.45,0,0,1,402.74,405.41Z"/><path class="cls-8" d="M366.39,405.41h0A10.45,10.45,0,0,1,355.94,395V232.6a10.45,10.45,0,0,1,10.45-10.45h0a10.45,10.45,0,0,1,10.45,10.45V395A10.45,10.45,0,0,1,366.39,405.41Z"/><path class="cls-8" d="M340.29,315V395a10.45,10.45,0,0,1-10.45,10.45h0A10.45,10.45,0,0,1,319.39,395V315a10.45,10.45,0,0,1,10.45-10.46h0A10.45,10.45,0,0,1,340.29,315Z"/><path class="cls-6" d="M356.93,209.2h17.7a1.84,1.84,0,0,1,0,3.67h-17.7a1.84,1.84,0,0,1,0-3.67Z"/><path class="cls-6" d="M370.6,215.87h4a1.83,1.83,0,1,1,0,3.66h-4a1.83,1.83,0,0,1,0-3.66Z"/><path class="cls-6" d="M429.87,181.1h17.7a1.83,1.83,0,0,1,0,3.66h-17.7a1.83,1.83,0,0,1,0-3.66Z"/><path class="cls-6" d="M443.54,187.76h4a1.84,1.84,0,0,1,1.83,1.83h0a1.83,1.83,0,0,1-1.83,1.83h-4a1.83,1.83,0,0,1-1.83-1.83h0A1.84,1.84,0,0,1,443.54,187.76Z"/><path class="cls-6" d="M465.27,227.17H483a1.83,1.83,0,0,1,0,3.66h-17.7a1.83,1.83,0,1,1,0-3.66Z"/><path class="cls-6" d="M478.94,233.83h4a1.84,1.84,0,0,1,1.83,1.83h0A1.84,1.84,0,0,1,483,237.5h-4a1.84,1.84,0,0,1-1.83-1.84h0A1.84,1.84,0,0,1,478.94,233.83Z"/><path class="cls-6" d="M393.89,267.19H411.6a1.83,1.83,0,0,1,0,3.66H393.89a1.83,1.83,0,1,1,0-3.66Z"/><path class="cls-6" d="M407.56,273.85h4a1.84,1.84,0,0,1,1.83,1.83h0a1.84,1.84,0,0,1-1.83,1.83h-4a1.84,1.84,0,0,1-1.83-1.83h0A1.84,1.84,0,0,1,407.56,273.85Z"/><path class="cls-6" d="M321,291.66h17.7a1.83,1.83,0,1,1,0,3.66H321a1.83,1.83,0,0,1,0-3.66Z"/><path class="cls-6" d="M334.66,298.32h4a1.83,1.83,0,0,1,0,3.66h-4a1.83,1.83,0,0,1,0-3.66Z"/><path class="cls-12" d="M329.84,286.45a6.51,6.51,0,1,1,6.5-6.51A6.51,6.51,0,0,1,329.84,286.45Zm0-10.5a4,4,0,1,0,4,4A4,4,0,0,0,329.84,276Z"/><path class="cls-12" d="M327.07,276a1.28,1.28,0,0,1-.89-.36L306.63,256H147.83a1.26,1.26,0,1,1,0-2.52H307.68L328,273.81a1.26,1.26,0,0,1,0,1.78A1.28,1.28,0,0,1,327.07,276Z"/><path class="cls-12" d="M367.25,423.6a6.51,6.51,0,1,1,6.5-6.5A6.51,6.51,0,0,1,367.25,423.6Zm0-10.49a4,4,0,1,0,4,4A4,4,0,0,0,367.25,413.11Z"/><path class="cls-12" d="M546.74,443.52H389.41l-20.28-20.29a1.24,1.24,0,0,1,0-1.78,1.26,1.26,0,0,1,1.78,0L390.45,441H546.74a1.26,1.26,0,0,1,0,2.52Z"/><path class="cls-12" d="M439.2,176.06a6.51,6.51,0,1,1,6.5-6.5A6.51,6.51,0,0,1,439.2,176.06Zm0-10.49a4,4,0,1,0,4,4A4,4,0,0,0,439.2,165.57Z"/><path class="cls-12" d="M436.43,165.57a1.23,1.23,0,0,1-.89-.37L416,145.66H257.19a1.26,1.26,0,0,1,0-2.52H417l20.29,20.28a1.26,1.26,0,0,1-.89,2.15Z"/><path class="cls-10" d="M254,250.61H149.63a3.19,3.19,0,0,1-3.19-3.19h0a3.19,3.19,0,0,1,3.19-3.19H254a3.19,3.19,0,0,1,3.19,3.19h0A3.19,3.19,0,0,1,254,250.61Z"/><path class="cls-10" d="M254,240.54h-64a3.19,3.19,0,0,1-3.19-3.19h0a3.19,3.19,0,0,1,3.19-3.19h64a3.19,3.19,0,0,1,3.19,3.19h0A3.19,3.19,0,0,1,254,240.54Z"/><path class="cls-10" d="M254,230.46h-64a3.18,3.18,0,0,1-3.19-3.18h0a3.19,3.19,0,0,1,3.19-3.19h64a3.19,3.19,0,0,1,3.19,3.19h0A3.18,3.18,0,0,1,254,230.46Z"/><path class="cls-10" d="M362.59,139.57H258.26a3.19,3.19,0,0,1-3.19-3.19h0a3.18,3.18,0,0,1,3.19-3.18H362.59a3.18,3.18,0,0,1,3.19,3.18h0A3.19,3.19,0,0,1,362.59,139.57Z"/><circle class="cls-15" cx="439.81" cy="475.03" r="22.7" transform="translate(-167.37 699.58) rotate(-67.5)"/><path class="cls-16" d="M439.81,455.84a19.19,19.19,0,0,1,13.68,32.65L439.81,475l-17.93,6.85a19.2,19.2,0,0,1,17.93-26Z"/><path class="cls-15" d="M442.62,465.29h8.17a.58.58,0,0,1,.58.58h0a.59.59,0,0,1-.58.59h-8.17a.6.6,0,0,1-.59-.59h0A.59.59,0,0,1,442.62,465.29Z"/><path class="cls-15" d="M442.62,467.14h8.17a.58.58,0,1,1,0,1.16h-8.17a.58.58,0,1,1,0-1.16Z"/><path class="cls-15" d="M447.41,469h3.38a.58.58,0,0,1,0,1.16h-3.38a.58.58,0,1,1,0-1.16Z"/><polygon class="cls-15" points="419.93 464.38 428.91 455.4 419.93 455.4 419.93 464.38"/><circle class="cls-15" cx="516.48" cy="475.03" r="22.7" transform="matrix(0.05, -1, 1, 0.05, 16.31, 967.21)"/><path class="cls-16" d="M497.29,475a19.18,19.18,0,1,1,7.55,15.26L516.48,475l-17.93,6.85A19.24,19.24,0,0,1,497.29,475Z"/><path class="cls-15" d="M519.44,465.29h8.17a.59.59,0,0,1,.59.58h0a.6.6,0,0,1-.59.59h-8.17a.59.59,0,0,1-.58-.59h0A.58.58,0,0,1,519.44,465.29Z"/><path class="cls-15" d="M519.44,467.14h8.17a.58.58,0,1,1,0,1.16h-8.17a.58.58,0,1,1,0-1.16Z"/><path class="cls-15" d="M524.24,469h3.37a.58.58,0,1,1,0,1.16h-3.37a.58.58,0,1,1,0-1.16Z"/><polygon class="cls-15" points="496.73 464.38 505.71 455.4 496.73 455.4 496.73 464.38"/><path class="cls-17" d="M653.06,528.68H.94c-.52,0-.94-.29-.94-.66H0c0-.36.42-.66.94-.66H653.06c.52,0,.94.3.94.66h0C654,528.39,653.58,528.68,653.06,528.68Z"/></svg>