<?xml version="1.0" encoding="UTF-8"?><svg id="Layer_1" xmlns="http://www.w3.org/2000/svg" viewBox="0 0 709 216"><defs><style>.cls-1{fill:#fff;}.cls-2{fill:#f6902d;}.cls-3{isolation:isolate;}</style></defs><g class="cls-3"><path class="cls-1" d="M164.86,177.12h-20.62l-5.98-18.69h-29.88l-5.92,18.69h-20.51l30.59-84.02h22.44l29.88,84.02Zm-30.94-33.22l-9.02-28.24c-.67-2.11-1.13-4.63-1.41-7.56h-.47c-.2,2.46-.68,4.9-1.46,7.32l-9.14,28.48h21.5Z"/><path class="cls-1" d="M223.45,177.12h-17.52v-8.61h-.23c-4.02,6.72-9.98,10.08-17.87,10.08-5.82,0-10.4-1.65-13.74-4.95-3.34-3.3-5.01-7.71-5.01-13.21,0-11.64,6.89-18.36,20.68-20.16l16.29-2.17c0-6.56-3.55-9.84-10.66-9.84s-13.95,2.13-20.39,6.39v-13.95c2.58-1.33,6.1-2.5,10.58-3.52,4.47-1.02,8.54-1.52,12.22-1.52,17.11,0,25.66,8.54,25.66,25.61v35.86Zm-17.4-24.38v-4.04l-10.9,1.41c-6.02,.78-9.02,3.5-9.02,8.14,0,2.11,.73,3.84,2.2,5.19s3.45,2.02,5.95,2.02c3.48,0,6.31-1.2,8.5-3.6,2.19-2.4,3.28-5.44,3.28-9.11Z"/><path class="cls-1" d="M296.81,177.12h-18.52v-8.26h-.23c-4.22,6.48-10.41,9.73-18.57,9.73-7.5,0-13.54-2.65-18.11-7.94-4.57-5.29-6.86-12.69-6.86-22.18s2.52-17.87,7.56-23.85,11.64-8.96,19.8-8.96c7.73,0,13.12,2.77,16.17,8.32h.23v-35.68h18.52v88.83Zm-18.16-29.18v-4.51c0-3.91-1.13-7.15-3.4-9.73-2.27-2.58-5.21-3.87-8.85-3.87-4.1,0-7.3,1.61-9.61,4.83-2.31,3.22-3.46,7.65-3.46,13.27,0,5.27,1.11,9.34,3.34,12.19s5.31,4.28,9.26,4.28,6.81-1.5,9.17-4.51c2.36-3.01,3.54-6.99,3.54-11.95Z"/><path class="cls-1" d="M369.52,117.12l-24.38,64.8c-5.86,15.59-14.69,23.38-26.48,23.38-4.49,0-8.18-.51-11.07-1.52v-14.77c2.46,1.44,5.14,2.17,8.03,2.17,4.77,0,8.09-2.25,9.96-6.74l3.16-7.44-24.38-59.88h20.51l11.19,36.5c.7,2.27,1.25,4.94,1.64,8.03h.23c.35-2.27,1-4.9,1.93-7.91l11.31-36.62h18.34Z"/><path class="cls-1" d="M426.89,177.12h-17.52v-8.61h-.23c-4.02,6.72-9.98,10.08-17.87,10.08-5.82,0-10.4-1.65-13.74-4.95-3.34-3.3-5.01-7.71-5.01-13.21,0-11.64,6.89-18.36,20.68-20.16l16.29-2.17c0-6.56-3.55-9.84-10.66-9.84s-13.95,2.13-20.39,6.39v-13.95c2.58-1.33,6.1-2.5,10.58-3.52,4.47-1.02,8.54-1.52,12.22-1.52,17.11,0,25.66,8.54,25.66,25.61v35.86Zm-17.4-24.38v-4.04l-10.9,1.41c-6.02,.78-9.02,3.5-9.02,8.14,0,2.11,.73,3.84,2.2,5.19s3.45,2.02,5.95,2.02c3.48,0,6.31-1.2,8.5-3.6,2.19-2.4,3.28-5.44,3.28-9.11Z"/></g><g class="cls-3"><path class="cls-1" d="M514.93,178.69h-50.04V94.66h18.93v68.67h31.11v15.35Z"/><path class="cls-1" d="M621.98,178.69h-18.69v-50.27c0-5.43,.23-11.43,.7-17.99h-.47c-.98,5.16-1.86,8.87-2.64,11.13l-19.69,57.13h-15.47l-20.04-56.54c-.55-1.52-1.43-5.43-2.64-11.72h-.53c.51,8.28,.76,15.55,.76,21.8v46.46h-17.05V94.66h27.71l17.17,49.81c1.37,3.98,2.36,7.99,2.99,12.01h.35c1.05-4.65,2.17-8.69,3.34-12.13l17.17-49.69h27.01v84.02Z"/><path class="cls-1" d="M637.21,175.46v-18.75c3.4,2.85,7.09,4.99,11.07,6.42s8.01,2.14,12.07,2.14c2.38,0,4.46-.21,6.24-.64,1.78-.43,3.26-1.03,4.45-1.79,1.19-.76,2.08-1.66,2.67-2.7s.88-2.16,.88-3.37c0-1.64-.47-3.11-1.41-4.39s-2.22-2.48-3.84-3.57c-1.62-1.09-3.54-2.15-5.77-3.16s-4.63-2.05-7.21-3.11c-6.56-2.73-11.46-6.07-14.68-10.02s-4.83-8.71-4.83-14.3c0-4.38,.88-8.13,2.64-11.28s4.15-5.73,7.18-7.76c3.03-2.03,6.53-3.52,10.52-4.48,3.98-.96,8.2-1.44,12.66-1.44s8.25,.26,11.63,.79c3.38,.53,6.49,1.34,9.35,2.43v17.52c-1.41-.98-2.94-1.84-4.6-2.58-1.66-.74-3.37-1.36-5.13-1.85s-3.51-.85-5.24-1.08c-1.74-.23-3.39-.35-4.95-.35-2.15,0-4.1,.21-5.86,.62s-3.24,.99-4.45,1.73c-1.21,.74-2.15,1.63-2.81,2.67-.67,1.04-1,2.2-1,3.49,0,1.41,.37,2.67,1.11,3.78,.74,1.11,1.8,2.17,3.16,3.16,1.37,1,3.03,1.97,4.98,2.93,1.95,.96,4.16,1.94,6.62,2.96,3.36,1.41,6.38,2.9,9.05,4.48,2.67,1.58,4.97,3.37,6.88,5.36,1.91,1.99,3.38,4.27,4.39,6.83,1.02,2.56,1.52,5.54,1.52,8.94,0,4.69-.89,8.62-2.67,11.81-1.78,3.18-4.19,5.76-7.24,7.73-3.05,1.97-6.59,3.39-10.63,4.25s-8.31,1.29-12.8,1.29-8.99-.39-13.15-1.17-7.76-1.95-10.81-3.52Z"/></g><path class="cls-2" d="M36.97,153.52c1.09,1.81,1.92,3.76,2.48,5.8,.55,1.92,.92,3.89,1.13,5.88,.27,1.97,.27,3.96,0,5.93-.16,1.02-.41,2.03-.76,3-.38,1.08-.9,2.11-1.56,3.05l-1,.05c-.76-.86-1.4-1.82-1.9-2.86-.45-.93-.81-1.91-1.08-2.91-.49-1.92-.71-3.91-.66-5.89,0-2.01,.17-4.02,.51-6,.34-2.07,.96-4.09,1.84-6l1-.05Z"/><polygon class="cls-2" points="91.03 89.78 6 123.19 48.85 43.99 130.2 8.83 91.03 89.78"/><rect class="cls-2" x="33.08" y="108.48" width="4.78" height="45.25" transform="translate(-6.93 2.07) rotate(-3.05)"/><circle class="cls-2" cx="36.2" cy="144.59" r="6.72"/><path class="cls-2" d="M156.47,78.25l-34.64-37.53-26,54-56,22,32,34.76c16.64-13.22,56.18-45.17,84.64-73.23Z"/></svg>