<svg id="Layer_1" data-name="Layer 1" xmlns="http://www.w3.org/2000/svg" viewBox="0 0 756.71 189.06"><defs><style>.cls-1{font-size:120px;fill:#fff;font-family:Gotham-Black, Gotham Black;font-weight:800;}.cls-2{letter-spacing:-0.03em;}.cls-3{fill:#f6902d;}</style></defs><text class="cls-1" transform="translate(75.36 168.3)">Aad<tspan class="cls-2" x="248.4" y="0">y</tspan><tspan x="319.92" y="0">a LMS</tspan></text><path class="cls-3" d="M35.61,144.8a23,23,0,0,1,2.48,5.8,34.46,34.46,0,0,1,1.13,5.88,21.42,21.42,0,0,1,0,5.93,16.81,16.81,0,0,1-.76,3,12.43,12.43,0,0,1-1.56,3.05l-1,.05A12.23,12.23,0,0,1,34,165.65a16.55,16.55,0,0,1-1.08-2.91,21.79,21.79,0,0,1-.66-5.89,35.36,35.36,0,0,1,.51-6,23.15,23.15,0,0,1,1.84-6Z" transform="translate(-4.64 -0.11)"/><polygon class="cls-3" points="85.03 80.95 0 114.36 42.85 35.16 124.2 0 85.03 80.95"/><rect class="cls-3" x="31.73" y="99.76" width="4.78" height="45.25" transform="translate(-11.11 1.88) rotate(-3.05)"/><circle class="cls-3" cx="30.2" cy="135.76" r="6.72"/><path class="cls-3" d="M155.11,69.53,120.47,32l-26,54-56,22,32,34.76C87.11,129.54,126.65,97.59,155.11,69.53Z" transform="translate(-4.64 -0.11)"/></svg>